<?xml version="1.0" encoding="utf-8"?>
<!-- Generator: Adobe Illustrator 22.1.0, SVG Export Plug-In . SVG Version: 6.00 Build 0)  -->
<svg version="1.1" id="Layer_1" xmlns="http://www.w3.org/2000/svg" xmlns:xlink="http://www.w3.org/1999/xlink" x="0px" y="0px"
	 viewBox="0 0 146.2 146.2" style="enable-background:new 0 0 146.2 146.2;" xml:space="preserve">
<style type="text/css">
	.st0{fill:#99FFFF;}
</style>
<circle class="st0" cx="73.1" cy="73.1" r="73.1"/>
<g>
	<g>
		<path d="M98.7,109.4c-16.6,6.7-33.1,5.1-49.6,0.2c0-6.1-0.5-12,0.1-17.9c1-8.9,7.6-15.2,16.5-15.9c5.7-0.5,11.5-0.4,17.2,0.1
			c8.5,0.8,15.4,8.4,15.8,17C98.9,98.2,98.7,103.5,98.7,109.4z"/>
		<path d="M23.6,94.3c0-6.2-0.6-12.5,0.1-18.6c1-8.5,9-14.9,17.6-15.1c4.7-0.1,9.4,0,14.3,0c0.5,4.7,2.1,8.8,5.5,12.3
			c-11.8,4.6-16.5,13.5-15.7,25.5C40.6,98.7,28.3,96.4,23.6,94.3z"/>
		<path d="M122.8,94.2c-6.5,3.1-13.2,4.2-20.5,4.5c0-1.1,0-2.1,0-3.1c0.1-10.8-4.8-18.2-14.8-22.3c-0.2-0.1-0.4-0.2-0.9-0.5
			c3.2-3.4,5-7.3,5.4-12.3c1.5,0,3,0,4.5,0c4,0.1,8-0.1,11.9,0.6c7.9,1.3,14.1,8.7,14.4,16.7C123,83.2,122.8,88.6,122.8,94.2z"/>
		<path d="M88.3,59.8c0,8.1-6.4,14.7-14.5,14.7c-8,0-14.5-6.4-14.5-14.4c-0.1-8.1,6.4-14.6,14.5-14.6C81.9,45.4,88.3,51.8,88.3,59.8
			z"/>
		<path d="M62.7,45.6c-3.6,3-6,6.8-6.8,11.4c-5.5,3.6-12.8,2.9-17.5-1.4c-5-4.6-6.2-11.8-3-17.7c3.2-5.9,10.1-8.8,16.7-7
			C58.5,32.6,62.8,38.5,62.7,45.6z"/>
		<path d="M92,57.9c-0.9-5.6-3.6-10.1-8.4-13.2c0-6.5,4.3-12.1,10.4-13.8c6.4-1.8,13,0.8,16.5,6.3c3.4,5.5,2.8,12.7-1.5,17.3
			C104.5,59.3,97.6,60.7,92,57.9z"/>
	</g>
</g>
</svg>
