<?xml version="1.0" encoding="utf-8"?>
<!-- Generator: Adobe Illustrator 22.1.0, SVG Export Plug-In . SVG Version: 6.00 Build 0)  -->
<svg version="1.1" id="Layer_1" xmlns="http://www.w3.org/2000/svg" xmlns:xlink="http://www.w3.org/1999/xlink" x="0px" y="0px"
	 viewBox="0 0 105.7 163.8" style="enable-background:new 0 0 105.7 163.8;" xml:space="preserve">
<style type="text/css">
	.st0{fill:#32325D;}
</style>
<g>
	<g>
		<g>
			<path class="st0" d="M79.4,97.6c-1,1.6-2.1,3.1-3.1,4.7c-0.2,0.4-0.5,0.5-0.9,0.5c-2.5-0.3-5-0.5-7.5-0.7c-0.2,0-0.5,0-0.7,0.1
				c-0.8,0.6-1.5,1.2-2.2,1.8c-1.3,1-2.5,2.1-3.8,3.1c-0.3,0.2-0.5,0.3-0.9,0.1c-2.3-1-4.7-1.9-7-2.8c-0.2-0.1-0.4-0.1-0.6-0.1
				c-0.5,0.1-0.9,0.3-1.4,0.5c-2.1,0.9-4.2,1.7-6.4,2.6c-2.1-1.7-4.2-3.5-6.3-5.2c-0.2-0.2-0.5-0.3-0.8-0.3
				c-2.2,0.2-4.4,0.3-6.6,0.7c-1.2,0.2-1.8-0.2-2.3-1.2c-0.4-0.8-1-1.5-1.5-2.3c-0.1,0.3-0.2,0.5-0.3,0.7c-1.7,4.3-3.5,8.7-5.2,13
				c-1,2.5-2,5-3,7.5c-1.1,2.7-2.1,5.4-3.2,8.2c-0.5,1.3-1,2.6-1.5,4c-0.2,0.5-0.4,1-0.6,1.5c-1.1,2.6-2.1,5.3-3.2,7.9
				c-0.4,1-0.7,2-1.1,3c1.2-0.2,2.3-0.4,3.4-0.6c2.9-0.5,5.7-1,8.6-1.6c0.9-0.2,1.8-0.4,2.6-0.6c0.1,0,0.3,0,0.4,0
				c0.8-0.1,1.6-0.3,2.4-0.4c0.3,0,0.6,0,0.8,0.2c3.1,2.8,6.2,5.5,9.2,8.3c0.8,0.7,1.7,1.5,2.6,2.3c5.1-12.8,10.2-25.5,15.3-38.3
				c5.3,16.6,10.6,33.1,15.8,49.6c0.2-0.2,0.4-0.3,0.5-0.4c1.4-1.6,2.8-3.2,4.2-4.7c2.4-2.7,4.8-5.4,7.2-8.1
				c0.1-0.2,0.5-0.3,0.7-0.2c0.7,0.1,1.4,0.3,2.1,0.4c4.1,0.9,8.2,1.9,12.3,2.8c1,0.2,2,0.4,3.1,0.7c-6.4-20-12.7-39.9-19-59.9
				C80.8,95.5,80.1,96.5,79.4,97.6z"/>
		</g>
		<g>
			<path class="st0" d="M102.2,57.7c-0.1-0.4-0.1-0.9,0.1-1.3c0.3-0.8,0.8-1.6,1.2-2.4c0.8-1.6,1.6-3.2,2.3-4.7
				c-1.5-2.1-2.9-4.2-4.3-6.2c-0.4-0.6-0.5-1.1-0.4-1.8c0.4-2.3,0.8-4.6,1.1-7c0.1-0.4,0-0.7-0.3-0.9c-2-1.5-4-3.1-6-4.7
				c-0.2-0.1-0.3-0.4-0.4-0.7c-0.3-2.4-0.7-4.7-0.9-7.1c-0.1-0.7-0.3-1.1-1-1.3c-2.2-0.8-4.4-1.6-6.6-2.5c-0.3-0.1-0.7-0.5-0.8-0.8
				C85,14.2,83.9,12,83,9.8c-0.2-0.5-0.5-0.6-0.9-0.6c-2.4-0.1-4.9-0.3-7.3-0.5c-0.3,0-0.7-0.2-0.9-0.4c-1.7-1.9-3.4-3.8-5.2-5.7
				c-0.2-0.2-0.5-0.3-0.7-0.2c-2.4,0.5-4.7,1.1-7,1.7c-0.7,0.2-1.2,0-1.7-0.3c-2.1-1.3-4.3-2.6-6.4-3.9c-2.1,1.3-4.3,2.6-6.4,3.8
				c-0.4,0.2-0.9,0.5-1.3,0.4c-2.2-0.5-4.4-1-6.6-1.6c-1.3-0.3-1.6-0.3-2.4,0.8C36,3.7,35.8,3.8,35.7,4c-1.3,1.4-2.6,2.8-3.9,4.3
				c-0.3,0.3-0.6,0.5-1,0.5c-2.5,0.1-4.9,0.3-7.4,0.4c-0.4,0-0.7,0.2-0.9,0.6c-0.9,2.1-1.9,4.1-2.8,6.2c-0.3,0.6-0.6,1.1-1.3,1.3
				c-2.2,0.8-4.4,1.6-6.6,2.5c-0.2,0.1-0.5,0.3-0.5,0.5c-0.4,2.4-0.7,4.7-1,7.1c-0.1,0.6-0.3,1.1-0.8,1.6c-2,1.5-3.9,3-5.8,4.5
				c-0.2,0.1-0.3,0.4-0.2,0.6c0.3,2.2,0.7,4.3,1.1,6.5c0.2,1.1,0.1,2-0.6,2.9c-1.3,1.7-2.4,3.4-3.6,5.2C0,49.1-0.1,49.5,0.2,50
				c1.1,2.1,2.1,4.2,3.1,6.2c0.3,0.5,0.3,1,0.1,1.6c-0.8,2.3-1.6,4.7-2.3,7c-0.1,0.2,0,0.5,0.1,0.6c1.7,1.9,3.5,3.7,5.3,5.5
				c0.2,0.2,0.4,0.7,0.4,1c0,2.2,0,4.4-0.1,6.7c0,0.9,0.1,1.6,1.1,2c1.9,0.9,3.6,2.1,5.5,3c0.6,0.3,1,0.7,1.2,1.4
				c0.6,2.3,1.3,4.6,1.9,6.8c0.1,0.4,0.3,0.5,0.6,0.6c2.2,0.5,4.4,1,6.6,1.4c1.1,0.2,1.7,0.7,2.2,1.6c1.1,1.8,2.4,3.6,3.6,5.4
				c0.1,0.2,0.5,0.4,0.7,0.3c2.5-0.2,5-0.5,7.6-0.7c0.3,0,0.7,0.1,0.9,0.3c2,1.6,3.9,3.2,5.9,4.8c0.2,0.1,0.6,0.2,0.8,0.1
				c2.3-0.9,4.6-1.9,6.9-2.8c0.3-0.1,0.6-0.2,0.9-0.1c0.9,0.3,1.8,0.7,2.7,1.1c1.6,0.7,3.2,1.3,4.9,2c1.9-1.6,3.7-3.1,5.6-4.6
				c0.5-0.4,0.9-0.9,1.7-0.8c2.2,0.3,4.3,0.3,6.5,0.6c1,0.1,1.5-0.1,2-1c1-1.7,2.2-3.4,3.3-5.1c0.3-0.5,0.5-1,1.3-1.1
				c2.5-0.5,4.9-1,7.3-1.6c0.2,0,0.5-0.2,0.5-0.4c0.6-2.1,1.2-4.1,1.8-6.2c0.3-1,0.6-1.9,1.7-2.4c2-1,3.9-2.1,5.8-3.2
				c0.2-0.1,0.5-0.5,0.5-0.8c0-2.2,0-4.4-0.1-6.7c0-1,0.1-1.7,0.9-2.4c1.6-1.6,3.1-3.2,4.7-4.8c0.3-0.3,0.4-0.6,0.2-1
				C103.6,62.3,102.9,60,102.2,57.7z M53.6,100.9C26.5,101.3,5.2,79.5,5,53.5C4.7,26.8,26.2,5.2,52.8,5.1
				c26.4,0.1,47.7,21.3,47.9,47.7C100.8,79.3,79.5,100.5,53.6,100.9z"/>
		</g>
		<g>
			<path class="st0" d="M49.1,20.2c1.1-0.7,2.1-1.4,3-2c0.5-0.3,0.8-0.4,1.3,0c0.9,0.7,1.9,1.3,3,2.1c-0.3-1.2-0.6-2.2-0.9-3.3
				c-0.3-1.1-0.3-1,0.6-1.7c0.8-0.6,1.6-1.3,2.4-1.9c0-0.1,0-0.1,0-0.2c-1.4,0-2.8,0-4.2,0c-0.5-1.5-1-2.8-1.6-4.2
				c-0.5,1.5-1,2.8-1.5,4.1c-1.4,0.1-2.8,0.1-4.4,0.2c1.2,1,2.3,1.8,3.4,2.7C49.9,17.3,49.6,18.7,49.1,20.2z"/>
		</g>
		<g>
			<path class="st0" d="M27.7,28.7c0.1-0.5,0.2-0.7,0.7-0.8c1.2-0.2,2.4-0.5,3.7-0.7c-1-0.5-1.8-1-2.6-1.5c-1.5-0.8-1.2-0.4-1.1-2
				c0,0,0,0,0-0.1c0.1-0.9,0.2-1.9,0.4-3c-1.2,1.1-2.2,2-3.2,3c-1.3-0.6-2.6-1.2-4-1.8c0.6,1.4,1.2,2.7,1.8,4c-1,1-1.9,2.1-2.9,3.1
				c1.3,0,2.5-0.2,3.7-0.4c0.4-0.1,0.6,0,0.8,0.4c0.6,1.1,1.2,2.2,1.9,3.5C27.3,31,27.5,29.9,27.7,28.7z"/>
		</g>
		<g>
			<path class="st0" d="M82.5,24.9c0.5-1,0.9-1.9,1.5-3.1c-1.5,0.7-2.7,1.3-4,1.8c-1.1-1-2.1-2-3.2-3c0.1,1.3,0.2,2.4,0.4,3.6
				c0.1,0.6-0.1,1-0.6,1.2c-1,0.5-2,1.1-3.1,1.7c1.3,0.3,2.5,0.5,3.6,0.7c0.6,0.1,0.8,0.4,0.9,0.9c0.2,1.1,0.4,2.3,0.7,3.6
				c0.8-1.4,1.5-2.6,2.2-3.9c1.4,0.2,2.8,0.4,4.2,0.5c-0.6-0.9-1.3-1.7-2.1-2.5C82.1,25.9,82.1,25.8,82.5,24.9z"/>
		</g>
		<g>
			<path class="st0" d="M65.2,20.6c1-0.2,1-0.2,1.6,0.7c0.6,0.9,1.2,1.7,1.9,2.8c0.2-1.4,0.4-2.6,0.5-3.8c0-0.4,0.2-0.6,0.6-0.7
				c1.2-0.3,2.4-0.7,3.7-1.1c-1.2-0.6-2.4-1.1-3.5-1.6c-0.4-0.2-0.5-0.4-0.5-0.8c0-1.2,0-2.4,0-3.7c-0.9,1-1.8,2-2.8,3
				c-1.4-0.5-2.7-1-4.1-1.5c0.8,1.4,1.5,2.6,2.2,3.8c-0.9,1.1-1.8,2.3-2.8,3.5C63.2,21,64.2,20.8,65.2,20.6z"/>
		</g>
		<g>
			<path class="st0" d="M36.4,20.3c0.1,1.2,0.3,2.3,0.4,3.7c0.8-1.2,1.5-2.2,2.1-3.2c0.2-0.3,0.4-0.4,0.8-0.3
				c1.2,0.3,2.5,0.5,3.8,0.8c-0.7-0.9-1.3-1.7-2-2.5c-0.8-0.9-0.8-0.9-0.2-2c0.5-0.9,1-1.8,1.6-2.8c-1.5,0.5-2.8,1-4.2,1.5
				c-1-1.1-1.9-2.1-3-3.2c0.1,1.3,0.1,2.4,0.2,3.5c0,0.6,0,1-0.7,1.3c-1.1,0.4-2.1,0.9-3.3,1.5c1.3,0.4,2.4,0.8,3.6,1
				C36.3,19.6,36.4,19.9,36.4,20.3z"/>
		</g>
		<g>
			<path class="st0" d="M23.5,80.2c-0.6,1.3-1.2,2.6-1.8,4c1.4-0.7,2.7-1.2,4-1.8c1.1,1,2.1,1.9,3.2,3c-0.2-1.2-0.3-2.2-0.4-3.2
				c-0.2-1.1-0.1-1.3,0.9-1.8c0.1,0,0.2-0.1,0.2-0.1c0.8-0.5,1.6-0.9,2.5-1.4c-1.4-0.3-2.5-0.5-3.7-0.7c-0.4-0.1-0.6-0.3-0.7-0.7
				c-0.2-1.2-0.4-2.4-0.7-3.7c-0.2,0.3-0.3,0.4-0.4,0.5c-0.5,0.9-1.1,1.8-1.5,2.8c-0.2,0.5-0.5,0.5-1,0.4c-1.2-0.2-2.4-0.3-3.7-0.5
				C21.5,78.1,22.5,79.1,23.5,80.2z"/>
		</g>
		<g>
			<path class="st0" d="M56.4,85.8c-1.3,0.9-2.5,1.6-3.6,2.4c-1.2-0.8-2.3-1.6-3.6-2.4c0.4,1.5,0.8,2.8,1.2,4.2
				c-1.1,0.9-2.2,1.7-3.3,2.6c0,0.1,0,0.2,0,0.2c1.4,0,2.8,0,4.2,0c0.5,1.4,1,2.8,1.5,4.2c0.4-1.2,0.9-2.2,1.2-3.3
				c0.2-0.8,0.6-0.9,1.2-0.9c1.1,0,2.2-0.1,3.5-0.1c-1.3-1-2.4-1.9-3.5-2.7C55.7,88.7,56,87.3,56.4,85.8z"/>
		</g>
		<g>
			<path class="st0" d="M77.7,77.9c-1.4,0.3-2.8,0.6-4.3,0.9c1.4,0.8,2.6,1.4,3.8,2.2c-0.2,1.4-0.3,2.8-0.5,4.4c1.1-1,2.2-2,3.2-3
				c1.3,0.6,2.6,1.2,4,1.8c-0.5-1.1-0.9-2-1.4-2.9c-0.5-1.1-0.5-1.1,0.3-1.9c0.4-0.4,0.7-0.8,1.1-1.2c0.3-0.4,0.7-0.8,1.1-1.2
				c-1.6,0.2-3,0.4-4.3,0.6c-0.7-1.3-1.4-2.5-2.2-3.9C78.3,75.1,78,76.5,77.7,77.9z"/>
		</g>
		<g>
			<path class="st0" d="M42.5,86.1c0.3-0.4,0.6-0.8,1.1-1.4c-1.2,0.3-2.2,0.5-3.2,0.7c-1.1,0.2-1.1,0.2-1.7-0.8
				c-0.5-0.9-1.1-1.7-1.8-2.7c-0.2,1.4-0.3,2.6-0.4,3.7c0,0.4-0.2,0.7-0.7,0.8c-1.2,0.3-2.4,0.7-3.7,1c1.2,0.5,2.2,1.1,3.2,1.5
				c0.6,0.2,0.8,0.5,0.7,1.2c-0.1,1.1,0,2.3,0,3.4c0.7-0.7,1.4-1.5,2.1-2.2c0.8-0.9,0.8-0.8,1.9-0.4c0.9,0.4,1.8,0.7,2.9,1.1
				c-0.1-0.3-0.2-0.4-0.3-0.6c-0.5-0.8-1-1.7-1.5-2.5c-0.3-0.5-0.3-0.9,0.1-1.4C41.8,87.1,42.2,86.6,42.5,86.1z"/>
		</g>
		<g>
			<path class="st0" d="M68.7,82.2c-0.1,0-0.1,0-0.2,0c-0.6,0.9-1.2,1.7-1.7,2.7c-0.4,0.6-0.8,0.9-1.5,0.6c-0.1,0-0.3-0.1-0.4-0.1
				c-1-0.2-1.9-0.4-3-0.6c1,1.3,1.9,2.4,2.7,3.5c-0.7,1.2-1.4,2.5-2.1,3.8c1.3-0.5,2.5-0.9,3.6-1.3c0.4-0.1,0.6-0.1,0.9,0.2
				c0.8,0.9,1.6,1.8,2.5,2.7c0-1.5,0-2.9,0-4.3c1.3-0.6,2.5-1.2,3.9-1.8c-1.5-0.4-2.9-0.8-4.2-1.2C69.1,84.9,68.9,83.5,68.7,82.2z"
				/>
		</g>
	</g>
	<path class="st0" d="M52.6,6.6C27.2,6.7,6.7,27.2,6.4,52.5c-0.3,26,20.8,46.9,46.4,46.9c25.4,0,46.3-20.5,46.4-46.3
		C99.2,27.4,78.5,6.5,52.6,6.6z M16.7,25.6c7.1-9.3,16.4-15.2,27.9-17.2C70.2,4,89.5,20.5,95.3,37.7c-28.4,0-56.7,0-85.1,0
		C11.7,33.2,13.9,29.3,16.7,25.6z M89.1,52.5c-0.1-0.1-0.2-0.2-0.2-0.2c-0.1-0.1-0.2-0.1-0.2-0.2c-0.1-0.1-0.1-0.2-0.1-0.4
		c0-0.2,0.1-0.4,0.2-0.4c0.1,0,0.3-0.1,0.4-0.1h3.8c0.2,0,0.3,0,0.4,0.1c0.1,0,0.2,0.2,0.2,0.4c0,0.2,0,0.3-0.1,0.4
		c-0.1,0.1-0.2,0.1-0.2,0.2c-0.1,0.1-0.2,0.1-0.2,0.2c-0.1,0.1-0.1,0.3-0.1,0.6v3.8c0,0.1-0.2,0.3-0.4,0.5c-0.3,0.2-0.6,0.4-1,0.6
		c-0.4,0.2-0.9,0.4-1.4,0.5c-0.5,0.1-1,0.2-1.5,0.2v-1.3c0.2,0,0.4-0.1,0.5-0.3c0.1-0.2,0.2-0.4,0.2-0.6v-3.4
		C89.2,52.8,89.2,52.6,89.1,52.5z M88.5,45.3v-1.3c0.1,0,0.2,0,0.4,0c0.2,0,0.4,0,0.6,0.1c0.2,0.1,0.5,0.1,0.7,0.2
		c0.3,0.1,0.5,0.3,0.8,0.4c0.1,0.1,0.1,0.1,0.2,0.1c0.1,0,0.2,0,0.3-0.1c0.1-0.1,0.2-0.2,0.3-0.3c0.1-0.1,0.2-0.2,0.3-0.3
		c0.1-0.1,0.2-0.1,0.4-0.1c0.1,0,0.2,0,0.3,0.1c0.1,0.1,0.1,0.2,0.1,0.3v4.5c0,0.1-0.1,0.3-0.2,0.4c-0.1,0.1-0.2,0.2-0.4,0.2
		c-0.2,0-0.3-0.1-0.4-0.2c-0.1-0.1-0.1-0.3-0.2-0.4c-0.2-0.8-0.4-1.4-0.7-1.9c-0.3-0.5-0.7-0.8-1-1.1c-0.3-0.2-0.7-0.4-1-0.5
		C88.8,45.3,88.6,45.3,88.5,45.3z M86.9,57.2c0.2,0.2,0.4,0.3,0.7,0.3v1.3h-0.4c-0.1,0-0.3,0-0.6-0.1c-0.3-0.1-0.6-0.2-1-0.3
		c-0.4-0.2-0.8-0.4-1.2-0.8c-0.4-0.3-0.8-0.8-1.2-1.3c-0.4-0.6-0.7-1.2-0.9-2c-0.2-0.8-0.3-1.8-0.3-2.9c0-1.1,0.1-2.1,0.3-2.9
		c0.2-0.8,0.5-1.5,0.9-2c0.4-0.6,0.8-1,1.2-1.3c0.4-0.3,0.8-0.6,1.2-0.8s0.7-0.3,1-0.3c0.3-0.1,0.5-0.1,0.6-0.1h0.4v1.3
		c-0.3,0-0.5,0.1-0.7,0.3c-0.2,0.2-0.3,0.4-0.3,0.7v10.3C86.6,56.7,86.7,57,86.9,57.2z M70.5,56.7c0.2,0.1,0.4,0.3,0.6,0.4
		c0.2,0.1,0.4,0.2,0.6,0.3c0.2,0.1,0.3,0.3,0.3,0.4c0,0.2,0,0.4-0.1,0.5c-0.1,0.1-0.2,0.1-0.3,0.1h-3.6c-0.1,0-0.3,0-0.3-0.1
		c-0.1-0.1-0.1-0.2-0.1-0.5c0-0.2,0.1-0.3,0.3-0.4c0.2-0.1,0.4-0.2,0.6-0.3c0.2-0.1,0.4-0.2,0.6-0.4c0.2-0.1,0.3-0.4,0.3-0.6v-8.3
		l1.2,2v6.2C70.3,56.4,70.4,56.6,70.5,56.7z M69.3,46.1c-0.2-0.3-0.3-0.5-0.6-0.6c-0.2-0.1-0.4-0.2-0.6-0.2c-0.2,0-0.4-0.1-0.5-0.1
		c-0.1-0.1-0.2-0.2-0.2-0.3c0-0.2,0-0.4,0.1-0.5c0.1-0.1,0.2-0.1,0.3-0.1h5.8l5.5,9.6v4.6h-2.8L69.3,46.1z M78,49.8v-3.2
		c0-0.3-0.1-0.5-0.3-0.6c-0.2-0.1-0.4-0.3-0.6-0.4c-0.2-0.1-0.4-0.2-0.6-0.3c-0.2-0.1-0.3-0.2-0.3-0.4c0-0.2,0-0.4,0.1-0.5
		c0.1-0.1,0.2-0.1,0.3-0.1h3.6c0.1,0,0.3,0,0.3,0.1c0.1,0.1,0.1,0.2,0.1,0.5c0,0.2-0.1,0.3-0.3,0.4c-0.2,0.1-0.4,0.2-0.6,0.3
		c-0.2,0.1-0.4,0.2-0.6,0.4c-0.2,0.1-0.3,0.4-0.3,0.6v5.2L78,49.8z M65.6,57.1c0.1,0.1,0.2,0.2,0.3,0.2c0.1,0.1,0.2,0.1,0.3,0.2
		c0.1,0.1,0.1,0.2,0.1,0.4c0,0.2,0,0.4-0.1,0.5c-0.1,0.1-0.2,0.1-0.3,0.1h-5.2c-0.1,0-0.2,0-0.3-0.1c-0.1-0.1-0.1-0.2-0.1-0.5
		c0-0.2,0-0.3,0.1-0.4c0.1-0.1,0.2-0.1,0.3-0.2c0.1-0.1,0.2-0.1,0.3-0.2c0.1-0.1,0.1-0.3,0.1-0.5V46.1c0-0.2,0-0.4-0.1-0.5
		c-0.1-0.1-0.2-0.2-0.3-0.2c-0.1-0.1-0.2-0.1-0.3-0.2c-0.1-0.1-0.1-0.2-0.1-0.4c0-0.2,0-0.4,0.1-0.5c0.1-0.1,0.2-0.1,0.3-0.1h5.2
		c0.1,0,0.2,0,0.3,0.1c0.1,0.1,0.1,0.2,0.1,0.5c0,0.2,0,0.3-0.1,0.4c-0.1,0.1-0.2,0.1-0.3,0.2c-0.1,0.1-0.2,0.1-0.3,0.2
		c-0.1,0.1-0.1,0.3-0.1,0.5v10.4C65.4,56.8,65.5,57,65.6,57.1z M59.1,49.3c-0.1,0.1-0.2,0.2-0.4,0.2c-0.2,0-0.3-0.1-0.4-0.2
		c-0.1-0.1-0.1-0.3-0.2-0.4c-0.2-0.8-0.4-1.5-0.7-1.9c-0.3-0.5-0.6-0.8-0.9-1c-0.3-0.2-0.6-0.4-0.8-0.4c-0.3-0.1-0.4-0.1-0.5-0.1
		v-1.3c0.2,0,0.5,0,0.8,0.1c0.4,0.1,0.8,0.3,1.4,0.7c0.1,0.1,0.1,0.1,0.2,0.1c0.1,0,0.2,0,0.3-0.1c0.1-0.1,0.2-0.2,0.3-0.3
		c0.1-0.1,0.2-0.2,0.3-0.3c0.1-0.1,0.2-0.1,0.4-0.1c0.1,0,0.2,0,0.3,0.1c0.1,0.1,0.1,0.2,0.1,0.3v4.5C59.2,49,59.2,49.2,59.1,49.3z
		 M59.2,55.1c0,0.1,0,0.3-0.1,0.5c-0.1,0.2-0.2,0.4-0.3,0.6c-0.1,0.2-0.3,0.5-0.4,0.7c-0.2,0.2-0.4,0.4-0.6,0.6
		c-0.2,0.2-0.4,0.3-0.6,0.5c-0.2,0.1-0.5,0.3-0.7,0.4c-0.2,0.1-0.5,0.2-0.7,0.2c-0.2,0.1-0.5,0.1-0.7,0.1v-1.3c0.2,0,0.4,0,0.7-0.1
		c0.3-0.1,0.6-0.2,0.9-0.4c0.3-0.2,0.5-0.5,0.8-0.8c0.2-0.3,0.4-0.7,0.4-1.2c0-0.1,0.1-0.2,0.2-0.3c0.1-0.1,0.2-0.1,0.4-0.1
		c0.2,0,0.3,0,0.5,0.1C59.1,54.7,59.2,54.9,59.2,55.1z M53.6,57.2c0.2,0.2,0.4,0.3,0.7,0.3v1.3h-0.4c-0.1,0-0.3,0-0.6-0.1
		c-0.3-0.1-0.6-0.2-1-0.3c-0.4-0.2-0.8-0.4-1.2-0.8c-0.4-0.3-0.8-0.8-1.2-1.3c-0.4-0.6-0.7-1.2-0.9-2c-0.2-0.8-0.3-1.8-0.3-2.9
		c0-1.1,0.1-2.1,0.3-2.9c0.2-0.8,0.5-1.5,0.9-2c0.4-0.6,0.8-1,1.2-1.3c0.4-0.3,0.8-0.6,1.2-0.8c0.4-0.2,0.7-0.3,1-0.3
		c0.3-0.1,0.5-0.1,0.6-0.1h0.4v1.3c-0.3,0-0.5,0.1-0.7,0.3c-0.2,0.2-0.3,0.4-0.3,0.7v10.3C53.3,56.7,53.4,57,53.6,57.2z M46.7,57.1
		c0.1,0.1,0.2,0.2,0.3,0.2c0.1,0.1,0.2,0.1,0.3,0.2c0.1,0.1,0.1,0.2,0.1,0.4c0,0.2,0,0.4-0.1,0.5c-0.1,0.1-0.2,0.1-0.3,0.1h-5.2
		c-0.1,0-0.2,0-0.3-0.1c-0.1-0.1-0.1-0.2-0.1-0.5c0-0.2,0-0.3,0.1-0.4c0.1-0.1,0.2-0.1,0.3-0.2c0.1-0.1,0.2-0.1,0.3-0.2
		c0.1-0.1,0.1-0.3,0.1-0.5V46.1c0-0.2,0-0.4-0.1-0.5c-0.1-0.1-0.2-0.2-0.3-0.2c-0.1-0.1-0.2-0.1-0.3-0.2c-0.1-0.1-0.1-0.2-0.1-0.4
		c0-0.2,0-0.4,0.1-0.5c0.1-0.1,0.2-0.1,0.3-0.1h5.2c0.1,0,0.2,0,0.3,0.1c0.1,0.1,0.1,0.2,0.1,0.5c0,0.2,0,0.3-0.1,0.4
		c-0.1,0.1-0.2,0.1-0.3,0.2c-0.1,0.1-0.2,0.1-0.3,0.2c-0.1,0.1-0.1,0.3-0.1,0.5v10.4C46.6,56.8,46.6,57,46.7,57.1z M33.9,52.2
		c-0.2-0.2-0.4-0.3-0.7-0.3v-1.1c0.3,0,0.5-0.1,0.7-0.3c0.2-0.2,0.3-0.4,0.3-0.7v-3.6c0-0.3-0.1-0.5-0.3-0.7
		c-0.2-0.2-0.4-0.3-0.7-0.3v-1h1.9c0.3,0,0.7,0.1,1.2,0.2c0.4,0.1,0.9,0.3,1.2,0.6c0.4,0.3,0.7,0.6,1,1.1c0.3,0.5,0.4,1,0.4,1.8
		c0,0.4,0,0.8-0.1,1.2c-0.1,0.4-0.3,0.7-0.5,1c-0.2,0.3-0.6,0.6-1,0.8c-0.4,0.2-0.9,0.3-1.5,0.4v0.3c0.6,0.1,1.1,0.2,1.5,0.3
		c0.4,0.2,0.7,0.4,1,0.7c0.2,0.3,0.4,0.6,0.5,0.9c0.1,0.4,0.1,0.7,0.1,1.2V56c0,0.1,0,0.2,0,0.3c0,0.1,0.1,0.2,0.3,0.2
		c0.1,0,0.2,0,0.2-0.1c0,0,0.1-0.1,0.1-0.2c0-0.1,0.1-0.1,0.1-0.2c0-0.1,0.1-0.1,0.2-0.1c0.1,0,0.3,0.1,0.3,0.2
		c0.1,0.1,0.1,0.3,0.1,0.4c0,0.2-0.1,0.4-0.2,0.7c-0.1,0.3-0.3,0.5-0.5,0.7c-0.2,0.2-0.5,0.4-0.9,0.6c-0.3,0.2-0.8,0.2-1.2,0.2
		c-0.6,0-1.1-0.1-1.5-0.2c-0.4-0.1-0.8-0.4-1.1-0.6c-0.3-0.3-0.5-0.6-0.6-1c-0.1-0.4-0.2-0.8-0.2-1.2v-2.9
		C34.2,52.6,34.1,52.4,33.9,52.2z M27.5,45.6c-0.1-0.1-0.2-0.2-0.3-0.2c-0.1-0.1-0.2-0.1-0.3-0.2c-0.1-0.1-0.1-0.2-0.1-0.4
		c0-0.2,0-0.4,0.1-0.5c0.1-0.1,0.2-0.1,0.3-0.1h5.2v12.3c0,0.2,0,0.4,0.1,0.5c0.1,0.1,0.2,0.2,0.3,0.2c0.1,0.1,0.2,0.1,0.3,0.2
		c0.1,0.1,0.1,0.2,0.1,0.4c0,0.2,0,0.4-0.1,0.5c-0.1,0.1-0.2,0.1-0.3,0.1h-5.7c-0.1,0-0.2,0-0.3-0.1c-0.1-0.1-0.1-0.2-0.1-0.5
		c0-0.2,0-0.3,0.1-0.4c0.1-0.1,0.2-0.1,0.3-0.2c0.1-0.1,0.2-0.1,0.3-0.2c0.1-0.1,0.1-0.3,0.1-0.5V46.1
		C27.6,45.9,27.5,45.7,27.5,45.6z M20.6,45.6c-0.2-0.2-0.4-0.3-0.7-0.3v-1h1.7c0.6,0,1.1,0.1,1.6,0.2c0.5,0.1,0.9,0.4,1.3,0.7
		c0.4,0.3,0.6,0.8,0.9,1.3c0.2,0.6,0.3,1.2,0.3,2.1c0,0.8-0.2,1.5-0.5,2.1c-0.3,0.6-0.7,1-1.2,1.3c-0.4,0.3-0.9,0.6-1.3,0.7
		c-0.5,0.1-0.8,0.2-1,0.2H20v-1c0.3,0,0.5-0.1,0.7-0.3c0.2-0.2,0.3-0.4,0.3-0.7v-4.6C20.9,46,20.8,45.7,20.6,45.6z M13.7,45.6
		c-0.1-0.1-0.2-0.2-0.3-0.2c-0.1-0.1-0.2-0.1-0.3-0.2c-0.1-0.1-0.1-0.2-0.1-0.4c0-0.2,0-0.4,0.1-0.5c0.1-0.1,0.2-0.1,0.3-0.1h5.2
		v12.3c0,0.2,0,0.4,0.1,0.5c0.1,0.1,0.2,0.2,0.3,0.2c0.1,0.1,0.2,0.1,0.3,0.2c0.1,0.1,0.1,0.2,0.1,0.4c0,0.2,0,0.4-0.1,0.5
		c-0.1,0.1-0.2,0.1-0.3,0.1h-5.7c-0.1,0-0.2,0-0.3-0.1c-0.1-0.1-0.1-0.2-0.1-0.5c0-0.2,0-0.3,0.1-0.4c0.1-0.1,0.2-0.1,0.3-0.2
		c0.1-0.1,0.2-0.1,0.3-0.2c0.1-0.1,0.1-0.3,0.1-0.5V46.1C13.8,45.9,13.7,45.7,13.7,45.6z M51.3,98.3c-22.8-0.8-37-17.3-41-29.9
		c28.3,0,56.7,0,85,0C89.9,84.6,72.9,99,51.3,98.3z"/>
	<g>
		<path class="st0" d="M53.4,83.6c-6.7,0-12.8-1.7-18-5c-5.4-3.4-7.8-7.4-8.4-8.5l0.5-0.3c0.6,1.1,2.9,4.9,8.2,8.3
			c5.1,3.3,11.1,4.9,17.7,4.9c14.2,0,22.8-7.1,25.9-13.2l0.5,0.3c-0.8,1.5-3.1,5.3-8.2,8.6C66.6,81.9,60.4,83.6,53.4,83.6z"/>
	</g>
	<g>
		<path class="st0" d="M79,36.1c-0.6-1.1-2.9-4.9-8.2-8.3C65.7,24.6,59.7,23,53.1,23c-14.2,0-22.8,7.1-25.9,13.2l-0.5-0.3
			c0.8-1.5,3.1-5.3,8.2-8.6c5.1-3.3,11.2-4.9,18.2-4.9c6.7,0,12.8,1.7,18,5c5.4,3.4,7.8,7.4,8.4,8.5L79,36.1z"/>
	</g>
	<g>
		<path class="st0" d="M38.2,28.3c0-0.1,0-0.2-0.1-0.3c-0.1-0.1-0.1-0.1-0.2-0.2c-0.1,0-0.1-0.1-0.2-0.1c-0.1,0-0.1-0.1-0.1-0.2
			c0-0.2,0-0.3,0.1-0.3c0.1,0,0.1-0.1,0.2-0.1h3.3V36h-3.3c-0.1,0-0.1,0-0.2-0.1c-0.1,0-0.1-0.1-0.1-0.3c0-0.1,0-0.2,0.1-0.2
			c0.1,0,0.1-0.1,0.2-0.1c0.1,0,0.1-0.1,0.2-0.2c0.1-0.1,0.1-0.2,0.1-0.3V28.3z M44.3,31.9c0.3,0.1,0.5,0.3,0.6,0.5
			c0.2,0.2,0.3,0.4,0.4,0.7c0.1,0.2,0.1,0.5,0.1,0.8c0,0.4-0.1,0.8-0.3,1.1c-0.2,0.3-0.5,0.5-0.8,0.7c-0.3,0.2-0.6,0.3-0.9,0.3
			C43.1,36,42.9,36,42.6,36h-0.9v-0.6c0.2,0,0.3-0.1,0.4-0.2c0.1-0.1,0.2-0.3,0.2-0.4v-2.2c0-0.2-0.1-0.3-0.2-0.4
			c-0.1-0.1-0.3-0.2-0.4-0.2v-0.7c0.2,0,0.3-0.1,0.4-0.2c0.1-0.1,0.2-0.3,0.2-0.4v-2.2c0-0.2-0.1-0.3-0.2-0.4
			c-0.1-0.1-0.3-0.2-0.4-0.2v-0.6h1.2c0.2,0,0.5,0,0.7,0.1c0.3,0.1,0.5,0.2,0.8,0.3c0.2,0.2,0.4,0.4,0.6,0.7
			c0.2,0.3,0.2,0.7,0.2,1.1c0,0.3,0,0.5-0.1,0.7c-0.1,0.2-0.2,0.5-0.3,0.7c-0.1,0.2-0.3,0.4-0.6,0.5c-0.3,0.1-0.6,0.2-0.9,0.2v0.2
			C43.7,31.7,44.1,31.8,44.3,31.9z"/>
		<path class="st0" d="M46.6,28.3c0-0.1,0-0.2-0.1-0.3c-0.1-0.1-0.1-0.1-0.2-0.2c-0.1,0-0.1-0.1-0.2-0.1c-0.1,0-0.1-0.1-0.1-0.2
			c0-0.2,0-0.3,0.1-0.3c0.1,0,0.1-0.1,0.2-0.1h3.3V36h-3.3c-0.1,0-0.1,0-0.2-0.1c-0.1,0-0.1-0.1-0.1-0.3c0-0.1,0-0.2,0.1-0.2
			c0.1,0,0.1-0.1,0.2-0.1c0.1,0,0.1-0.1,0.2-0.2c0.1-0.1,0.1-0.2,0.1-0.3V28.3z M50.9,27.9c-0.2-0.1-0.5-0.1-0.7-0.2v-0.6h2.7v2.7
			c0,0-0.1,0-0.2,0c-0.1,0-0.1,0-0.2,0c-0.1,0-0.2-0.1-0.3-0.2c-0.1-0.1-0.1-0.2-0.2-0.4c-0.1-0.1-0.1-0.3-0.2-0.4
			c-0.1-0.2-0.2-0.3-0.3-0.4C51.3,28.1,51.1,28,50.9,27.9z M50.1,31.3c0.1,0,0.2,0,0.2,0c0.1,0,0.2-0.1,0.3-0.1
			c0.1-0.1,0.2-0.2,0.2-0.3c0.1-0.1,0.1-0.3,0.2-0.4c0-0.1,0.1-0.3,0.2-0.4c0.1-0.1,0.1-0.2,0.3-0.2c0.1,0,0.2,0,0.2,0.1
			c0,0.1,0,0.2,0,0.3v2.7c0,0.1,0,0.2,0,0.3c0,0.1-0.1,0.1-0.2,0.1c-0.1,0-0.2-0.1-0.3-0.2c-0.1-0.1-0.1-0.2-0.2-0.4
			c0-0.1-0.1-0.3-0.1-0.4c0-0.1-0.1-0.2-0.2-0.3C50.6,32,50.5,32,50.4,32c-0.1,0-0.2,0-0.2,0V31.3z M51.8,34.4
			c0.1-0.2,0.1-0.3,0.2-0.4c0.1-0.1,0.1-0.3,0.2-0.4c0.1-0.1,0.2-0.2,0.3-0.2c0.1,0,0.1,0,0.2,0c0.1,0,0.1,0,0.2,0V36h-2.7v-0.6
			c0.3,0,0.5-0.1,0.7-0.2c0.2-0.1,0.4-0.2,0.6-0.4C51.6,34.7,51.7,34.6,51.8,34.4z"/>
		<path class="st0" d="M53.8,28.6c0.2-0.4,0.5-0.7,0.8-0.9c0.3-0.2,0.6-0.4,0.9-0.5c0.3-0.1,0.6-0.2,0.8-0.2h0.2v0.8
			c0,0-0.1,0-0.2,0.1c-0.1,0-0.2,0.1-0.4,0.2c-0.1,0.1-0.2,0.2-0.3,0.3c-0.1,0.1-0.1,0.3-0.1,0.5c0,0.2,0,0.4,0.1,0.5
			c0.1,0.1,0.2,0.3,0.4,0.4c0.2,0.1,0.4,0.2,0.7,0.3c0.3,0.1,0.6,0.2,0.9,0.3c0.3,0.1,0.6,0.2,0.9,0.4c0.3,0.1,0.6,0.3,0.8,0.5
			c0.2,0.2,0.4,0.5,0.6,0.8c0.1,0.3,0.2,0.6,0.2,1c0,0.4-0.1,0.8-0.2,1.1s-0.3,0.6-0.4,0.8c-0.2,0.2-0.4,0.4-0.6,0.6
			c-0.2,0.2-0.4,0.3-0.6,0.4c-0.2,0.1-0.4,0.2-0.6,0.2c-0.2,0-0.3,0.1-0.5,0.1h-0.3v-0.8c0,0,0.1,0,0.2,0c0.1,0,0.2-0.1,0.4-0.2
			c0.1-0.1,0.2-0.2,0.3-0.3c0.1-0.1,0.1-0.3,0.1-0.5c0-0.2,0-0.4-0.1-0.5c-0.1-0.1-0.2-0.3-0.4-0.4c-0.2-0.1-0.4-0.2-0.7-0.3
			c-0.3-0.1-0.6-0.2-0.9-0.3c-0.4-0.2-0.8-0.3-1.1-0.5c-0.3-0.2-0.6-0.4-0.8-0.6c-0.2-0.2-0.4-0.5-0.5-0.8c-0.1-0.3-0.2-0.7-0.2-1.1
			C53.4,29.4,53.6,28.9,53.8,28.6z M54.7,34.5c0.2,0.3,0.5,0.5,0.7,0.6c0.2,0.1,0.5,0.2,0.7,0.3c0.2,0,0.3,0,0.4,0v0.8h-0.2
			c-0.1,0-0.2,0-0.3,0c-0.1,0-0.3,0-0.4-0.1c-0.1,0-0.3-0.1-0.4-0.2c-0.1-0.1-0.3-0.1-0.4-0.2c0,0-0.1,0-0.1,0c-0.1,0-0.1,0-0.2,0.1
			c-0.1,0.1-0.1,0.1-0.2,0.2c-0.1,0.1-0.1,0.1-0.2,0.2c-0.1,0.1-0.1,0.1-0.2,0.1c-0.1,0-0.1,0-0.2-0.1c-0.1-0.1-0.1-0.1-0.1-0.2
			v-2.7c0-0.1,0-0.2,0.1-0.2c0.1-0.1,0.2-0.1,0.2-0.1c0.1,0,0.2,0,0.2,0.1c0.1,0.1,0.1,0.2,0.1,0.3C54.4,33.8,54.5,34.2,54.7,34.5z
			 M58.7,28.6c-0.2-0.2-0.4-0.4-0.6-0.5c-0.2-0.1-0.4-0.2-0.6-0.3c-0.2,0-0.3-0.1-0.3-0.1V27c0.1,0,0.3,0,0.6,0.1
			c0.3,0,0.6,0.2,0.9,0.4c0,0,0.1,0,0.1,0c0.1,0,0.1,0,0.2-0.1c0.1-0.1,0.1-0.1,0.2-0.2c0.1-0.1,0.1-0.1,0.2-0.2
			c0.1-0.1,0.1-0.1,0.2-0.1c0.1,0,0.1,0,0.2,0.1c0.1,0.1,0.1,0.1,0.1,0.2v2.3c0,0.1,0,0.2-0.1,0.2c-0.1,0.1-0.2,0.1-0.2,0.1
			c-0.1,0-0.2,0-0.2-0.1c0-0.1-0.1-0.2-0.1-0.3C59,29.2,58.9,28.9,58.7,28.6z"/>
		<path class="st0" d="M62.1,28.1c-0.1,0.1-0.2,0.2-0.3,0.3c-0.1,0.1-0.2,0.3-0.2,0.4c-0.1,0.2-0.1,0.4-0.1,0.6V30
			c0,0.1,0,0.2-0.1,0.2c-0.1,0-0.2,0.1-0.3,0.1c-0.1,0-0.2,0-0.3-0.1c-0.1,0-0.1-0.1-0.1-0.2v-2.8h1.6v0.8
			C62.3,28,62.2,28.1,62.1,28.1z M65.9,34.8c0,0.1,0,0.3,0.1,0.3c0.1,0.1,0.1,0.1,0.2,0.2c0.1,0,0.1,0.1,0.2,0.1
			c0.1,0,0.1,0.1,0.1,0.2c0,0.1,0,0.2-0.1,0.3c-0.1,0-0.1,0.1-0.2,0.1h-3.5c-0.1,0-0.2,0-0.2-0.1c-0.1,0-0.1-0.1-0.1-0.3
			c0-0.1,0-0.2,0.1-0.2c0.1,0,0.1-0.1,0.2-0.1c0.1,0,0.1-0.1,0.2-0.2c0.1-0.1,0.1-0.2,0.1-0.3v-7.7h3V34.8z M66.5,27.2h1.6V30
			c0,0.1,0,0.2-0.1,0.2c-0.1,0-0.2,0.1-0.3,0.1c-0.1,0-0.2,0-0.3-0.1c-0.1,0-0.1-0.1-0.1-0.2v-0.5c0-0.2,0-0.5-0.1-0.6
			c-0.1-0.2-0.1-0.3-0.2-0.4c-0.1-0.1-0.2-0.2-0.3-0.3c-0.1-0.1-0.2-0.1-0.3-0.2V27.2z"/>
	</g>
	<g>
		<path class="st0" d="M61.7,73.8c-0.3-0.1-0.5-0.3-0.6-0.5c-0.2-0.2-0.3-0.4-0.4-0.7c-0.1-0.2-0.1-0.5-0.1-0.7
			c0-0.4,0.1-0.8,0.3-1.1c0.2-0.3,0.5-0.5,0.8-0.7c0.3-0.2,0.6-0.3,0.9-0.3c0.3-0.1,0.6-0.1,0.8-0.1h0.9v0.6c-0.2,0-0.3,0.1-0.4,0.2
			c-0.1,0.1-0.2,0.3-0.2,0.4v2.2c0,0.2,0.1,0.3,0.2,0.4c0.1,0.1,0.3,0.2,0.4,0.2v0.7c-0.2,0-0.3,0.1-0.4,0.2
			c-0.1,0.1-0.2,0.3-0.2,0.4v2.2c0,0.2,0.1,0.3,0.2,0.4c0.1,0.1,0.3,0.2,0.4,0.2v0.6h-1.2c-0.2,0-0.5,0-0.7-0.1
			c-0.3-0.1-0.5-0.2-0.8-0.3c-0.2-0.2-0.4-0.4-0.6-0.7c-0.2-0.3-0.2-0.7-0.2-1.1c0-0.3,0-0.5,0.1-0.8c0.1-0.2,0.2-0.5,0.3-0.7
			c0.1-0.2,0.3-0.4,0.6-0.5c0.3-0.1,0.6-0.2,0.9-0.2V74C62.3,74,62,73.9,61.7,73.8z M67.9,77.3c0,0.1,0,0.2,0.1,0.3
			c0.1,0.1,0.1,0.1,0.2,0.2c0.1,0,0.1,0.1,0.2,0.1c0.1,0,0.1,0.1,0.1,0.2c0,0.2,0,0.3-0.1,0.3c-0.1,0-0.1,0.1-0.2,0.1h-3.3v-8.9h3.3
			c0.1,0,0.1,0,0.2,0.1c0.1,0,0.1,0.1,0.1,0.3c0,0.1,0,0.2-0.1,0.2c-0.1,0-0.1,0.1-0.2,0.1c-0.1,0-0.1,0.1-0.2,0.2
			c-0.1,0.1-0.1,0.2-0.1,0.3V77.3z"/>
		<path class="st0" d="M54.3,71.3c-0.1,0.2-0.1,0.3-0.2,0.4c-0.1,0.1-0.1,0.3-0.2,0.4c-0.1,0.1-0.2,0.2-0.3,0.2c-0.1,0-0.1,0-0.2,0
			c-0.1,0-0.1,0-0.2,0v-2.7h2.7v0.6c-0.3,0-0.5,0.1-0.7,0.2c-0.2,0.1-0.4,0.2-0.6,0.4C54.5,71,54.4,71.1,54.3,71.3z M55.2,77.8
			c0.2,0.1,0.5,0.1,0.7,0.2v0.6h-2.7v-2.7c0,0,0.1,0,0.2,0c0.1,0,0.1,0,0.2,0c0.1,0,0.2,0.1,0.3,0.2c0.1,0.1,0.1,0.2,0.2,0.4
			c0.1,0.1,0.1,0.3,0.2,0.4c0.1,0.2,0.2,0.3,0.3,0.4C54.8,77.6,55,77.7,55.2,77.8z M55.9,74.4c-0.1,0-0.2,0-0.2,0
			c-0.1,0-0.2,0.1-0.3,0.1c-0.1,0.1-0.2,0.2-0.2,0.3s-0.1,0.3-0.2,0.4c0,0.1-0.1,0.3-0.2,0.4c-0.1,0.1-0.1,0.2-0.3,0.2
			c-0.1,0-0.2,0-0.2-0.1c0-0.1,0-0.2,0-0.3v-2.7c0-0.1,0-0.2,0-0.3c0-0.1,0.1-0.1,0.2-0.1c0.1,0,0.2,0.1,0.3,0.2
			c0.1,0.1,0.1,0.2,0.2,0.4c0,0.1,0.1,0.3,0.1,0.4c0,0.1,0.1,0.2,0.2,0.3c0.1,0.1,0.2,0.1,0.3,0.1c0.1,0,0.2,0,0.2,0V74.4z
			 M59.5,77.3c0,0.1,0,0.2,0.1,0.3c0.1,0.1,0.1,0.1,0.2,0.2c0.1,0,0.1,0.1,0.2,0.1c0.1,0,0.1,0.1,0.1,0.2c0,0.2,0,0.3-0.1,0.3
			c-0.1,0-0.1,0.1-0.2,0.1h-3.3v-8.9h3.3c0.1,0,0.1,0,0.2,0.1c0.1,0,0.1,0.1,0.1,0.3c0,0.1,0,0.2-0.1,0.2c-0.1,0-0.1,0.1-0.2,0.1
			c-0.1,0-0.1,0.1-0.2,0.2c-0.1,0.1-0.1,0.2-0.1,0.3V77.3z"/>
		<path class="st0" d="M52.3,77.1c-0.2,0.4-0.5,0.7-0.8,0.9c-0.3,0.2-0.6,0.4-0.9,0.5c-0.3,0.1-0.6,0.2-0.8,0.2h-0.2v-0.8
			c0,0,0.1,0,0.2-0.1c0.1,0,0.2-0.1,0.4-0.2c0.1-0.1,0.2-0.2,0.3-0.3c0.1-0.1,0.1-0.3,0.1-0.5c0-0.2,0-0.4-0.1-0.5
			c-0.1-0.1-0.2-0.3-0.4-0.4c-0.2-0.1-0.4-0.2-0.7-0.3c-0.3-0.1-0.6-0.2-0.9-0.3c-0.3-0.1-0.6-0.2-0.9-0.4c-0.3-0.1-0.6-0.3-0.8-0.5
			c-0.2-0.2-0.4-0.5-0.6-0.8c-0.1-0.3-0.2-0.6-0.2-1c0-0.4,0.1-0.8,0.2-1.1c0.1-0.3,0.3-0.6,0.4-0.8c0.2-0.2,0.4-0.4,0.6-0.6
			c0.2-0.2,0.4-0.3,0.6-0.4c0.2-0.1,0.4-0.2,0.6-0.2c0.2,0,0.3-0.1,0.5-0.1H49v0.8c0,0-0.1,0-0.2,0c-0.1,0-0.2,0.1-0.4,0.2
			c-0.1,0.1-0.2,0.2-0.3,0.3c-0.1,0.1-0.1,0.3-0.1,0.5c0,0.2,0,0.4,0.1,0.5c0.1,0.1,0.2,0.3,0.4,0.4s0.4,0.2,0.7,0.3
			c0.3,0.1,0.6,0.2,0.9,0.3c0.4,0.2,0.8,0.3,1.1,0.5c0.3,0.2,0.6,0.4,0.8,0.6c0.2,0.2,0.4,0.5,0.5,0.8c0.1,0.3,0.2,0.7,0.2,1.1
			C52.6,76.3,52.5,76.7,52.3,77.1z M47.4,77c0.2,0.2,0.4,0.4,0.6,0.5c0.2,0.1,0.4,0.2,0.6,0.3c0.2,0,0.3,0.1,0.3,0.1v0.8
			c-0.1,0-0.3,0-0.6-0.1c-0.3,0-0.6-0.2-0.9-0.4c0,0-0.1,0-0.1,0c-0.1,0-0.1,0-0.2,0.1c-0.1,0.1-0.1,0.1-0.2,0.2
			c-0.1,0.1-0.1,0.1-0.2,0.2c-0.1,0.1-0.1,0.1-0.2,0.1c-0.1,0-0.1,0-0.2-0.1c-0.1-0.1-0.1-0.1-0.1-0.2v-2.3c0-0.1,0-0.2,0.1-0.2
			c0.1-0.1,0.2-0.1,0.2-0.1c0.1,0,0.2,0,0.2,0.1c0,0.1,0.1,0.2,0.1,0.3C47,76.5,47.2,76.8,47.4,77z M51.3,71.2
			c-0.2-0.3-0.5-0.5-0.7-0.6c-0.2-0.1-0.5-0.2-0.7-0.3c-0.2,0-0.3,0-0.4,0v-0.8h0.2c0.1,0,0.2,0,0.3,0c0.1,0,0.3,0,0.4,0.1
			c0.1,0,0.3,0.1,0.4,0.2c0.1,0.1,0.3,0.1,0.4,0.2c0,0,0.1,0,0.1,0c0.1,0,0.1,0,0.2-0.1c0.1-0.1,0.1-0.1,0.2-0.2
			c0.1-0.1,0.1-0.1,0.2-0.2c0.1-0.1,0.1-0.1,0.2-0.1c0.1,0,0.1,0,0.2,0.1c0.1,0.1,0.1,0.1,0.1,0.2v2.7c0,0.1,0,0.2-0.1,0.2
			c-0.1,0.1-0.2,0.1-0.2,0.1c-0.1,0-0.2,0-0.2-0.1c-0.1-0.1-0.1-0.2-0.1-0.3C51.7,71.9,51.6,71.5,51.3,71.2z"/>
		<path class="st0" d="M39.6,78.5h-1.6v-2.8c0-0.1,0-0.2,0.1-0.2c0.1,0,0.2-0.1,0.3-0.1c0.1,0,0.2,0,0.3,0.1c0.1,0,0.1,0.1,0.1,0.2
			v0.5c0,0.2,0,0.5,0.1,0.6c0.1,0.2,0.1,0.3,0.2,0.4c0.1,0.1,0.2,0.2,0.3,0.3c0.1,0.1,0.2,0.1,0.3,0.2V78.5z M40.2,70.8
			c0-0.1,0-0.3-0.1-0.3c-0.1-0.1-0.1-0.1-0.2-0.2c-0.1,0-0.1-0.1-0.2-0.1c-0.1,0-0.1-0.1-0.1-0.2c0-0.1,0-0.2,0.1-0.3
			c0.1,0,0.1-0.1,0.2-0.1h3.5c0.1,0,0.2,0,0.2,0.1c0.1,0,0.1,0.1,0.1,0.3c0,0.1,0,0.2-0.1,0.2c-0.1,0-0.1,0.1-0.2,0.1
			c-0.1,0-0.1,0.1-0.2,0.2c-0.1,0.1-0.1,0.2-0.1,0.3v7.7h-3V70.8z M44,77.5c0.1-0.1,0.2-0.2,0.3-0.3c0.1-0.1,0.2-0.3,0.2-0.4
			c0.1-0.2,0.1-0.4,0.1-0.6v-0.5c0-0.1,0-0.2,0.1-0.2c0.1,0,0.2-0.1,0.3-0.1c0.1,0,0.2,0,0.3,0.1c0.1,0,0.1,0.1,0.1,0.2v2.8h-1.6
			v-0.8C43.8,77.7,43.9,77.6,44,77.5z"/>
	</g>
</g>
</svg>
