<?xml version="1.0" encoding="utf-8"?>
<!-- Generator: Adobe Illustrator 22.1.0, SVG Export Plug-In . SVG Version: 6.00 Build 0)  -->
<svg version="1.1" id="Layer_1" xmlns="http://www.w3.org/2000/svg" xmlns:xlink="http://www.w3.org/1999/xlink" x="0px" y="0px"
	 viewBox="0 0 146.2 146.2" style="enable-background:new 0 0 146.2 146.2;" xml:space="preserve">
<style type="text/css">
	.st0{fill:#99FFFF;}
	.st1{font-family:'Arial-Black';}
	.st2{font-size:10.9782px;}
	.st3{font-size:11.6306px;}
</style>
<circle class="st0" cx="73.1" cy="73.1" r="73.1"/>
<g>
	<g>
		<path d="M65.9,14.1c1,0.2,1.9,0.4,2.9,0.7c8.1,2.3,13.7,10.2,13.1,18.5c-0.6,8.6-7,15.7-15.4,16.9c-10.1,1.5-19.4-5.6-20.7-15.8
			c0-0.2-0.1-0.4-0.2-0.7c0-1,0-1.9,0-2.9c0.1-0.3,0.2-0.5,0.2-0.8c1-7.5,6.1-13.4,13.3-15.3c0.8-0.2,1.7-0.4,2.5-0.6
			C63.1,14.1,64.5,14.1,65.9,14.1z M78.9,33.1c0.1-8.5-6.8-15.4-15.3-15.6C55.1,17.4,48,24.4,48,32.8c-0.1,8.6,6.8,15.6,15.4,15.7
			C71.9,48.5,78.8,41.7,78.9,33.1z"/>
		<path d="M70,84.8c3.5-0.2,5.7-2.3,7.2-5.1c1.6-3,2.2-6.2,2.6-9.5c0-0.3,0.1-0.5,0.1-0.9c5.4-0.4,10.3,0.6,14.5,4.3
			c2,1.8,3.1,4,3.5,6.6c0.3,2.3-0.2,4.4-1,6.6c-1.1,3-2.9,5.6-4.9,8.1c-0.5,0.6-0.6,1.1-0.5,1.8c0.9,6.9,1.3,13.8,1,20.8
			c-0.2,5.3-0.9,10.5-2.6,15.5c-0.1,0.4-0.3,0.8-0.5,1.2c-1,2.2-3.4,3.1-5.6,2.3c-2.1-0.8-3.4-3.2-2.7-5.4
			c2.8-8.1,2.8-16.4,2.3-24.7c-0.1-1.6-0.2-3.2-0.4-4.9c-1.4-0.2-2.6-0.3-3.9-0.5c-0.3,2-0.5,4-0.8,6c-1.6,9.9-5.1,19.1-11.3,27.1
			c-1,1.2-2.1,2.1-3.7,2.1c-1.8,0-3.2-0.7-4.1-2.3c-0.9-1.6-0.8-3.3,0.3-4.8c1.4-2,2.9-4,4-6.1c3.3-5.9,5.1-12.2,6.1-18.9
			c0.8-6.2,0.9-12.3,0.3-18.5C70,85.3,70,85.1,70,84.8z M87.9,76.1c0.8,3.7,1.5,7.4,2.3,11.3c1-1.5,1.6-2.9,1.9-4.5
			C92.7,79.8,91.1,77.1,87.9,76.1z"/>
		<path d="M85.4,34.1c0-10,8.3-18.1,18.3-18.1c10,0.1,18.1,8.3,18,18.3c-0.1,10-8.3,18.1-18.3,18.1C93.4,52.3,85.3,44.1,85.4,34.1z
			 M87.4,34.8c-0.1,8.5,6.8,15.5,15.3,15.6c8.5,0.1,15.5-6.8,15.6-15.3c0.1-8.5-6.8-15.6-15.2-15.7C94.5,19.3,87.5,26.1,87.4,34.8z"
			/>
		<path d="M72.3,70.6c-0.2,2.7-1.2,5.1-2.3,7.5c1-0.3,1.3-1.1,1.7-1.8c1-2.2,1.4-4.6,1.7-6.9c0.1-0.9,0.2-1.9,0.2-2.9
			c0.1-1.7,1.3-2.7,2.9-2.7c1.6,0,2.8,1.2,2.8,2.8c-0.2,3.9-0.6,7.8-2.1,11.5c-0.7,1.6-1.6,3.1-2.9,4.2c-2.5,2.2-5.9,2.2-8.1,0
			c-2.3-2.2-2.5-5.7-0.5-8.2C67.3,72,69.7,71.1,72.3,70.6z"/>
		<path d="M79.9,65.2c-0.5-0.5-0.9-1.1-1.4-1.6c0-0.3,0.1-0.7,0.1-1.2c-3.1-0.1-5.4,1.2-7.4,3.4c0.4,0.9,0.9,0.6,1.5-0.1
			c-0.1,1.2-0.1,2.2-0.2,3.1c-2.8,0.2-6-2.2-7-5.4c-1.1-3.5,0.3-7.4,3.5-9.3c3.2-1.9,7.3-1.4,9.9,1.3C81.6,58.1,82,62.1,79.9,65.2z"
			/>
		<path d="M56.3,55.5c-1.4,0-2.5-1-2.6-2.4c0-1.4,1.1-2.6,2.5-2.6c1.3,0,2.5,1.2,2.5,2.5C58.8,54.4,57.7,55.5,56.3,55.5z M56.3,54.8
			c0.8,0,1.4-0.7,1.4-1.5c0-0.8-0.7-1.4-1.5-1.4c-0.8,0-1.4,0.7-1.4,1.5C54.9,54.2,55.5,54.8,56.3,54.8z"/>
		<path d="M89.3,53.8c0-1.4,1-2.5,2.4-2.6c1.4,0,2.5,1.1,2.6,2.5c0,1.4-1.1,2.5-2.5,2.6C90.5,56.3,89.4,55.2,89.3,53.8z M91.9,52.3
			c-0.8,0-1.5,0.6-1.5,1.4c0,0.8,0.6,1.5,1.4,1.5c0.8,0,1.5-0.6,1.5-1.4C93.3,53,92.7,52.3,91.9,52.3z"/>
		<path d="M90.1,58.5c0,0.9-0.9,1.7-1.8,1.7c-0.9,0-1.7-0.8-1.8-1.8c0-1,0.8-1.8,1.8-1.8C89.3,56.8,90.1,57.6,90.1,58.5z M88,59.5
			c0.1,0,0.3,0,0.4,0c0.3-0.3,0.7-0.6,0.7-1c0.1-0.5-0.3-1-0.8-0.9c-0.3,0.1-0.8,0.5-0.8,0.7C87.4,58.7,87.8,59.1,88,59.5z"/>
		<path d="M58.3,56.4c1,0,1.8,0.7,1.8,1.7c0,1-0.7,1.8-1.7,1.8c-1,0-1.8-0.7-1.8-1.7C56.5,57.2,57.3,56.4,58.3,56.4z M58.4,59.5
			c0.4-0.6,0.8-1,0.7-1.4c0-0.3-0.5-0.7-0.8-0.7c-0.6-0.1-0.9,0.4-0.8,0.9C57.6,58.6,58,58.9,58.4,59.5z"/>
		<path d="M63.5,59.7c0,0.7-0.6,1.2-1.3,1.1c-0.7,0-1.2-0.6-1.1-1.3c0.1-0.7,0.5-1,1.2-1.1C63,58.5,63.6,59.1,63.5,59.7z"/>
		<path d="M83.8,58.7c0.7,0,1.2,0.6,1.1,1.3c0,0.7-0.5,1.1-1.1,1.1c-0.7,0-1.2-0.5-1.2-1.2C82.5,59.3,83.1,58.7,83.8,58.7z"/>
	</g>
</g>
<text transform="matrix(0.4969 0 0 1 49.0946 36.244)" class="st1 st2">REPLACE</text>
<text transform="matrix(0.4969 0 0 1 94.3527 37.2566)" class="st1 st3">KEEP</text>
</svg>
