<?xml version="1.0" encoding="utf-8"?>
<!-- Generator: Adobe Illustrator 22.1.0, SVG Export Plug-In . SVG Version: 6.00 Build 0)  -->
<svg version="1.1" id="crop" xmlns="http://www.w3.org/2000/svg" xmlns:xlink="http://www.w3.org/1999/xlink" x="0px" y="0px"
	 viewBox="0 0 1316 210.7" style="enable-background:new 0 0 1316 210.7;" xml:space="preserve">
<style type="text/css">
	.st0{fill:#EFDD6F;}
	.st1{fill:url(#middle_middle_back_2_);}
	.st2{fill:url(#middle_right_2_);}
	.st3{fill:url(#middle_right_3_);}
	.st4{fill:url(#front_right_1_);}
	.st5{fill:url(#middle_middle_1_);}
	.st6{fill:url(#middle_left_3_);}
	.st7{fill:url(#middle_left_4_);}
	.st8{fill:url(#SVGID_1_);}
</style>
<g id="Layer_1">
	<path id="back_rightv" class="st0" d="M1332.5,52.5c-9.5-6-45.5-26.8-74.5-26.8s-85,11.8-107.5,24.2c-30,6.5-122.7-8.5-154,19.5
		c0,27.8,0,142.7,0,142.7h336V52.5z"/>
	<path id="back_left" class="st0" d="M85.5,15c20.5-3,59-10,73.5-10s81,21.5,108,21.5s52.5-10,59-13c7,5,72,41,89,41
		c0,16.5,0,157.6,0,157.6H85.5V15z"/>
	<linearGradient id="middle_middle_back_2_" gradientUnits="userSpaceOnUse" x1="582.6503" y1="121.3887" x2="774" y2="121.3887">
		<stop  offset="0" style="stop-color:#E27401"/>
		<stop  offset="9.945893e-02" style="stop-color:#D36F01"/>
		<stop  offset="0.3509" style="stop-color:#B16502"/>
		<stop  offset="0.5911" style="stop-color:#995E03"/>
		<stop  offset="0.8133" style="stop-color:#8B5A03"/>
		<stop  offset="1" style="stop-color:#865803"/>
	</linearGradient>
	<path id="middle_middle_back_1_" class="st1" d="M774,77c-6-2.2-55.8-27.3-80-46.8c-19.1,4.6-80,24.5-111.3,26.7
		c0,4.8,2.8,155.8,2.8,155.8H774V77z"/>
	<linearGradient id="middle_right_2_" gradientUnits="userSpaceOnUse" x1="1027.6373" y1="40.5167" x2="1326.09" y2="203.3848">
		<stop  offset="0" style="stop-color:#E27401"/>
		<stop  offset="0.3516" style="stop-color:#E07301"/>
		<stop  offset="0.5155" style="stop-color:#D87101"/>
		<stop  offset="0.6406" style="stop-color:#CC6D01"/>
		<stop  offset="0.746" style="stop-color:#B96802"/>
		<stop  offset="0.8379" style="stop-color:#A26002"/>
		<stop  offset="0.9187" style="stop-color:#865803"/>
	</linearGradient>
	<path id="middle_right_1_" class="st2" d="M1335.7,20.5c-6-2.7-27-1.3-47.3,6c-41,14.7-74,64.7-168.7,64.7
		c-71,0-111.3-18-120.7-20.7c0,16.7,0,142.5,0,142.5h340L1335.7,20.5z"/>
	<linearGradient id="middle_right_3_" gradientUnits="userSpaceOnUse" x1="858.0975" y1="113.964" x2="1363.5" y2="113.964">
		<stop  offset="0" style="stop-color:#7B5503"/>
		<stop  offset="2.680230e-02" style="stop-color:#865803"/>
		<stop  offset="0.1124" style="stop-color:#A26102"/>
		<stop  offset="0.2086" style="stop-color:#BA6802"/>
		<stop  offset="0.318" style="stop-color:#CC6D01"/>
		<stop  offset="0.4485" style="stop-color:#D97101"/>
		<stop  offset="0.6209" style="stop-color:#E07301"/>
		<stop  offset="1" style="stop-color:#E27401"/>
	</linearGradient>
	<path id="middle_right" class="st3" d="M1363.5,197.5c-7.2-25-100.5-68.5-174-82.5C1068.6,91.9,1021,77.6,967,49.8
		c-40.8-21-59.2-24.3-88-13.1c-29.8,11.5-19,65.8-19,65.8l99,36.5C959,139,1357.5,196.5,1363.5,197.5z"/>
	<linearGradient id="front_right_1_" gradientUnits="userSpaceOnUse" x1="670.9733" y1="122.4499" x2="1348.4733" y2="122.4499">
		<stop  offset="0" style="stop-color:#E27401"/>
		<stop  offset="0.1891" style="stop-color:#DE7301"/>
		<stop  offset="0.3754" style="stop-color:#D26F01"/>
		<stop  offset="0.5605" style="stop-color:#BE6902"/>
		<stop  offset="0.745" style="stop-color:#A36102"/>
		<stop  offset="0.9275" style="stop-color:#7F5603"/>
		<stop  offset="0.9473" style="stop-color:#7B5503"/>
	</linearGradient>
	<path id="front_right" class="st4" d="M1351.5,213l3-26.5c0,0-10.4-16.8-66-30.5c-30.5-7.5-301.4-46.2-335.2-50
		c-70.5-8-84.2-54.5-58.6-74.1C878.2,35.2,711.5,94.5,677,97.5c0,21.5,0,115.5,0,115.5H1351.5z"/>
	<linearGradient id="middle_middle_1_" gradientUnits="userSpaceOnUse" x1="261.3771" y1="120.5714" x2="901.6263" y2="120.5714">
		<stop  offset="0" style="stop-color:#7B5503"/>
		<stop  offset="8.094752e-02" style="stop-color:#8E5B03"/>
		<stop  offset="0.2359" style="stop-color:#AC6402"/>
		<stop  offset="0.3993" style="stop-color:#C46B02"/>
		<stop  offset="0.5725" style="stop-color:#D57001"/>
		<stop  offset="0.7623" style="stop-color:#DF7301"/>
		<stop  offset="1" style="stop-color:#E27401"/>
	</linearGradient>
	<path id="middle_middle" class="st5" d="M1032,212.2c-60.1-52.9-228.2-102.2-285.6-111c-43.2-6.7-107.8-14.9-132.7-17.3
		c-13.3-1.3-38-15.9-16.7-17.3c22.2-1.5,28.8-5.8,31.7-12c2.1-4.5,12.3-9.3,16.3-10.7c-13.3,3.1-43.7,13.7-86.8,13.7
		c-75.9,0-132.3-19.3-155.9-28.7c-8.6,14.7-14.8,39.2-7.1,53.4s79.8,57.2,152,64.8s174.2,6.5,230.8,24.2S1034.5,214.4,1032,212.2z"
		/>
	<linearGradient id="middle_left_3_" gradientUnits="userSpaceOnUse" x1="291" y1="120.9167" x2="1159" y2="120.9167">
		<stop  offset="0" style="stop-color:#E27401"/>
		<stop  offset="0.1995" style="stop-color:#DE7301"/>
		<stop  offset="0.396" style="stop-color:#D26F01"/>
		<stop  offset="0.5913" style="stop-color:#BE6902"/>
		<stop  offset="0.7859" style="stop-color:#A36102"/>
		<stop  offset="0.9784" style="stop-color:#7F5603"/>
		<stop  offset="0.9992" style="stop-color:#7B5503"/>
	</linearGradient>
	<path id="middle_left_2_" class="st6" d="M1062.7,213c-19.7-14.8-206-89.5-321.7-89.5c-71.7,0-95.9,12.9-156.3,9.7
		c-56.7-3-198.3-31.3-182.3-104.3c-8.3,11-56.7,36.3-108,36.3s-80.7-12.3-99.7-20.3c0,15.7,0,168.2,0,168.2H1062.7L1062.7,213z"/>
	<linearGradient id="middle_left_4_" gradientUnits="userSpaceOnUse" x1="-31" y1="112.2259" x2="844" y2="112.2259">
		<stop  offset="0" style="stop-color:#E27401"/>
		<stop  offset="0.1929" style="stop-color:#D47001"/>
		<stop  offset="0.5569" style="stop-color:#AF6502"/>
		<stop  offset="0.9993" style="stop-color:#7B5503"/>
	</linearGradient>
	<path id="middle_left_1_" class="st7" d="M844,212.6C709.3,185,440.3,133.7,345,103C284.9,83.6,142.5,11.8,54.5,11.8
		c-56.8,0-73,14.9-85.5,23.8c0,14.2,0,167.6,0,167.6L844,212.6z"/>
	<linearGradient id="SVGID_1_" gradientUnits="userSpaceOnUse" x1="-17.013" y1="322.6758" x2="413.9716" y2="121.0523">
		<stop  offset="0" style="stop-color:#512D00"/>
		<stop  offset="4.806193e-02" style="stop-color:#643601"/>
		<stop  offset="0.1421" style="stop-color:#824502"/>
		<stop  offset="0.2411" style="stop-color:#9A5004"/>
		<stop  offset="0.3459" style="stop-color:#AB5904"/>
		<stop  offset="0.4605" style="stop-color:#B55D05"/>
		<stop  offset="0.6031" style="stop-color:#B85F05"/>
	</linearGradient>
	<path class="st8" d="M250.2,99.9C195.6,70.5,150.3,47.2,83,67.2C32.3,84,36.5,124.3,6,127.5c-24.8,2.6-35-11.9-37-13.3
		c0,11.3,0,98.8,0,98.8h708C484.2,172.6,319,136.8,250.2,99.9z"/>
</g>
</svg>
