<?xml version="1.0" encoding="utf-8"?>
<!-- Generator: Adobe Illustrator 22.1.0, SVG Export Plug-In . SVG Version: 6.00 Build 0)  -->
<svg version="1.1" id="Layer_1" xmlns="http://www.w3.org/2000/svg" xmlns:xlink="http://www.w3.org/1999/xlink" x="0px" y="0px"
	 viewBox="0 0 691.8 907.8" style="enable-background:new 0 0 691.8 907.8;" xml:space="preserve">
<style type="text/css">
	.st0{fill:url(#SVGID_1_);}
	.st1{fill:url(#mountain_1_);}
	.st2{fill:#663910;}
	.st3{fill:#754315;}
	.st4{fill:#9B4C29;}
	.st5{fill:#A55228;}
	.st6{fill:#E49135;}
	.st7{fill:#D6893C;}
	.st8{fill:#B25826;}
	.st9{fill:#C46425;}
	.st10{fill:#4E1E0D;}
</style>
<linearGradient id="SVGID_1_" gradientUnits="userSpaceOnUse" x1="356.9586" y1="506.1057" x2="356.9586" y2="203.9463">
	<stop  offset="0.5213" style="stop-color:#FFFFC6"/>
	<stop  offset="0.6166" style="stop-color:#FFFEC1"/>
	<stop  offset="0.7366" style="stop-color:#FEFCB1"/>
	<stop  offset="0.8692" style="stop-color:#FDF797"/>
	<stop  offset="1" style="stop-color:#FBF277"/>
</linearGradient>
<circle class="st0" cx="357" cy="355" r="151.1"/>
<linearGradient id="mountain_1_" gradientUnits="userSpaceOnUse" x1="292.5383" y1="545.7932" x2="292.5383" y2="22">
	<stop  offset="8.439428e-03" style="stop-color:#682115"/>
	<stop  offset="1" style="stop-color:#4E1E0D"/>
</linearGradient>
<path id="mountain" class="st1" d="M-129.6,461.5c1.6-5.5,13.9-16.1,24.6-16.6c10.7-0.5,31.1,0.5,34.8-3.5c3.8-4,22,0,34.8,0
	s18.2,0,22.5,0s8.4-3.5,8-9.6c-0.9-16.7,0.5-44.3,55.7-47.3c0-22.1,0-140.3,0-140.3s23.4,1.8,32.7,0c10-2,10.2,6.5,10.7,14.1
	s2.1,36,2.1,44.3s1.6,25.1,9.9,26.2s15,6.5,15,22.4c0,15.8-0.8,59.5,10.7,60.4c16.9,1.3,24.6,7.3,25.7,20.1s6.4,18.6,14.5,19.1
	c8,0.5,15.3,1,15.8-4.8c0.5-5.8,6.2-12.3,18.5-12.6s28.1,0,28.1,0s8.6-15.1,49.3-15.3s46.3-0.8,51.2-5.3s21.7-39.6,55.5-36.2
	c28.5,2.8,40.2,8.4,47.4-3.5c9.7-16,8.6-35.7,8.6-53.1c0.2-16.3,3.5-74.2,3.8-78.7c0.3-4.5,3.8-16.3,16.9-16.6
	c0-7,6.2-177.6,6.4-183.1s1.6-14.3,5.6-17.1c4-2.8,10.7-3.5,15,0s14.7,12.8,24.9,15.1s10.7,10.6,10.7,17.9s0,39.2,0,42.3
	c3.2,2.8,9.4,8.3,13.7,8.6c4.3,0.3,9.6,4,9.6,17.4c0,13.3-2.4,126.5-1.9,129.3c0.5,2.8,1.6,7,5.1,3c3.5-4,7-9.3,7-9.3
	s4.6-70.9,5.1-73.4s1.3-4.8,6.7-4.3c5.4,0.5,11,2.5,14.2,2.5c2.4,1,3.5,4.5,2.9,12.3s0.5,65.9,0.1,68.7c0.1,3.8,0.4,5.8,4.4,6.3
	s18.8-0.3,19,15.8s-5.6,83,41.5,94.3c21.2,4.3,44.2,8,57.3,13.8c0,13.1,0,161.3,0,161.3h-844.4V461.5z"/>
<path id="_x37_th_right" class="st2" d="M375.6,526.6c1-6.8,0.7-22.8,19.3-30.4c18.6-7.6,68-22,75-31.5c7-9.5,16.1-26.6,40.3-26.6
	c24.2,0,35,8,43.8,14.8c8.8,6.8,36.8,26.2,53.9,21.3s20.3-4.2,26.6-5.7c6.3-1.5,30.1-15.6,37.1-19.4c7-3.8,18.6-8.7,35.4,2.3
	c16.8,11,28.7,11.4,28.7,11.4V620H375.6V526.6z"/>
<path id="_x36_th_left" class="st3" d="M-43.5,452.2c9.8-1.2,24.5-5.3,41.4,10s28.3,18.2,39.8,19.3c11.4,1.2,25.9,4.7,42.6,13.5
	s40.7-4.7,48.9-6.4c8.2-1.8,30.5-6.4,45.2,9.4s39.2-8.1,47.4-8.8c22.3-2.1,34,6.4,45.7,3.2c6.9,5.3,12.3,11.4,26.1,12.3
	s22.1,1.5,34.3,15.2c12.3,13.8,60.2,28.7,67.5,31.1c7.4,2.3,47.6,21.9,52.6,46.9c0,22.6-9.3,32.6-9.3,32.6H-43.5V452.2z"/>
<path id="_x35_th" class="st4" d="M-171.1,520.8c19,1,81.4,6.7,102.7,17.3s105.9,13.5,126.4,14.4c20.5,1,86.9-1,189.7,38.5
	c102.7,39.5,242.6,10.6,271.8-4.8c29.2-15.4,153.7-77,236.3-59.7c0,50.1,0,174.2,0,174.2h-927V520.8z"/>
<path id="_x34_th" class="st5" d="M-237,632.3c17.2-1.8,286.1-36.1,427.9,8.1s346.6,47.8,365.6,47.8s260.4,0,260.4,0v84.9H-237
	V632.3z"/>
<path id="cactus_2nd_left" class="st6" d="M147.7,741.5c0-4.3,0-39.9,0-43.1c-2.2,0-14.2-2.9-14.2-15.8c0-12.9,0-62.5,0-64.8
	c0-2.3,0.5-5.9,2.9-5.9c2.3,0,4.2,3.6,4.2,6.3s0,62.1,0,64.8c0,2.7,3,7.4,6.4,7.4c0-4.1,0-49.6,0-51.9c0-2.3,0.4-6.1,2.9-6.1
	s4.1,2.9,4.1,5.7c0,2.9,0,70.9,0,72.6c0,1.6,1.4,3.2,3.1,3.2c1.6,0,4-1.3,4-6.5c0-5.2,0-110.5,0-113.3c0-2.9-0.2-6.3,2.3-6.3
	s4.7,1.8,4.7,5.9s0,113.3,0,116s0,12.9-12.4,12.9c0,10.6,0,18.9,0,18.9H147.7z"/>
<path id="cactus_left" class="st7" d="M53.2,632.2c0,5.9,0,77.2,0,79.9s-0.7,9.7,9.3,9.7c0,2.9,0,13.1,0,13.1h5.6c0,0,0-26.9,0-29.6
	c3.2,0,9.7-1.8,9.7-10.8c0-9,0-44,0-46.5c0-2.5-5.6-4.1-5.4,0.7s0,43.1,0,44.7c0,1.6-0.5,5-3.6,5c0-4.7,0-34.8,0-36.6
	c0-3.6-5.6-4.3-5.6-0.5c0,3.8,0,49.2,0,51.7c0,2.5-4.5,2.9-4.5-1.4c0-4.3,0-76.3,0-79.4S53.2,627.6,53.2,632.2z"/>
<path id="_x33_rd" class="st8" d="M-237,773.2c109.7-25,197.3-34.4,261.8-39.9c78.1-6.8,147.6,3.6,179.2,2.7
	c107.8-3.1,277.1-5.1,297.9-4.4c87.1,3,121.4,11.2,180.1,25.1c60.1,14.3,126.4,12.6,134.9,12.6c0,11.8,0,99.3,0,99.3H-237V773.2z"/>
<path id="_x32_nda" class="st9" d="M-237,787c13.1-1.4,264.5-37.5,405.8-2.3c141.3,35.2,234.7,56.4,385,56.4s258.6,0,258.6,0v63.6
	H-237V787z"/>
<path id="front_cactus" class="st10" d="M-109,879.6c137.2-34.7,220.8-33.5,316-21.8s308.6,24.1,336.1,25.7c27.5,1.6,18.2,0,18.2,0
	l-10-5.8l25.3,6.5l-25.3-24.4l33.5,21.8l-11.2-23l20.1,22.6l-3.3-22.2l3.3,10.4c0,0,0-55.9,0-62.1c-5.2,0-22.3-7.8-22.3-33.1
	s0-95.8,0-100.4c0-6.3,0.4-12,5.1-12c4.8,0,6.1,5.4,6.1,12.4c0,10.9,0,94.2,0,100.8s2.2,19.5,11.2,19.5c0-9,0-82.9,0-88.4
	c0-5.5,0.9-9.6,4.7-9.6s6.1,3.4,6.1,9.3c0,5.8,0,113.7,0,118.7s1.9,8.6,4.8,8.6c3,0,6.3-5.5,6.3-12.8c0-7.4,0-186.5,0-190.8
	c0-4.3,1.5-9,5.6-9s5.5,3.5,5.5,9s0,195.1,0,202.1c0,7-7.1,16.7-17.1,16.7c0,10.9,0,31.5,0,31.5l7.4-26.9V880l19-45.9L625.7,880
	l19.7-23.7l-13,24.9l33.1-28l-24.9,31.1l18.6-6.9l-10,9.3h106.3v22.2H-109V879.6z"/>
</svg>
