<?xml version="1.0" encoding="utf-8"?>
<!-- Generator: Adobe Illustrator 22.1.0, SVG Export Plug-In . SVG Version: 6.00 Build 0)  -->
<svg version="1.1" id="Layer_1" xmlns="http://www.w3.org/2000/svg" xmlns:xlink="http://www.w3.org/1999/xlink" x="0px" y="0px"
	 viewBox="0 0 1915.5 1327.2" style="enable-background:new 0 0 1915.5 1327.2;" xml:space="preserve">
<style type="text/css">
	.st0{display:none;fill:url(#SVGID_1_);}
	.st1{fill:url(#SVGID_2_);}
	.st2{fill:url(#SVGID_3_);}
	.st3{fill:url(#SVGID_4_);}
	.st4{fill:url(#_x36_th_hill_1_);}
	.st5{fill:url(#shadow_4_);}
	.st6{fill:url(#shadowv_1_);}
	.st7{fill:url(#_x35_th_hill_1_);}
	.st8{fill:url(#shadow_5_);}
	.st9{fill:url(#_x34_th_hill_1_);}
	.st10{fill:url(#shadow_6_);}
	.st11{fill:url(#_x33_rd_hill_1_);}
	.st12{fill:url(#shdow_1_);}
	.st13{fill:url(#_x32_nd_hill_1_);}
	.st14{fill:url(#shadow_7_);}
	.st15{fill:url(#_x31_st_hill_1_);}
</style>
<linearGradient id="SVGID_1_" gradientUnits="userSpaceOnUse" x1="938.5914" y1="768.2546" x2="938.5914" y2="-157.4169">
	<stop  offset="0" style="stop-color:#FFF6E9"/>
	<stop  offset="0.3368" style="stop-color:#FFF5E7"/>
	<stop  offset="0.49" style="stop-color:#FEF2E0"/>
	<stop  offset="0.6061" style="stop-color:#FDECD3"/>
	<stop  offset="0.7034" style="stop-color:#FBE4C1"/>
	<stop  offset="0.7891" style="stop-color:#F9DAA9"/>
	<stop  offset="0.8666" style="stop-color:#F7CD8C"/>
	<stop  offset="0.9362" style="stop-color:#F3BE6A"/>
	<stop  offset="1" style="stop-color:#F0AD44"/>
</linearGradient>
<rect x="-145.9" y="-157.4" class="st0" width="2168.9" height="925.7"/>
<linearGradient id="SVGID_2_" gradientUnits="userSpaceOnUse" x1="226.1631" y1="689.1776" x2="226.1631" y2="241.7964">
	<stop  offset="0.1088" style="stop-color:#FFD99D"/>
	<stop  offset="1" style="stop-color:#A1715C"/>
</linearGradient>
<path class="st1" d="M-15.4,590.3c2.4-0.1,4.8-0.3,7.4-0.4c12.7-0.8,21.2-10.6,22.9-32.2c1.7-21.6,14-31.8,40.7-33.9
	c18.2-1.4,16.9-75,16.9-101.6c0-26.7,10.6-36,23.7-37.7s15.7-30.1,15.7-44c0-14,2.5-61.8,3.4-74.5c0.8-12.7,1.2-27,16.9-23.7
	c14.7,3.1,51.7,0,51.7,0s0,199.1,0,236.3c87.2,5.1,89.5,51.5,88.1,79.6c-0.5,10.2,5.9,16.1,12.7,16.1s15.2,0,35.6,0
	c20.3,0,49.1-6.8,55.1,0c5.9,6.8,38.1,5.1,55.1,5.9s36.4,18.6,39,28v81H-17.2C-17.2,655.9-14.7,623.5-15.4,590.3z"/>
<linearGradient id="SVGID_3_" gradientUnits="userSpaceOnUse" x1="1527.0988" y1="768.2546" x2="1527.0988" y2="9.094947e-13">
	<stop  offset="0.1746" style="stop-color:#FFD99D"/>
	<stop  offset="1" style="stop-color:#A1715C"/>
</linearGradient>
<path class="st2" d="M1925,571.2c-19.4-9.1-53.5-15-84.8-21.8c-69.8-17.8-61-123.3-61.5-148.6c-0.4-25.4-22.2-24.2-28.2-25
	c-6-0.7-6.4-3.9-6.5-9.9c0.6-4.4-1-95.9-0.2-108.2c0.7-12.3-0.7-17.8-4.4-19.4c-4.8,0-13.1-3.2-21-3.9c-7.9-0.7-9.1,2.8-9.9,6.7
	c-0.7,3.9-7.6,115.7-7.6,115.7s-5.1,8.3-10.3,14.6c-5.1,6.3-6.7-0.4-7.6-4.8c-0.7-4.4,2.8-182.7,2.8-203.7s-7.9-27-14.3-27.3
	c-6.3-0.4-15.5-9.1-20.2-13.4c0-4.8,0-55.1,0-66.6s-0.7-24.5-15.9-28.2c-15-3.5-30.5-18.2-36.8-23.8c-6.3-5.5-16.2-4.4-22.2,0
	c-6,4.4-7.9,18.2-8.3,27c-0.4,8.7-9.5,277.4-9.5,288.5c-19.4,0.4-24.5,19-25,26.1c-0.4,7.1-5.2,98.3-5.5,124
	c0,27.3,1.7,58.4-12.7,83.7c-10.7,18.7-28,10-70.1,5.5c-49.9-5.3-74.9,49.9-82.1,57.1c-7.1,7.1-15.5,7.9-75.7,8.3
	c-60.3,0.4-72.9,24.2-72.9,24.2s-23.4-0.4-41.6,0c-18.2,0.4-26.6,10.7-27.3,19.8c-0.7,7.3-7.6,8.2-16.5,7.9
	c-0.7,31.1,1.7,61.4,1.8,92.5H1925C1925,768.3,1925,591.8,1925,571.2z"/>
<linearGradient id="SVGID_4_" gradientUnits="userSpaceOnUse" x1="954.962" y1="659.202" x2="964.4985" y2="295.2488" gradientTransform="matrix(1 0 0 -1 0 1210.9091)">
	<stop  offset="0" style="stop-color:#D37746"/>
	<stop  offset="7.696498e-02" style="stop-color:#D98346"/>
	<stop  offset="0.3128" style="stop-color:#EAA144"/>
	<stop  offset="0.4448" style="stop-color:#F0AD44"/>
</linearGradient>
<path class="st3" d="M-12.1,682c61.5-18.8,263.2-85.3,400.3-85.3c246.9,0,562.7,85.3,1007.5,85.3c188.2,0,488.9-7.6,541.6,43.7
	c0,96.2,0,235.1,0,235.1H-12.1V682z"/>
<linearGradient id="_x36_th_hill_1_" gradientUnits="userSpaceOnUse" x1="-129.033" y1="358.5439" x2="293.3539" y2="358.5439" gradientTransform="matrix(1 0 0 -1 0 1210.9091)">
	<stop  offset="0" style="stop-color:#7B5503"/>
	<stop  offset="1" style="stop-color:#E27401"/>
</linearGradient>
<path id="_x36_th_hill" class="st4" d="M95.8,897.6c-8-3.7-121.3-45.4-112.5-81.2c9-36.8,376.2,48,421.9,62.1
	C333.7,883.8,95.8,897.6,95.8,897.6z"/>
<linearGradient id="shadow_4_" gradientUnits="userSpaceOnUse" x1="35.4011" y1="426.6829" x2="51.0954" y2="286.2319" gradientTransform="matrix(1 0 0 -1 0 1210.9091)">
	<stop  offset="0" style="stop-color:#7B5503"/>
	<stop  offset="1" style="stop-color:#E27D01"/>
</linearGradient>
<path id="shadow_3_" class="st5" d="M-17.2,882.6c0-8.1,0-47.7,0-71.2c0,35.4,64.7,67.5,133.2,88.2c-29.4,7.3-133.2,19.9-133.2,19.9
	S-17.2,882.6-17.2,882.6z"/>
<linearGradient id="shadowv_1_" gradientUnits="userSpaceOnUse" x1="837.2275" y1="414.9584" x2="1011.7413" y2="376.8732" gradientTransform="matrix(1 0 0 -1 0 1210.9091)">
	<stop  offset="0" style="stop-color:#7B5503"/>
	<stop  offset="0.1801" style="stop-color:#935C03"/>
	<stop  offset="0.5454" style="stop-color:#BE6902"/>
	<stop  offset="0.8312" style="stop-color:#D87101"/>
	<stop  offset="1" style="stop-color:#E27401"/>
</linearGradient>
<path id="shadowv" class="st6" d="M897,774.4c3.7-2.8,19.9-6.1,30.6-6.1c32.3,0,106.5,28.4,138.7,65.6
	c-36.3,6.1-176.9,27.8-180.4,21.7C882.4,849.5,843.6,813.8,897,774.4z"/>
<linearGradient id="_x35_th_hill_1_" gradientUnits="userSpaceOnUse" x1="686.7338" y1="434.4064" x2="717.2888" y2="336.187" gradientTransform="matrix(1 0 0 -1 0 1210.9091)">
	<stop  offset="0" style="stop-color:#7B5503"/>
	<stop  offset="0.1717" style="stop-color:#985E02"/>
	<stop  offset="0.3975" style="stop-color:#B86702"/>
	<stop  offset="0.6158" style="stop-color:#CF6E01"/>
	<stop  offset="0.8211" style="stop-color:#DD7301"/>
	<stop  offset="1" style="stop-color:#E27401"/>
</linearGradient>
<path id="_x35_th_hill" class="st7" d="M484.7,876.8c19.8-16.5,111.2-18.6,145.9-21.7c86.3-7.6,156.6-33,201.6-57.2
	c26.2-14.1,68.3-28.6,85.5-28.6c-35.8,6.1-50.1,49.3-33.1,83c-28.1,3.9-188.2,12.8-213.8,13.8C645.1,867.1,484.7,876.8,484.7,876.8z
	"/>
<linearGradient id="shadow_5_" gradientUnits="userSpaceOnUse" x1="1419.5897" y1="387.7633" x2="1879.1643" y2="294.2946" gradientTransform="matrix(1 0 0 -1 0 1210.9091)">
	<stop  offset="0" style="stop-color:#7B5503"/>
	<stop  offset="0.1033" style="stop-color:#885903"/>
	<stop  offset="0.512" style="stop-color:#B96802"/>
	<stop  offset="0.8239" style="stop-color:#D77101"/>
	<stop  offset="1" style="stop-color:#E27401"/>
</linearGradient>
<path id="shadow_2_" class="st8" d="M1456,796.1c0-7.8,37.5-9.7,62.2-8.1c69.7,4.5,287.4,37.9,406.8,80.4c0,31.7,0,125,0,125
	s-375.3-85.7-419.6-126.7C1461,825.7,1456.1,804.3,1456,796.1z"/>
<linearGradient id="_x34_th_hill_1_" gradientUnits="userSpaceOnUse" x1="938.1625" y1="-143.0995" x2="975.5315" y2="498.7464" gradientTransform="matrix(1 0 0 -1 0 1210.9091)">
	<stop  offset="1.742405e-02" style="stop-color:#E27401"/>
	<stop  offset="0.3736" style="stop-color:#DF7402"/>
	<stop  offset="0.5879" style="stop-color:#D77405"/>
	<stop  offset="0.7646" style="stop-color:#C9750A"/>
	<stop  offset="0.9201" style="stop-color:#B57611"/>
	<stop  offset="1" style="stop-color:#A77616"/>
</linearGradient>
<path id="_x34_th_hill" class="st9" d="M-12.1,919.5c76.5-34.1,209.6-42.2,275.4-42.2s457.3-17.6,560.1-24.3
	c133-8.7,477.3-65.7,662.9-65c-17.6,2-23.5,7.3-23.4,14.2c0.5,30.4,282.6,127.6,462.1,176.6c0,52.2,0,181.6,0,181.6
	s-381.5-128.8-522.3-110.4s-564.1,68.2-722.2,74.7s-499.8-9.7-585.5,13s-107.1,29.2-107.1,29.2L-12.1,919.5L-12.1,919.5z"/>
<linearGradient id="shadow_6_" gradientUnits="userSpaceOnUse" x1="408.9713" y1="225.5022" x2="623.4" y2="225.5022" gradientTransform="matrix(1 0 0 -1 0 1210.9091)">
	<stop  offset="0" style="stop-color:#7B5503"/>
	<stop  offset="0.233" style="stop-color:#9A5E02"/>
	<stop  offset="0.5676" style="stop-color:#C16A02"/>
	<stop  offset="0.835" style="stop-color:#D97101"/>
	<stop  offset="1" style="stop-color:#E27401"/>
</linearGradient>
<path id="shadow_1_" class="st10" d="M414.3,953.3c6.6-9.1,38.6-21.7,68.6-16.8c33.3,5.4,97.9,36.5,140.5,77.1
	c-30.3,4.9-194.1,21.1-199.9,21.9C420.7,1031.6,399.2,974.2,414.3,953.3z"/>
<linearGradient id="_x33_rd_hill_1_" gradientUnits="userSpaceOnUse" x1="211.2446" y1="283.1225" x2="222.9692" y2="129.4985" gradientTransform="matrix(1 0 0 -1 0 1210.9091)">
	<stop  offset="0" style="stop-color:#8F6503"/>
	<stop  offset="1" style="stop-color:#E88D01"/>
</linearGradient>
<path id="_x33_rd_hill" class="st11" d="M1.7,1055.4c8.7-6.5,29.1-23.4,78-27.8c74.5-6.6,181.3-10.9,243.8-40.4
	c38.4-18.1,94.4-47.1,123.7-49.3c-14,4.9-51.8,27.6-21.4,95c-49.5,4.6-173.9,13.5-195.9,12.7s-118.1,1.9-147.1,11.1
	c-29.1,9.2-94.9,26.3-94.9,26.3v-16L1.7,1055.4z"/>
<linearGradient id="shdow_1_" gradientUnits="userSpaceOnUse" x1="700.1674" y1="183.2989" x2="1146.1987" y2="183.2989" gradientTransform="matrix(1 0 0 -1 0 1210.9091)">
	<stop  offset="0" style="stop-color:#7B5503"/>
	<stop  offset="0.4444" style="stop-color:#B06502"/>
	<stop  offset="0.8074" style="stop-color:#D47001"/>
	<stop  offset="1" style="stop-color:#E27401"/>
</linearGradient>
<path id="shdow" class="st12" d="M788.7,983.1c8.8-1.2,45.7-4.5,56.2-5.1c82.1-4.9,239.7,21.5,345.2,52.4
	c-54.7,11.4-321.1,46.3-331.1,47.5c-9.7-3.7-87.7-27.6-87.7-60.5C771.3,988.9,788.7,983.1,788.7,983.1z"/>
<linearGradient id="_x32_nd_hill_1_" gradientUnits="userSpaceOnUse" x1="423.4499" y1="308.781" x2="423.4499" y2="107.2865" gradientTransform="matrix(1 0 0 -1 0 1210.9091)">
	<stop  offset="0" style="stop-color:#835503"/>
	<stop  offset="1" style="stop-color:#E77C01"/>
</linearGradient>
<path id="_x32_nd_hill" class="st13" d="M-12.1,1071.4c13-4.1,91-25.4,152.2-26.8c213.5-4.9,446.8-30.5,521-42.8
	c74.2-12.4,136.2-23.7,177.5-23.7c-27.5,4.9-62.7,11.9-62.7,36.8c0,24.9,55.1,52.2,83.1,60.6c-25.5,4.9-387.1,36.3-478.9,36.8
	s-355,18.4-392.2,43.8C-12.1,1120.3-12.1,1071.4-12.1,1071.4z"/>
<linearGradient id="shadow_7_" gradientUnits="userSpaceOnUse" x1="1323.4364" y1="344.3254" x2="1878.0082" y2="-70.6392" gradientTransform="matrix(1 0 0 -1 0 1210.9091)">
	<stop  offset="0" style="stop-color:#7B5503"/>
	<stop  offset="1" style="stop-color:#E27401"/>
</linearGradient>
<path id="shadow" class="st14" d="M1305.3,1013.7c37.6-8.5,111.9-17.6,230.5-6.5c117.9,11,361.1,48.7,389.2,58.5
	c0,29.2,0,192.2,0,192.2s-504.4-70.4-589.1-131C1251.3,1066.2,1254.5,1025.1,1305.3,1013.7z"/>
<linearGradient id="_x31_st_hill_1_" gradientUnits="userSpaceOnUse" x1="956.0494" y1="-154.5571" x2="957.5302" y2="347.4004" gradientTransform="matrix(1 0 0 -1 0 1210.9091)">
	<stop  offset="0" style="stop-color:#E27401"/>
	<stop  offset="0.2913" style="stop-color:#DF7301"/>
	<stop  offset="0.4749" style="stop-color:#D77101"/>
	<stop  offset="0.6288" style="stop-color:#C86C02"/>
	<stop  offset="0.7662" style="stop-color:#B36602"/>
	<stop  offset="0.8914" style="stop-color:#995E02"/>
	<stop  offset="1" style="stop-color:#7B5503"/>
</linearGradient>
<path id="_x31_st_hill" class="st15" d="M-12.1,1130.1c11.2-5.4,44.1-15.6,83.6-21.7c84.7-13,434.4-16.2,527.4-20.6
	c339.9-16.1,706.9-80.5,769.1-83.4c-34.9,4.9-90.8,13.1-90.8,43.4c0,50.9,311.1,157,647.8,205.7c0,65,0,75.8,0,75.8H-12.1V1130.1z"
	/>
</svg>
