<?xml version="1.0" encoding="utf-8"?>
<!-- Generator: Adobe Illustrator 22.1.0, SVG Export Plug-In . SVG Version: 6.00 Build 0)  -->
<svg version="1.1" id="Layer_1" xmlns="http://www.w3.org/2000/svg" xmlns:xlink="http://www.w3.org/1999/xlink" x="0px" y="0px"
	 viewBox="0 0 146.2 146.2" style="enable-background:new 0 0 146.2 146.2;" xml:space="preserve">
<style type="text/css">
	.st0{fill:#99FFFF;}
	.st1{fill:#333366;}
</style>
<circle class="st0" cx="73.1" cy="73.1" r="73.1"/>
<g>
	<path class="st1" d="M-220.4,41.8l0.3,0.3c1.6,1.6,3.3,3.3,4.8,4.8c0.8,0.8,1.6,1.6,2.4,2.4h-13.5c-13.1,0-26.3,0-39.5,0
		c-3.3,0-5.3,2-5.3,3.8c0,2.4,2,3.9,5.4,3.9h52.9c-0.8,0.8-2.5,2.5-2.5,2.5c-1.6,1.6-3.3,3.3-4.8,4.8c-2.8,2.9-2.1,4.9-0.9,6.2
		c0.8,0.8,1.6,1.2,2.6,1.2c1.2,0,2.3-0.6,3.7-1.9c4.3-4.3,8.8-8.7,13.1-13.1c2.7-2.7,2.7-4.6,0-7.3c-4.3-4.3-8.8-8.8-13.1-13.1
		c-0.5-0.5-0.9-0.9-1.5-1.3c-0.7-0.4-1.3-0.7-2.1-0.7c-0.3,0-0.5,0-0.8,0.1c-0.8,0.2-1.6,0.8-2.1,1.5c-0.6,1-0.8,2.4-0.5,3.6
		C-221.6,40.7-220.9,41.3-220.4,41.8z"/>
	<path class="st1" d="M-171.9,13c0-1.4-0.9-2.8-2.3-3.3L-207-3.1c-0.6-0.3-1.3-0.4-1.9-0.4c-0.4,0-0.8,0.1-1.2,0.3l-32.2,14.1
		c-1.4,0.6-2.1,1.7-2.1,3.2c0,3.8-0.1,8.3-0.1,12.9c-0.1,4.7-0.1,9.6-0.1,13.9c0,0,0,1.1,0,1.2c0,2.1,1.8,3.8,3.8,3.8
		s3.8-1.8,3.8-3.9v-1.4c0-2.5,0-7.4,0-10.2c0-3.2,1.8-5.3,5.1-5.8c0.8-0.1,1.7-0.2,2.7-0.2c6.8,0,13.5,0,20.2,0h16.1h4.2
		c0.9,0,1.8,0,2.8,0c4.7,0.1,6.4,3.3,6.4,6.4c-0.1,14.5-0.1,29.5,0,44.7c0,3.6-2.1,6-5.5,6.4c-0.8,0.1-1.5,0.1-2.2,0.1h-36
		c-0.8,0-3.8,0-4.4,0c-0.9,0-1.8,0-2.7,0c-4.4-0.1-6.6-2.3-6.7-6.7c0-1.6,0-3.1,0-4.7v-0.9c0-1.4,0-2.8,0-4.3c0-0.1,0-0.2,0-0.3
		c0-0.7,0.1-1.7-0.5-2.5l-0.1-0.1c-0.7-1.2-1.9-1.8-3.3-1.8c-1.2,0-2.3,0.6-3,1.4v0.1c-0.3,0.3-0.4,0.6-0.5,0.8
		c-0.3,0.7-0.3,1.9-0.3,2c0,1.1,0,2.2,0,3.3v0.3c0,2.5-0.1,5.1,0,7.7c0.3,7.3,5.3,12.5,12.5,13.2c1.2,0.1,2.3,0.2,3.6,0.2
		c6.8,0,13.5,0,20.2,0c6.6,0,13.2,0,19.8,0h0.3c1.4,0,4,0,4,0l0,0c7.9,0,12.2-6.2,12.2-12C-171.9,76.2-171.9,13-171.9,13z
		 M-179.7,15.4v2.8c-1.3-0.8-2.8-1.2-4.7-1.3c-1.3-0.1-2.4-0.2-3.5-0.2c-6.8,0-13.5,0-20.2,0s-13.5,0-20.2,0c-1.3,0-2.3,0.1-3.3,0.2
		c-1.8,0.2-3.6,0.7-5.2,1.4v-1.6L-208,4L-179.7,15.4z"/>
</g>
<g>
	<g>
		<path d="M66,65.9H41.1c-2,0-3.5-1.6-3.5-3.5s1.6-3.5,3.5-3.5H66c2,0,3.5,1.6,3.5,3.5S68,65.9,66,65.9z"/>
	</g>
	<g>
		<path d="M83.6,80.9H41.1c-2,0-3.5-1.6-3.5-3.5s1.6-3.5,3.5-3.5h42.5c2,0,3.5,1.6,3.5,3.5S85.6,80.9,83.6,80.9z"/>
	</g>
	<g>
		<path d="M63.9,99.2H41.1c-2,0-3.5-1.6-3.5-3.5c0-2,1.6-3.5,3.5-3.5h22.8c2,0,3.5,1.6,3.5,3.5C67.4,97.6,65.8,99.2,63.9,99.2z"/>
	</g>
	<path d="M129.2,75.7c-0.6-0.5-7.9-6.6-7.9-6.6c-0.5-0.4-1-0.6-1.6-0.5c-0.6,0.1-1.1,0.3-1.5,0.8l-34.7,41.4c-0.4,0.4-4,13.4-4,13.4
		c-0.3,0.8,0,1.8,0.7,2.3c0,0,0,0,0,0c0.7,0.6,1.7,0.7,2.5,0.3c0,0,11.9-6.2,12.2-6.5c0,0,33.9-40.5,34.7-41.4
		S130.3,76.7,129.2,75.7z M85.2,120.4l1.2-4.2l2.6,2.2L85.2,120.4z M92.8,115.7l-4.5-3.8l26.5-31.7l4.5,3.8L92.8,115.7z M122.1,80.6
		l-4.5-3.8l0.9-1.1l1.5-1.7l4.5,3.8L122.1,80.6z"/>
	<g>
		<path d="M78.2,114.7c0.6-2,1-3.4,1.3-4.5c-15.9,0.1-36.5,0.2-44.3,0V45.5l20.2,0.1c0,0,0,0,0,0c0.9,0,1.8-0.4,2.5-1
			c0.7-0.7,1-1.6,1-2.5V24h40.1v61.1l7.1-8.4V20.5c0-2-1.6-3.5-3.5-3.5H55.6c-0.1,0-0.2,0-0.3,0c0,0,0,0,0,0c-0.1,0-0.2,0-0.3,0
			c0,0,0,0,0,0c-0.3,0.1-0.6,0.1-0.8,0.3c0,0,0,0,0,0c-0.3,0.1-0.5,0.3-0.7,0.4c0,0,0,0,0,0c0,0,0,0,0,0c0,0,0,0,0,0
			C51.6,19.2,33.1,36,29.4,39.3C28.7,40,28.3,41,28.3,42v71.7c0,1.7,1.2,3.1,2.8,3.5c1,0.2,5.1,0.3,18.8,0.3c6.7,0,15.6,0,27.6-0.1
			C77.7,116.5,78,115.6,78.2,114.7z M52,28.4v10.2l-11.2-0.1C44.8,34.9,48.9,31.2,52,28.4z"/>
	</g>
	<path d="M92.6,46.8c-0.7-1.2-1.7-2.1-3-2.8c-1.1-0.6-2.7-1.1-4.8-1.7v-6.2c0.4,0.1,0.8,0.3,1.1,0.6c0.8,0.6,1.3,1.6,1.5,3.1
		c0.3,1.6,1.6,2.4,2.7,2.4c1.5,0,2.7-0.7,2.8-2.6c0.1-2-1-4.6-2.8-6.1c-1.3-1.1-3.1-1.9-5.4-2.1v-3.8c0-1.2-1-2.2-2.2-2.2
		c-1.2,0-2.2,1-2.2,2.2v3.8c-1.3,0.1-2.4,0.4-3.4,0.8c-1.5,0.6-2.6,1.6-3.4,2.8c-0.8,1.2-1.2,2.5-1.2,3.9c0,2.2,0.8,4,2.5,5.5
		c1.1,1,2.9,1.8,5.5,2.5v7.7c-0.6-0.2-1.1-0.5-1.6-0.9c-0.9-0.8-1.5-1.9-1.9-3.5c-0.3-1.3-1.3-2.5-2.9-2.5c-1.4,0-2.6,1-2.6,2.5
		c0,0,0,0.8,0.1,1c0.5,2.6,1.5,4.7,3.2,6.1c1.4,1.2,3.3,2,5.6,2.3v4.9c0,1.2,1,2.2,2.2,2.2c1.2,0,2.2-1,2.2-2.2v-4.8
		c1.5-0.1,2.8-0.4,3.9-0.9c1.6-0.7,2.8-1.7,3.7-3.1c0.9-1.4,1.3-2.9,1.3-4.4C93.7,49.5,93.3,48,92.6,46.8z M78.4,40.2
		c-0.6-0.5-0.8-1-0.8-1.7c0-0.7,0.3-1.3,0.9-1.7c0.5-0.4,1.1-0.6,1.8-0.8v5.1C79.4,40.8,78.8,40.5,78.4,40.2z M86.8,53.9
		c-0.5,0.4-1.2,0.7-2,0.9v-6.7c0.3,0.1,0.6,0.2,0.8,0.2c1,0.3,1.6,0.7,2,1.2c0.4,0.5,0.6,1,0.6,1.7C88.1,52.3,87.7,53.2,86.8,53.9z"
		/>
</g>
</svg>
