<?xml version="1.0" encoding="utf-8"?>
<!-- Generator: Adobe Illustrator 22.1.0, SVG Export Plug-In . SVG Version: 6.00 Build 0)  -->
<svg version="1.1" id="Layer_1" xmlns="http://www.w3.org/2000/svg" xmlns:xlink="http://www.w3.org/1999/xlink" x="0px" y="0px"
	 viewBox="0 0 146.2 146.2" style="enable-background:new 0 0 146.2 146.2;" xml:space="preserve">
<style type="text/css">
	.st0{fill:#99FFFF;}
</style>
<circle class="st0" cx="73.1" cy="73.1" r="73.1"/>
<g>
	<g>
		<path d="M41,25.5c17.3,0,34.6,0,51.9,0c0.3,0.1,0.6,0.2,0.9,0.2c2,0,3.9,0.4,5.7,1.3c6.1,3,9.2,7.9,9.3,14.7
			c0.1,8.3,0,16.5,0,24.8c0,1.6-0.2,3.2-0.6,4.7c-1.9,6.8-8,11.4-15.1,11.4c-7.9,0-15.7,0-23.6,0c-0.5,0-1.1,0.2-1.5,0.6
			c-1.3,1-2.5,2.2-3.7,3.3c-5.9,5.3-11.9,10.6-17.8,16c-1.2,1.1-2.4,2.2-3.8,3.4c0-0.5-0.1-0.7-0.1-1c0-2.2-0.1-4.5-0.1-6.7
			c0-4.8,0-9.6-0.1-14.3c0-1.1,0-1.1-1.1-1.1c-0.8,0-1.7,0-2.5-0.1c-8-1.3-13.5-7.7-13.5-15.8c0-8.4,0-16.8,0-25.2
			c0-1.2,0.1-2.4,0.4-3.6c1.4-6.7,7.5-12.1,14.6-12.2C40.5,25.7,40.8,25.6,41,25.5z M95.6,62.2c0.4-0.8,0.9-1.4,1.2-2.2
			c1.1-2.4,1.2-4.8,1.1-7.4c-0.4-5.5-4.2-9.4-9.5-9.8c-4.3-0.4-8.6,1.8-10.2,5.6c-1.6,3.8-1.7,7.8-0.1,11.6c2.2,5.3,9,7.5,14.2,4.7
			c0.6-0.3,0.9-0.3,1.3,0.2c0.6,0.7,1.3,1.2,2,1.9c0.8-0.8,1.5-1.6,2.3-2.4C97.1,63.6,96.3,62.9,95.6,62.2z M75.1,65.3
			c-0.4-1-0.7-1.9-1-2.8c-2.1-6.1-4.3-12.1-6.4-18.2c-0.2-0.6-0.5-0.9-1.2-0.8c-1.1,0.1-2.2,0.1-3.3,0c-0.7,0-1,0.2-1.2,0.9
			c-2.4,6.7-4.7,13.3-7.1,20c-0.1,0.3-0.2,0.6-0.3,1c1.4,0,2.7,0,4,0c0.5,0,0.8-0.2,0.9-0.7c0.3-1.1,0.7-2.1,1-3.2
			c0.1-0.5,0.4-0.6,0.9-0.6c2.3,0,4.5,0,6.8,0c0.5,0,0.7,0.2,0.9,0.6c0.3,1.1,0.6,2.1,1,3.2c0.1,0.3,0.4,0.6,0.7,0.6
			C72.1,65.4,73.5,65.3,75.1,65.3z M52.9,43.7c-0.2,0-0.3-0.1-0.4-0.1c-4.8,0-9.6,0-14.4,0c-0.7,0-0.7,0.4-0.7,0.9
			c0,2.8,0,5.6,0,8.4c0,3.9,0,7.8,0,11.7c0,0.6,0.2,0.9,0.9,0.9c0.9,0,1.8,0,2.7,0c0.7,0,1-0.2,1-0.9c0-2.5,0-4.9,0-7.4
			c0-0.7,0.2-0.9,0.8-0.9c2.4,0,4.8,0,7.1,0c0.5,0,1,0,1.6,0c0-1.3,0-2.5,0-3.8c-3.2,0-6.3,0-9.5,0c0-1.7,0-3.4,0-5.1
			c3.7,0,7.3,0,10.9,0C52.9,46,52.9,44.8,52.9,43.7z"/>
		<path d="M61.6,97.7c0.3-0.4,0.5-0.6,0.6-0.7c3.1-3.2,6.2-6.4,9.2-9.6c0.5-0.5,0.9-0.6,1.5-0.6c7.4,0,14.8,0,22.2,0
			c3,0,5.9-0.3,8.7-1.5c5.1-2.2,8.1-6.2,9.2-11.5c0.5-2,0.5-4.2,0.5-6.3c0.1-8.2,0.1-16.3,0.1-24.5c0-0.4,0-0.8,0-1.3
			c0.5,0.2,0.9,0.4,1.2,0.6c5,3.4,7.7,8.1,7.8,14.1c0.1,8.5,0,17.1,0,25.6c0,3.6-0.9,6.9-3.3,9.7c-2.3,2.6-5.3,4.1-8.6,4.8
			c-2.3,0.5-4.6,0.6-7,1c-0.3,8.2-0.5,16.6-0.8,25.3c-0.4-0.4-0.6-0.6-0.9-0.9c-7.5-7.7-15-15.5-22.5-23.2c-0.5-0.5-1-0.8-1.8-0.8
			c-5.1,0-10.2-0.1-15.2-0.1C62.5,97.7,62.2,97.7,61.6,97.7z"/>
		<path d="M92.4,59c-0.8-0.7-1.5-1.4-2.3-2c-0.8,0.8-1.5,1.6-2.4,2.5c0.7,0.7,1.4,1.3,2.2,2c-2.4,1.3-5.6,0.5-7-1.8
			c-0.6-0.9-1-2-1.1-3.1c-0.3-2-0.3-4.1,0.4-6.1c0.8-2.4,2.8-3.8,5.4-3.8c2.6,0,4.4,1.3,5.3,3.7C93.7,53.3,93.7,56.1,92.4,59z"/>
		<path d="M64.9,48.8c0.9,2.7,1.7,5.4,2.6,8.1c-1.9,0-3.6,0-5.5,0c0.9-2.8,1.8-5.4,2.7-8.1C64.7,48.9,64.8,48.8,64.9,48.8z"/>
	</g>
</g>
</svg>
