<?xml version="1.0" encoding="utf-8"?>
<!-- Generator: Adobe Illustrator 22.1.0, SVG Export Plug-In . SVG Version: 6.00 Build 0)  -->
<svg version="1.1" id="Layer_1" xmlns="http://www.w3.org/2000/svg" xmlns:xlink="http://www.w3.org/1999/xlink" x="0px" y="0px"
	 viewBox="0 0 146.2 146.2" style="enable-background:new 0 0 146.2 146.2;" xml:space="preserve">
<style type="text/css">
	.st0{fill:#EFDD6F;}
</style>
<circle class="st0" cx="73.1" cy="73.1" r="73.1"/>
<g>
	<g>
		<path d="M122,58.6c7.9,2.2,9.7,9.2,4,14.8c-5.2,5.2-10.3,10.4-15.5,15.5c-3.8,3.8-8.5,6.1-13.8,6.7c-3.7,0.4-7.1,1.5-9.6,4.6
			c-1.6,1.9-3,1.8-4.8,0c-7.8-7.9-15.8-15.8-23.7-23.7c-2.3-2.3-2.4-2.7,0.1-5.1s3.8-5.3,4.2-8.7c0.6-5.3,2.6-10.1,6.2-14.1
			c1.5-1.7,2.9-2.1,4.6-0.5c0.8,0.7,1.7,1.3,2.6,1.7c3.2,1.6,4.5,1.3,6.9-1.2c3.3-3.5,6.5-7,9.9-10.5c5-5.1,11.5-3.6,13.9,3.1
			c0.3,0.7,1.1,1.5,1.9,1.7c3,1,4.9,2.9,5.8,5.9c0.2,0.6,0.7,1.4,1.3,1.6C120,51.6,122,54.2,122,58.6z"/>
		<path d="M49.1,73.7c0.8,0.6,1.6,1,2.2,1.6c10.4,10.4,20.8,20.8,31.2,31.2c1.4,1.4,1.6,2.7,0,4.2c-3.6,3.5-7,7-10.5,10.5
			c-1.4,1.4-2.7,1.3-4.1,0c-10.5-10.5-20.9-21-31.4-31.4c-1.5-1.5-1.5-2.8,0-4.3c3.5-3.5,7-7,10.6-10.5
			C47.6,74.6,48.3,74.2,49.1,73.7z"/>
		<path d="M70.8,23.3c-2.4-2.3-4.8-4.5-7.2-6.8c2.8-2.3,6.3-2.3,9,0.1c2.2,1.9,4.2,3.9,6.2,6c2.2,2.3,2.6,5.1,1.3,8
			c-0.7,1.4-0.3,2.2,0.7,3.1c2.2,2.1,4.4,4.2,6.7,6.4c-2.9,2.7-5.4,5.1-8.1,7.5c-2.2-2.3-4.7-5-7.3-7.7c-5.7,3.7-9.4,0.9-12.8-2.9
			c-1.2-1.4-2.6-2.6-3.7-4c-2-2.6-1.9-5.6,0.2-8.8c2.3,2.6,4.5,5.1,6.6,7.5C65.4,28.6,67.9,26.2,70.8,23.3z"/>
		<path d="M117.7,86.6c2.7-2.8,5.1-5.3,7.8-8.2c2.4,2.5,4.8,4.7,6.8,7.3c1.6,2.1,1,5.3-1,7.1c-2,1.8-5.1,1.9-7.2,0.1
			C121.9,90.8,119.8,88.6,117.7,86.6z"/>
	</g>
</g>
</svg>
