<?xml version="1.0" encoding="utf-8"?>
<!-- Generator: Adobe Illustrator 22.1.0, SVG Export Plug-In . SVG Version: 6.00 Build 0)  -->
<svg version="1.1" id="Layer_1" xmlns="http://www.w3.org/2000/svg" xmlns:xlink="http://www.w3.org/1999/xlink" x="0px" y="0px"
	 viewBox="0 0 146.2 146.2" style="enable-background:new 0 0 146.2 146.2;" xml:space="preserve">
<style type="text/css">
	.st0{fill:#EFDD6F;}
</style>
<circle class="st0" cx="73.1" cy="73.1" r="73.1"/>
<g>
	<g>
		<path d="M116.4,49.4c3.7,0,4.4,0.7,4.4,4.4c0,17.4,0,34.7,0,52.1c0,3.3-0.8,4.1-4,4.1c-24.7,0-49.4,0-74.1,0
			c-3.4,0-4.2-0.8-4.2-4.2c0-17.5,0-34.9,0-52.4c0-3.3,0.8-4.1,4.2-4.1C55.2,49.4,104.2,49.4,116.4,49.4z M115.2,55.3
			c-23.7,0-47.2,0-70.8,0c0,16.3,0,32.5,0,48.8c23.7,0,47.2,0,70.8,0C115.2,87.8,115.2,71.7,115.2,55.3z"/>
		<path d="M107.7,44.8c-2,0-4,0-5.7,0c0-1.5,0-0.9,0-2.7c-23.5,0-46.9,0-70.6,0c0,16.2,0,32.4,0,48.8c1.1,0,1.1,0,2.5,0
			c0,1.7,0,3.9,0,5.8c-1.7,0-3.2,0-4.7,0c-3.1-0.1-3.8-0.8-3.8-3.9c0-6.4,0-12.8,0-19.3c0-10.9,0-21.9,0-32.8c0-3.8,0.7-4.4,4.4-4.4
			c24,0,47.9,0,71.9,0c5.9,0,6.1,0.2,6,6.1C107.7,43,107.7,43.7,107.7,44.8z"/>
		<path d="M109.8,97c-20,0-39.8,0-59.6,0c0.4-4.8,4.5-8.9,10.6-9.7c3.5-0.5,7.2-0.3,10.8-0.1c2,0.1,3.2-0.2,4.4-2
			c3.5-5.7,7.2-11.3,11-17.2c3.4,4.8,6.7,9.5,10.2,14.5c1.8-2.5,3.5-4.7,5.4-7.3C105,82.7,107.4,89.8,109.8,97z"/>
		<path d="M56.1,71.2c0-3.7,3.1-6.8,6.7-6.7c3.6,0,6.7,3.2,6.7,6.8c0,3.7-3.1,6.8-6.8,6.7C59.1,78,56,74.9,56.1,71.2z"/>
	</g>
</g>
</svg>
