<?xml version="1.0" encoding="utf-8"?>
<!-- Generator: Adobe Illustrator 22.1.0, SVG Export Plug-In . SVG Version: 6.00 Build 0)  -->
<svg version="1.1" id="Layer_1" xmlns="http://www.w3.org/2000/svg" xmlns:xlink="http://www.w3.org/1999/xlink" x="0px" y="0px"
	 viewBox="0 0 146.2 146.2" style="enable-background:new 0 0 146.2 146.2;" xml:space="preserve">
<style type="text/css">
	.st0{fill:#EFDD6F;}
	.st1{fill:#333366;}
</style>
<circle class="st0" cx="73.1" cy="73.1" r="73.1"/>
<g>
	<path class="st1" d="M64.3,65.9l0.3,0.3c1.6,1.6,3.3,3.3,4.8,4.8c0.8,0.8,1.6,1.6,2.4,2.4H58.3c-13.1,0-26.3,0-39.5,0
		c-3.3,0-5.3,2-5.3,3.8c0,2.4,2,3.9,5.4,3.9h52.9c-0.8,0.8-2.5,2.5-2.5,2.5c-1.6,1.6-3.3,3.3-4.8,4.8c-2.8,2.9-2.1,4.9-0.9,6.2
		c0.8,0.8,1.6,1.2,2.6,1.2c1.2,0,2.3-0.6,3.7-1.9c4.3-4.3,8.8-8.7,13.1-13.1c2.7-2.7,2.7-4.6,0-7.3c-4.3-4.3-8.8-8.8-13.1-13.1
		c-0.5-0.5-0.9-0.9-1.5-1.3c-0.7-0.4-1.3-0.7-2.1-0.7c-0.3,0-0.5,0-0.8,0.1c-0.8,0.2-1.6,0.8-2.1,1.5c-0.6,1-0.8,2.4-0.5,3.6
		C63.1,64.8,63.8,65.4,64.3,65.9z"/>
	<path class="st1" d="M112.8,37.1c0-1.4-0.9-2.8-2.3-3.3L77.7,21c-0.6-0.3-1.3-0.4-1.9-0.4c-0.4,0-0.8,0.1-1.2,0.3L42.4,35
		c-1.4,0.6-2.1,1.7-2.1,3.2c0,3.8-0.1,8.3-0.1,12.9c-0.1,4.7-0.1,9.6-0.1,13.9c0,0,0,1.1,0,1.2c0,2.1,1.8,3.8,3.8,3.8
		s3.8-1.8,3.8-3.9v-1.4c0-2.5,0-7.4,0-10.2c0-3.2,1.8-5.3,5.1-5.8c0.8-0.1,1.7-0.2,2.7-0.2c6.8,0,13.5,0,20.2,0h16.1H96
		c0.9,0,1.8,0,2.8,0c4.7,0.1,6.4,3.3,6.4,6.4c-0.1,14.5-0.1,29.5,0,44.7c0,3.6-2.1,6-5.5,6.4c-0.8,0.1-1.5,0.1-2.2,0.1h-36
		c-0.8,0-3.8,0-4.4,0c-0.9,0-1.8,0-2.7,0c-4.4-0.1-6.6-2.3-6.7-6.7c0-1.6,0-3.1,0-4.7v-0.9c0-1.4,0-2.8,0-4.3c0-0.1,0-0.2,0-0.3
		c0-0.7,0.1-1.7-0.5-2.5l-0.1-0.1c-0.7-1.2-1.9-1.8-3.3-1.8c-1.2,0-2.3,0.6-3,1.4v0.1c-0.3,0.3-0.4,0.6-0.5,0.8
		C40,87.8,40,89,40,89.1c0,1.1,0,2.2,0,3.3v0.3c0,2.5-0.1,5.1,0,7.7c0.3,7.3,5.3,12.5,12.5,13.2c1.2,0.1,2.3,0.2,3.6,0.2
		c6.8,0,13.5,0,20.2,0c6.6,0,13.2,0,19.8,0h0.3c1.4,0,4,0,4,0l0,0c7.9,0,12.2-6.2,12.2-12C112.8,100.3,112.8,37.1,112.8,37.1z
		 M105,39.5v2.8c-1.3-0.8-2.8-1.2-4.7-1.3c-1.3-0.1-2.4-0.2-3.5-0.2c-6.8,0-13.5,0-20.2,0s-13.5,0-20.2,0c-1.3,0-2.3,0.1-3.3,0.2
		c-1.8,0.2-3.6,0.7-5.2,1.4v-1.6l28.8-12.7L105,39.5z"/>
</g>
</svg>
