<?xml version="1.0" encoding="utf-8"?>
<!-- Generator: Adobe Illustrator 22.1.0, SVG Export Plug-In . SVG Version: 6.00 Build 0)  -->
<svg version="1.1" id="Layer_1" xmlns="http://www.w3.org/2000/svg" xmlns:xlink="http://www.w3.org/1999/xlink" x="0px" y="0px"
	 viewBox="0 0 1920 527" style="enable-background:new 0 0 1920 527;" xml:space="preserve">
<style type="text/css">
	.st0{opacity:0.84;fill:#606060;enable-background:new    ;}
	.st1{fill:url(#middle_right_1_);}
	.st2{fill:url(#middle_right_4_);}
	.st3{fill:url(#front_right_2_);}
	.st4{opacity:0.84;fill:#505050;enable-background:new    ;}
	.st5{fill:url(#middle_left_1_);}
	.st6{fill:#494949;}
	.st7{fill:url(#SVGID_1_);}
</style>
<path class="st0" d="M1567.5,197.9c0-1.5,0-4.1-1.6-4.1c-3,0.2-5.8-0.4-8.3-2.1c-3.2-2.2-4.8-5.3-5.2-9.1c-0.3-2.4-0.3-4.9-0.3-7.3
	c-0.2-8-0.3-15.9-0.4-23.9c0-2.4,0.7-4.8,2.7-6.4c1.2-1,2.4-1.4,3.9-0.7c1.4,0.7,2,1.8,2,3.4c0,1,0.1,2.7,0.2,3.8
	c0.5,5.1,1,10.2,1.5,15.3c0.4,3.5,0.7,7,1.1,10.5c0.3,2,1.4,3.4,3.2,4c0.5,0.2,1-0.2,1-0.7c0-2.4,0-4.6,0-6.9
	c0.3-10.4,0.5-20.7,0.8-31.1c0.1-3,0.3-5.9,0.7-8.9c0.3-2.8,2-4.9,4.3-6.4c0.4-0.3,1.1-0.3,1.6-0.2c3.8,1.5,6.6,4,6.9,8.5
	c0.1,2.1,0.1,4.1,0.1,6.2c-0.1,6.2-0.3,12.4-0.4,18.5c-0.2,7.2-0.3,14.4-0.5,21.6c-0.1,4.6-0.2,9.2-0.3,13.8c0,0.9,0.2,1.3,1.1,1.6
	c1.2,0.3,2.3,0.8,3.4,1c4.4,0.8,7.4-0.4,7.6-5c0.3-5.8,0.5-11.5,0.9-17.3c0.3-4.1,0.6-8.1,1.1-12.1c0.2-1.8,0.8-3.7,1.5-5.4
	c0.6-1.5,1.7-1.8,3.2-1.2c1.2,0.5,2.1,1.3,2.5,2.6c0.3,0.9,0.4,1.9,0.4,2.9c0.1,9.9,0.2,19.8,0.2,29.7c0,5.6-1.8,10.5-6.3,14.2
	s-9.4,5.4-15.2,3.6l0,0c-0.5-0.2-1,0.2-1,0.7c0.1,13.2-0.1,26.4,0,39.5v0.2c0.1,0.8,0.3,9.7,0.4,12.8c0,0.4-0.4,0.8-0.8,0.8
	c-5.2-0.4-7.8,0.3-13.2,0.1c-0.4,0-0.8-0.4-0.7-0.8c0,0,0-19.6,1-34.9L1567.5,197.9z"/>
<linearGradient id="middle_right_1_" gradientUnits="userSpaceOnUse" x1="1288.4744" y1="381.8236" x2="1924.8319" y2="34.5577" gradientTransform="matrix(1 0 0 -1 0 528)">
	<stop  offset="0" style="stop-color:#E27401"/>
	<stop  offset="0.3516" style="stop-color:#E07301"/>
	<stop  offset="0.5155" style="stop-color:#D87101"/>
	<stop  offset="0.6406" style="stop-color:#CC6D01"/>
	<stop  offset="0.746" style="stop-color:#B96802"/>
	<stop  offset="0.8379" style="stop-color:#A26002"/>
	<stop  offset="0.9187" style="stop-color:#865803"/>
</linearGradient>
<path id="middle_right_3_" class="st1" d="M1951.8,109.9c-12.6-6.1-52.6-8.1-107.2,17.3c-84.3,39.3-155.4,112.1-354.1,112.1
	c-149.1,0-233.8-40.9-253.4-47c0,37.9,0,324.1,0,324.1H1951L1951.8,109.9z"/>
<linearGradient id="middle_right_4_" gradientUnits="userSpaceOnUse" x1="1134.8696" y1="245.8866" x2="2151" y2="245.8866" gradientTransform="matrix(1 0 0 -1 0 528)">
	<stop  offset="0" style="stop-color:#7B5503"/>
	<stop  offset="2.680230e-02" style="stop-color:#865803"/>
	<stop  offset="0.1124" style="stop-color:#A26102"/>
	<stop  offset="0.2086" style="stop-color:#BA6802"/>
	<stop  offset="0.318" style="stop-color:#CC6D01"/>
	<stop  offset="0.4485" style="stop-color:#D97101"/>
	<stop  offset="0.6209" style="stop-color:#E07301"/>
	<stop  offset="1" style="stop-color:#E27401"/>
</linearGradient>
<path id="middle_right_2_" class="st2" d="M2151,479.7c-14.6-59.1-202.1-161.9-349.8-195.1c-243.1-54.6-338.7-88.4-447.4-154.2
	c-81.9-49.6-119-57.4-176.9-31c-59.9,27.3-38.2,155.6-38.2,155.6l199,86.3C1337.7,341.4,2138.9,477.4,2151,479.7z"/>
<linearGradient id="front_right_2_" gradientUnits="userSpaceOnUse" x1="356.3463" y1="215.5" x2="2117.2463" y2="215.5" gradientTransform="matrix(1 0 0 -1 0 528)">
	<stop  offset="0" style="stop-color:#E27401"/>
	<stop  offset="0.1891" style="stop-color:#DE7301"/>
	<stop  offset="0.3754" style="stop-color:#D26F01"/>
	<stop  offset="0.5605" style="stop-color:#BE6902"/>
	<stop  offset="0.745" style="stop-color:#A36102"/>
	<stop  offset="0.9275" style="stop-color:#7F5603"/>
	<stop  offset="0.9473" style="stop-color:#7B5503"/>
</linearGradient>
<path id="front_right_1_" class="st3" d="M2122.9,537l10-83.3c0,0-20.8-39.8-132.7-72.1c-61.3-17.7-606.1-109.2-674.1-118.3
	c-141.7-18.9-169.3-128.9-117.8-175.3C1122,88,655,322.4,372,322.4C372,373.3,766.3,537,766.3,537H2122.9z"/>
<path class="st4" d="M943,373.1c0-15.3,0-29.5,0-43.7c-0.3-0.2-0.4-0.4-0.6-0.4c-9.8-0.2-17.5-12-19.3-29.6
	c-0.7-6.6-1-13.1-0.2-19.8c0.6-5.5,2.4-9,5.3-10.6c2.8-1.5,5.4-0.2,7.3,3.6c2,3.9,2.4,8.4,1.6,13.6c-0.7,4.6-1.1,9.5-1.3,14.3
	c-0.1,3.8,1,7.3,2.6,9.9c0.7,1.1,1.7,2.1,2.6,2.4c2.1,0.7,2.4,0.1,2.6-3.7c0.4-11.3,0.9-22.5,3-33.3c0.8-4.1,1.9-8.2,3.3-11.5
	c2.8-6.4,7.3-6.1,10.2,0.2c2.5,5.5,3.4,12,4.1,18.7c2.1,20.1,1.5,40.3,1.2,60.5c-0.1,3.9-0.1,7.7-0.2,11.6c-0.1,2.7,0.6,3.3,1.8,3.2
	c2-0.1,3.4-2.3,4-5.3c1.2-6.4,2.7-12.9,3-19.5c0.6-12.1,0.4-24.3,0.5-36.5c0-6.1,1.7-11.3,4.6-13.4c4.9-3.5,10.4,2.9,10.2,12.3
	c-0.6,20-2,39.7-6.7,58.2c-2.2,8.6-5.2,16.1-10.5,19c-2.2,1.2-4.6,1.1-7.2,1.7c0,0.5-0.1,1.7-0.2,2.9c-0.4,12.5-0.8,25-1.1,37.5
	c-0.1,2.6-0.6,3.6-2,4.1c-4.8,1.7-9.7,2.3-14.5,0.2c-1.3-0.5-1.9-1.5-2-4.2c-0.3-9.1-0.9-18.2-1.3-27.6c-1.7-0.5-3.3-0.5-4.8-1.4
	c-2.1-1.3-4.3-2.9-6.1-5c-7.1-8.1-11.6-19.9-14.1-34.2c-0.9-5.4-0.2-10.1,2.2-13.9c2.3-3.6,5-4.2,7.7-2.2c2.8,2.1,4.3,6.1,4.5,11.7
	c0.3,9.7,2.3,18.3,6.2,25.2C940.1,370,941.5,371.3,943,373.1z"/>
<linearGradient id="middle_left_1_" gradientUnits="userSpaceOnUse" x1="100.3992" y1="-191.3696" x2="1612.5776" y2="533.6136" gradientTransform="matrix(1 0 0 -1 0 528)">
	<stop  offset="0" style="stop-color:#7B5503"/>
	<stop  offset="2.219091e-02" style="stop-color:#975E02"/>
	<stop  offset="4.921395e-02" style="stop-color:#B26602"/>
	<stop  offset="7.870981e-02" style="stop-color:#C86C02"/>
	<stop  offset="0.1115" style="stop-color:#D77101"/>
	<stop  offset="0.1501" style="stop-color:#DF7301"/>
	<stop  offset="0.2091" style="stop-color:#E27401"/>
	<stop  offset="0.3617" style="stop-color:#D47001"/>
	<stop  offset="0.6495" style="stop-color:#AF6502"/>
	<stop  offset="0.9993" style="stop-color:#7B5503"/>
</linearGradient>
<path id="middle_left_3_" class="st5" d="M1651.6,546.2C1359.5,503.9,878,398.3,695.3,340.7c-115.2-36.3-388.1-170.9-556.8-170.9
	c-108.9,0-139.9,28-163.8,44.5c0,26.7,0,314.2,0,314.2L1651.6,546.2z"/>
<g>
	<path class="st6" d="M370.6,322.1c-11.4,0.7-14.4,0.3-25.5,1.6c0.1-4,0.5-22.1,0.8-22.2c0.2-28.5-0.2-57.3,0-86
		c-0.8,0.2-1.3,0.2-1.8,0.4c-10.5,3.9-19.5,0.3-27.7-7.6c-8.2-7.9-11.5-18.2-11.4-30.3c0.1-21,0.3-42,0.4-63c0-2.1,0.3-4.2,0.8-6.1
		c0.7-2.6,2.4-4.4,4.6-5.4c2.7-1.2,4.8-0.6,5.9,2.6c1.2,3.7,2.3,7.6,2.7,11.5c0.9,8.6,1.5,17.2,2,25.8c0.7,12.3,1.1,24.5,1.7,36.8
		c0.4,9.8,5.9,12.3,13.9,10.7c2.1-0.4,4.2-1.6,6.3-2.2c1.6-0.5,2-1.5,2-3.4c-0.2-9.8-0.4-19.6-0.5-29.4c-0.3-15.3-0.6-30.6-0.8-45.9
		c-0.2-13.1-0.5-26.3-0.7-39.4c-0.1-4.4-0.1-8.8,0.1-13.2c0.6-9.8,5.9-15.2,13.3-18.4c0.4-0.2,1.1-0.1,1.4,0.2
		c4.5,3.3,7.9,7.7,8.5,14.1c0.6,6.3,1.1,12.6,1.3,18.9c0.6,22,1.1,44,1.5,66c0.1,5.5,0,11.1,0,16.8c4.5-1,7.2-4.1,7.7-9.1
		c0.8-7.4,1.4-14.9,2.1-22.3c1-11.3,1.9-22.6,2.9-33.9c0.2-2.3,0.3-4.6,0.3-6.9c0.1-3.1,1.1-5.5,3.6-6.9c2.7-1.5,5-0.5,7.2,1.6
		c3.7,3.5,4.9,8.5,4.9,13.6c0,16.9-0.4,33.8-0.7,50.7c-0.1,5.2-0.2,10.3-0.6,15.5c-0.7,7.9-3.6,14.6-9.5,19.2
		c-4.6,3.6-9.6,4.9-15.1,4.5c-2.8-0.2-2.9-0.1-2.9,3.1c0,32.8,1.8,91.4,1.7,98.2"/>
</g>
<linearGradient id="SVGID_1_" gradientUnits="userSpaceOnUse" x1="209.9029" y1="-225.3522" x2="792.8468" y2="329.4146" gradientTransform="matrix(1 0 0 -1 0 528)">
	<stop  offset="0" style="stop-color:#512D00"/>
	<stop  offset="8.393856e-02" style="stop-color:#703C01"/>
	<stop  offset="0.1774" style="stop-color:#8A4903"/>
	<stop  offset="0.2803" style="stop-color:#9E5304"/>
	<stop  offset="0.3961" style="stop-color:#AD5A04"/>
	<stop  offset="0.5357" style="stop-color:#B55E05"/>
	<stop  offset="0.7628" style="stop-color:#B85F05"/>
</linearGradient>
<path class="st7" d="M398.8,332.8C298.1,280.6,224.3,231.2,108,278.9C21.1,314.6,31.9,382.5-21.3,388.6
	c-43.3,4.9-66.3-26.1-69.7-28.7c0,21.4,0,186.1,0,186.1h1233.1C806.3,469.8,521.8,396.5,398.8,332.8z"/>
</svg>
