<?xml version="1.0" encoding="utf-8"?>
<!-- Generator: Adobe Illustrator 22.1.0, SVG Export Plug-In . SVG Version: 6.00 Build 0)  -->
<svg version="1.1" id="Layer_1" xmlns="http://www.w3.org/2000/svg" xmlns:xlink="http://www.w3.org/1999/xlink" x="0px" y="0px"
	 viewBox="0 0 146.2 146.2" style="enable-background:new 0 0 146.2 146.2;" xml:space="preserve">
<style type="text/css">
	.st0{fill:#99FFFF;}
	.st1{fill:#FFFFFF;}
	.st2{fill:none;}
	.st3{fill:#32325D;}
	.st4{fill:#333366;}
</style>
<circle class="st0" cx="73.1" cy="73.1" r="73.1"/>
<g>
	<g>
		<path class="st1" d="M110,37.6c0-2.6,0-2.6-2.4-2.6c-9.3,0-18.5,0-27.8,0c-2.4,0-2.4,0-2.4,2.7c0,22.5,0,45.1,0,67.6
			c0,2.5,0,2.5,2.2,2.5c9.4,0,18.8,0,28.2,0c2.1,0,2.1,0,2.1-2.4c0-11.3,0-22.6,0-33.9l0,0C110,60.2,110,48.9,110,37.6z"/>
		<path class="st2" d="M74.2,34.5c-0.1,24.1-0.1,47-0.1,70.9c0,0.7-0.1,2.7,0,3.3c0,0,0.5,0,0.6,0c0-24.8,0-49.7,0-74.6
			C74.4,34.3,74.2,34.4,74.2,34.5z"/>
		<path class="st2" d="M110.9,69.2c0,1.6,0,3.2,0,4.9h0.9c0-1.9,0-3.1-0.1-4.9C111.5,69.2,111.2,69.2,110.9,69.2z"/>
		<path class="st3" d="M105,78.7c2.1,1.8,3.8,1.6,6.9,1.6c1.1,0,1.8-0.9,1.8-2.1c0-1.2-0.6-2.1-1.7-2.2c-0.6-0.1-1.5,0-2-0.1
			c-2.3-0.1-2.6-0.5-2.9-3.1c-0.2-1.8-0.2-3.5-0.3-5.3c-0.2-2.6-1.3-3.8-3.7-3.8c-3.4,0-5.3-0.1-8.9-0.1c-3.9,0-8.2,4.4-8.6,8.4
			c-0.3,3.1,1.9,6.5,5.1,6.5c0-1.3,0-2.7,0-3.8c-1.1-1.5-1.2-2.8,0.5-4.2c0,0.9,0,1.9,0,2.8c0,12.4,0,24.8,0,37.3
			c0,2.3,0.8,5.1,3.3,5.1s3.1-2.8,3.1-5.1c-0.1-6.9,0-14.3,0-21.2c0-0.6,0-1.1,0.1-1.7c0-0.3,0.2-0.7,0.6-0.7c0.5,0,0.5,0.4,0.5,0.6
			c0.1,0.6,0.1,1.3,0.1,1.9c0,7.1,0.1,13.9,0,21c0,2,0.7,5.2,3.2,5.2c2.4,0,3.1-2.8,3.1-4.8c-0.1-9.9,0-19.9,0-29.8
			C104.9,80.2,104.9,79.6,105,78.7z"/>
		<path d="M101.6,62.5c1.7,0,2.5-0.5,3.1-2.4C104.1,62.1,103.2,62.5,101.6,62.5z"/>
		<path class="st3" d="M96.1,62.5c1.3,0,4.6,0,5.6,0c1.6,0,2.5-0.5,3.1-2.4c0.7-2.5-0.3-5.6-2.3-7c-2.2-1.6-5.2-1.4-7.1,0.6
			c-1.9,1.8-2.4,4.9-1.4,7.3C94.3,62.1,95,62.5,96.1,62.5z"/>
		<path class="st4" d="M82.9,57.3c5.1-5.6,10.3-11.2,15.4-16.9c-0.1-0.1-0.2-0.2-0.3-0.3c-5.2,5.6-10.3,11.1-15.5,16.8
			C82.7,57,82.8,57.2,82.9,57.3z"/>
		<path class="st4" d="M93.5,42.4c-3,3.1-5.9,6.4-8.9,9.5c0.1,0.1,0.2,0.3,0.4,0.4c3-3.1,5.9-6.4,8.8-9.5
			C93.7,42.6,93.6,42.5,93.5,42.4z"/>
		<path class="st4" d="M87.4,55c3.1-3.1,6.3-6.1,9-9.5C93.4,48.7,90.3,51.9,87.4,55z"/>
		<path class="st1" d="M71.6,37.7c0-2.6,0-2.6-2.4-2.6c-9.3,0-18.5,0-27.8,0c-2.4,0-2.4,0-2.4,2.7c0,22.5,0,45.1,0,67.6
			c0,2.5,0,2.5,2.2,2.5c9.4,0,18.8,0,28.2,0c2.1,0,2.1,0,2.1-2.4c0-11.3,0-22.6,0-33.9l0,0C71.6,60.3,71.6,49,71.6,37.7z M58.4,63.7
			c0.1,0.1,0.2,0.3,0.3,0.4c-3,3.2-5.9,6.4-8.9,9.6c-0.1-0.1-0.2-0.2-0.3-0.3C52.5,70.2,55.4,67,58.4,63.7z M52.2,76.3
			c2.8-3.4,5.6-6.7,8.9-9.5C58.1,70,55.1,73.1,52.2,76.3z M47.5,78.6c-0.1-0.1-0.2-0.2-0.2-0.3c5.1-5.6,10.3-11.2,15.4-16.8
			c0.1,0.1,0.2,0.3,0.4,0.4C57.9,67.5,52.7,73,47.5,78.6z"/>
		<path class="st4" d="M47.4,78.4c0.1,0.1,0.2,0.2,0.2,0.3c5.2-5.6,10.4-11,15.6-16.6c-0.1-0.1-0.2-0.3-0.4-0.4
			C57.6,67.2,52.6,72.7,47.4,78.4z"/>
		<path class="st4" d="M58.7,64.1c-0.1-0.1-0.2-0.3-0.3-0.4c-3,3.2-5.8,6.5-8.8,9.7c0.1,0.1,0.2,0.2,0.3,0.3
			C52.8,70.6,55.7,67.4,58.7,64.1z"/>
		<path class="st4" d="M52.2,76.3c3-3.1,5.9-6.4,8.9-9.5C57.8,69.7,55,72.9,52.2,76.3z"/>
	</g>
	<g>
		<path class="st2" d="M36,108.8c0.1,0,0.2,0,0.4,0c0-24.8,0-49.6,0-74.5c-0.1,0-0.2,0-0.4,0C36,59.1,36,83.9,36,108.8z"/>
		<path class="st2" d="M69.1,35.2c-9.3,0-18.5,0-27.8,0c-2.4,0-2.4,0-2.4,2.7c0,22.5,0,45.1,0,67.6c0,2.5,0,2.5,2.2,2.5
			c9.4,0,18.8,0,28.2,0c2.1,0,2.1,0,2.1-2.4c0-11.3,0-22.6,0-33.9l0,0c0-11.3,0-22.6,0-33.9C71.6,35.2,71.6,35.2,69.1,35.2z"/>
		<path class="st2" d="M74.2,34.5c-0.1,24.1-0.1,47-0.1,70.9c0,0.7-0.1,2.7,0,3.3c0,0,0.5,0,0.6,0c0-24.8,0-49.7,0-74.6
			C74.4,34.3,74.2,34.4,74.2,34.5z"/>
		<path class="st3" d="M116.4,108.5c-0.6,0-1.2,0-1.9,0c-0.8,0-1.5-0.2-1.5-2.1c0-0.4,0-0.5,0-0.6v-6.2c0-5.4,0-10.7,0-16.2
			c0-1.5-0.7-2.4-1.9-2.4s-1.8,0.9-1.8,2.4c0,6,0,12,0,18.1v4.1c0,1.9-0.3,2-1.8,2c-2,0-2,1.9-2,2.6c0,0.6,0,1.1,0.3,1.6
			c0.3,0.6,0.8,0.8,1.7,0.8c2.4,0,4.7-0.1,7-0.1c1.4,0,2.8-0.1,4.3-0.1h0.5v-3.9h-0.5C117.8,108.5,117.1,108.5,116.4,108.5z"/>
	</g>
	<g>
		<path class="st2" d="M71.2,37.7c0-1,0-1.8-0.2-1.9c-0.2-0.2-0.7-0.2-1.6-0.2c-0.1,0-0.1,0-0.2,0H41.4c-0.9,0-1.6,0-1.8,0.2
			s-0.2,0.9-0.2,2c0,22.5,0,45.1,0,67.6c0,1,0,1.7,0.2,1.9c0.2,0.2,0.8,0.2,1.7,0.2c9.4,0,18.8,0,28.2,0c0.7,0,1.4,0,1.5-0.2
			c0.2-0.2,0.2-0.9,0.2-1.8c0-8.2,0-16.5,0-24.6v-9.7l0,0L71.2,37.7z"/>
		<path class="st3" d="M26.9,30.6v3.8h5c0.3,0,0.4,0.1,0.5,0.2c0.4,0.4,0.4,1.6,0.4,2.3c0,0.2,0,0.4,0,0.5v31.2
			c0,12.3,0,24.5,0,36.9c0,1.2,0,2.1-0.3,2.6c-0.2,0.3-0.5,0.6-1.7,0.6l0,0h-3.9v4.1h55.3c0.7,0,1.4,0,2.1,0c1.5,0,3,0,4.5,0
			c0.1,0,0.1,0,0.2,0c0.6,0,1-0.2,1.3-0.5c0.5-0.5,0.5-1.2,0.6-1.9c0-0.1,0-0.3,0-0.4c0-0.7,0-1.4-0.5-1.9c-0.4-0.4-0.8-0.5-1.6-0.5
			c-2.2,0.1-4.4,0-6.6,0c-0.8,0-1.7,0-2.5,0c-0.8,0-1.5,0-1.7-0.2c-0.2-0.2-0.2-0.9-0.2-1.9V37.6c0-0.9,0-1.7,0.2-1.9
			c0.1-0.2,0.7-0.2,1.6-0.2c4,0,8,0,12,0h16c0.9,0,1.6,0,1.8,0.2s0.2,0.9,0.2,2v10.4c0,10.7,0,22.8,0,25.8v0.5h1.1v-6h0.6h0.5h0.6v6
			h0.9V74c0-2,0-11.1,0-20c0-8.5,0-16.9,0-18.6c0-1,0.2-1.1,0.9-1.1c0.9,0,1.6,0,2.2,0c0.7,0,1.5,0,2.7,0h0.5v-3.8L26.9,30.6
			L26.9,30.6z M71.2,80.9c0,8.2,0,16.5,0,24.6c0,0.8,0,1.6-0.2,1.8c-0.1,0.2-0.7,0.2-1.5,0.2c-9.4,0-18.8,0-28.2,0
			c-0.8,0-1.5,0-1.7-0.2c-0.2-0.2-0.2-0.9-0.2-1.9c0-22.5,0-45.1,0-67.6c0-1,0-1.9,0.2-2s0.8-0.2,1.8-0.2h27.8c0.1,0,0.1,0,0.2,0
			c0.8,0,1.5,0,1.6,0.2c0.2,0.2,0.2,0.9,0.2,1.9v33.4l0,0L71.2,80.9z"/>
	</g>
</g>
</svg>
