<?xml version="1.0" encoding="utf-8"?>
<!-- Generator: Adobe Illustrator 22.1.0, SVG Export Plug-In . SVG Version: 6.00 Build 0)  -->
<svg version="1.1" id="Layer_1" xmlns="http://www.w3.org/2000/svg" xmlns:xlink="http://www.w3.org/1999/xlink" x="0px" y="0px"
	 viewBox="0 0 146.2 146.2" style="enable-background:new 0 0 146.2 146.2;" xml:space="preserve">
<style type="text/css">
	.st0{fill:#99FFFF;}
	.st1{fill:#333366;}
</style>
<circle class="st0" cx="73.1" cy="73.1" r="73.1"/>
<g>
	<path class="st1" d="M33.7,88.7l-0.3-0.2c-1.6-1.6-3.3-3.3-4.9-4.9c-0.8-0.8-1.6-1.6-2.4-2.4h13.6c13.3,0,26.6,0,39.9,0
		c3.3,0,5.3-2,5.3-3.9c0-2.4-2-4-5.5-4H26c0.8-0.8,2.5-2.5,2.5-2.5c1.6-1.6,3.3-3.3,4.9-4.9c2.9-3,2.1-5,0.9-6.2
		c-0.8-0.8-1.6-1.2-2.6-1.2c-1.2,0-2.4,0.6-3.7,1.9c-4.4,4.4-8.9,8.8-13.3,13.3c-2.7,2.7-2.7,4.6,0,7.3c4.4,4.4,8.9,8.9,13.3,13.3
		c0.5,0.5,0.9,0.9,1.5,1.4c0.7,0.4,1.4,0.7,2.1,0.7c0.3,0,0.5,0,0.8-0.1c0.8-0.2,1.6-0.8,2.1-1.5c0.6-1,0.8-2.4,0.5-3.6
		C34.9,89.9,34.2,89.2,33.7,88.7z"/>
	<path class="st1" d="M113.2,36.8c0-1.4-0.9-2.8-2.3-3.3l-33.1-13c-0.6-0.3-1.4-0.4-1.9-0.4c-0.4,0-0.8,0.1-1.2,0.3L42.1,34.7
		c-1.4,0.6-2.1,1.7-2.1,3.2c0,3.9-0.1,8.4-0.1,13c-0.1,4.7-0.1,9.7-0.1,14c0,0,0,1.1,0,1.2c0,2.1,1.8,3.9,3.9,3.9
		c2.1,0,3.9-1.8,3.9-4v-1.4c0-2.5,0-7.4,0-10.3c0-3.2,1.9-5.3,5.1-5.8c0.8-0.1,1.7-0.2,2.7-0.2c6.8,0,13.7,0,20.4,0h16.2h4.2
		c0.9,0,1.9,0,2.8,0c4.7,0.1,6.4,3.4,6.4,6.5c-0.1,14.7-0.1,29.8,0,45.2c0,3.6-2.1,6.1-5.6,6.4c-0.8,0.1-1.5,0.1-2.2,0.1H61.5
		c-0.8,0-3.8,0-4.5,0c-0.9,0-1.9,0-2.7,0c-4.5-0.1-6.7-2.3-6.8-6.8c0-1.6,0-3.1,0-4.7V94c0-1.4,0-2.9,0-4.3c0-0.1,0-0.2,0-0.3
		c0-0.7,0.1-1.7-0.5-2.5L47,86.8c-0.7-1.2-1.9-1.9-3.3-1.9c-1.2,0-2.3,0.6-3,1.4l0,0.1c-0.3,0.3-0.4,0.6-0.5,0.8
		c-0.3,0.8-0.3,1.9-0.3,2c0,1.1,0,2.2,0,3.3v0.3c0,2.5-0.1,5.1,0,7.8c0.3,7.3,5.3,12.7,12.7,13.3c1.2,0.1,2.4,0.2,3.6,0.2
		c6.8,0,13.7,0,20.4,0c6.7,0,13.3,0,20,0h0.3c1.4,0,4.1,0,4.1,0l0,0c8,0,12.3-6.2,12.3-12.1C113.2,100.6,113.2,36.8,113.2,36.8z
		 M105.4,39.2V42c-1.4-0.8-2.8-1.2-4.7-1.4c-1.3-0.1-2.4-0.2-3.5-0.2c-6.8,0-13.6,0-20.4,0c-6.8,0-13.6,0-20.4,0
		c-1.3,0-2.4,0.1-3.4,0.2c-1.9,0.2-3.6,0.7-5.2,1.4v-1.6l29.1-12.8L105.4,39.2z"/>
</g>
</svg>
