<?xml version="1.0" encoding="utf-8"?>
<!-- Generator: Adobe Illustrator 22.1.0, SVG Export Plug-In . SVG Version: 6.00 Build 0)  -->
<svg version="1.1" id="Layer_1" xmlns="http://www.w3.org/2000/svg" xmlns:xlink="http://www.w3.org/1999/xlink" x="0px" y="0px"
	 viewBox="0 0 1817 678" style="enable-background:new 0 0 1817 678;" xml:space="preserve">
<style type="text/css">
	.st0{fill:#F4E9DC;}
	.st1{fill:#EDDBC3;}
	.st2{fill:#D6C4AE;}
	.st3{fill:#FFFCF8;}
	.st4{fill:#EBF7FF;}
	.st5{fill:#84C5F7;}
	.st6{fill:#68B1E0;}
	.st7{fill:#4D99C3;}
	.st8{opacity:0.67;fill:#B3B3E0;enable-background:new    ;}
	.st9{fill:#404072;}
	.st10{fill:url(#SVGID_1_);}
	.st11{fill:url(#SVGID_2_);}
	.st12{fill:url(#SVGID_3_);}
	.st13{fill:url(#SVGID_4_);}
	.st14{fill:url(#SVGID_5_);}
	.st15{fill:#292947;}
	.st16{fill:#5E5E5E;}
	.st17{fill:#FFE9E9;}
	.st18{fill:#9FA2A5;}
	.st19{fill:#FFE3B6;}
	.st20{fill:#0E617A;}
	.st21{fill:#1C2732;}
	.st22{fill:#B3915C;}
	.st23{fill:#385052;}
	.st24{fill:#253444;}
	.st25{fill:#FAFDFF;}
	.st26{fill:#BFBFBF;}
	.st27{fill:#020202;}
	.st28{fill:#010B44;}
	.st29{fill:url(#SVGID_6_);}
	.st30{fill:#F0F7FC;}
	.st31{fill:#FFB6B6;}
	.st32{fill:#432E5B;}
	.st33{fill:url(#SVGID_7_);}
	.st34{fill:url(#SVGID_8_);}
	.st35{opacity:0.19;fill:url(#SVGID_9_);enable-background:new    ;}
	.st36{opacity:0.19;fill:url(#SVGID_10_);enable-background:new    ;}
	.st37{fill:#6F6F96;}
	.st38{opacity:0.19;fill:url(#SVGID_11_);enable-background:new    ;}
	.st39{opacity:0.19;fill:url(#SVGID_12_);enable-background:new    ;}
	.st40{display:none;fill:#FFFFFF;}
	.st41{display:none;}
	.st42{display:inline;fill:url(#SVGID_13_);}
	.st43{fill:url(#SVGID_14_);}
	.st44{fill:#996666;}
	.st45{opacity:0.34;}
	.st46{fill:none;}
	.st47{fill:#F9F9F9;}
	.st48{fill:#3D3D3D;}
	.st49{fill:#22292A;}
	.st50{fill:url(#full_trim_2_);}
	.st51{fill:url(#SVGID_15_);}
	.st52{fill:url(#SVGID_16_);}
	.st53{opacity:0.46;fill:url(#bottom_4_);enable-background:new    ;}
	.st54{opacity:0.52;fill:url(#bottom_5_);enable-background:new    ;}
	.st55{opacity:0.3;fill:url(#top_4_);enable-background:new    ;}
	.st56{opacity:0.3;fill:url(#top_5_);enable-background:new    ;}
	.st57{opacity:0.46;fill:url(#bottom_6_);enable-background:new    ;}
	.st58{opacity:0.52;fill:url(#bottom_7_);enable-background:new    ;}
	.st59{opacity:0.52;fill:url(#top_6_);enable-background:new    ;}
	.st60{opacity:0.46;fill:url(#top_7_);enable-background:new    ;}
	.st61{fill:url(#SVGID_17_);}
	.st62{opacity:0.6;}
	.st63{fill:url(#SVGID_18_);}
	.st64{fill:url(#SVGID_19_);}
	.st65{fill:url(#frame_left_1_);}
	.st66{fill:url(#frame_right_1_);}
	.st67{fill:url(#SVGID_20_);}
	.st68{fill:url(#SVGID_21_);}
	.st69{fill:url(#SVGID_22_);}
	.st70{fill:url(#SVGID_23_);}
	.st71{fill:url(#SVGID_24_);}
	.st72{opacity:0.27;fill:none;stroke:#8E8E8E;stroke-width:2;stroke-miterlimit:10;enable-background:new    ;}
	.st73{opacity:0.62;fill:url(#glare_rectangle_2_);enable-background:new    ;}
	.st74{opacity:0.21;fill:url(#glare_top_left_2_);enable-background:new    ;}
	.st75{opacity:0.4;fill:url(#glare_bottom_rectangle_2_);enable-background:new    ;}
	.st76{opacity:0.53;fill:url(#line_glare_right_1_);enable-background:new    ;}
	.st77{opacity:0.51;fill:url(#line_glare_right_4_);enable-background:new    ;}
	.st78{opacity:0.53;fill:url(#line_glare_left_1_);enable-background:new    ;}
	.st79{opacity:0.51;fill:url(#line_glare_left_4_);enable-background:new    ;}
	.st80{opacity:0.65;fill:url(#right_glare_top_2_);enable-background:new    ;}
	.st81{opacity:0.55;fill:url(#bottom_rectanglev_2_);enable-background:new    ;}
	.st82{opacity:0.43;fill:url(#left_rectangle_glare_2_);enable-background:new    ;}
</style>
<g id="Layer_2_1_">
	<path id="right_wall_1_" class="st0" d="M1129.3,118.8l0.8,311.1c46.4,9.4,128.2,26.7,128.2,26.7l422.5,101.5V114.7L1129.3,118.8z"
		/>
	<polygon id="floor_2_" class="st1" points="120.2,602.7 123.6,430.3 1130.1,429.9 1680,544.7 1679.1,603.1 	"/>
	<polygon class="st2" points="112.7,489.3 51.2,597.2 1235.3,597.8 1049,488.8 	"/>
	<rect id="left_back_wallv_1_" x="121.5" y="116.8" class="st3" width="1008.5" height="313.1"/>
	<g id="buildings">
		<rect x="444.5" y="224.7" class="st4" width="429.7" height="148"/>
		<polygon class="st5" points="477.4,286.1 477.4,285.8 476,285.8 476,285 475.6,285 475.6,285.8 474.4,285.8 474.4,286.1 
			475.6,286.1 475.6,286.6 474.4,286.6 474.4,287.2 475.6,287.2 475.6,289.9 476,289.9 476,287.2 477.4,287.2 477.4,286.6 
			476,286.6 476,286.1 		"/>
		<polygon class="st5" points="578.1,297.9 576.7,297.9 576.7,296.9 576.2,296.9 576.2,297.9 574.8,297.9 574.8,298.5 576.2,298.5 
			576.2,302.1 576.7,302.1 576.7,298.5 578.1,298.5 		"/>
		<polygon class="st5" points="632.6,315.2 631.5,315.2 631.5,314.7 632.6,314.7 632.6,314.1 631.5,314.1 631.5,313.4 631.3,313.4 
			631.3,314.1 630.1,314.1 630.1,314.7 631.3,314.7 631.3,315.2 630.1,315.2 630.1,315.5 631.3,315.5 631.3,317.4 631.5,317.4 
			631.5,315.5 632.6,315.5 		"/>
		<polygon class="st5" points="859,284.4 859,284.1 857.5,284.1 857.5,283.4 857.2,283.4 857.2,284.1 855.9,284.1 855.9,284.4 
			857.2,284.4 857.2,284.9 855.9,284.9 855.9,285.4 857.2,285.4 857.2,288.1 857.5,288.1 857.5,285.4 859,285.4 859,284.9 
			857.5,284.9 857.5,284.4 		"/>
		<path id="back_1_" class="st5" d="M862.6,290.8h-0.8v-3.7h-8.2v0.8l0.5,0.1v2.4h-3.1l-1.4-1.4h-0.8v1.8H845v0.9h-1.1v0.8h2.2V323
			h-2.7v-2.6h1.4v-1.5h-1.4v-3.7h1v-0.9h-18.8v-4.2h-9.6v21.3h-9.1v-26.1h1v-1.2h-2.4v-1.5H802v1.6h-1.5v-1.5h-3.7v1.5h-10.6v1.2
			h1.1v5.9h-10.8l-4.8-4.3L759,318.4v-2.9l-7.7,3.1h-5.6v-17.5l1.1-0.1v-1.6h-1.1v-1.3h-1.9v-1.6H740v1.2h-3.9v1.2h-8.3v1.1H726v1.7
			h1.3l0.2,29.7h-4.3V315h1.4v-2.2h-3.5v-3.2H714v1.8h-8.4v1.4h-9.7v1.4h1.2v7.9h-8.4l-11.8-10.6V310h-8.1v19.8h-1.9v-8.1h-7.6
			h-23.6v-5.1h-12.1v0.5h1.2v3.7h-9.5v-1.7h-3.8v-0.9h-4.3v2.4h-2.8v1.5h1.4v8h-8.5V302h1.6v-1.7h-4.3v-2.8h0.5v-0.9h-8.7v0.6h0.8
			v3.6h-1.2V299h-3.6v1.4h-11.8v1.5h1.2v24.9h-6.5v1.1h-2.1h-16.5v-4.1h-6.8v-1.3h-1.4c0,0,0.4-0.9,0-0.9c-0.4,0-14.8,0-14.8,0v10.6
			h-25.8l-17.2-14.8v-28.1h-11.8v-1.5H465v2.1h-1.3v-3.1h0.8v-1.1h-8.4v1.1h0.5v3h-3.8v1.4h1.2v25.6h-3.7v47.5h413.4v-73.4
			L862.6,290.8z"/>
		<polygon class="st6" points="772.5,304.3 771.1,304.3 771.1,303.5 772.5,303.5 772.5,302.9 771.1,302.9 771.1,302 770.8,302 
			770.8,302.9 769.4,302.9 769.4,303.5 770.8,303.5 770.8,304.3 769.4,304.3 769.4,304.6 770.8,304.6 770.8,306.9 771.1,306.9 
			771.1,304.6 772.5,304.6 		"/>
		<polygon class="st6" points="793.9,321.2 792.8,321.2 792.8,320.3 793.9,320.3 793.9,319.4 792.8,319.4 792.8,318.2 792.4,318.2 
			792.4,319.4 791.1,319.4 791.1,320.3 792.4,320.3 792.4,321.2 791.1,321.2 791.1,321.7 792.4,321.7 792.4,324.5 792.8,324.5 
			792.8,321.7 793.9,321.7 		"/>
		<polygon class="st6" points="732.7,315.2 731.4,315.2 731.4,314.4 732.7,314.4 732.7,313.8 731.4,313.8 731.4,312.9 731.1,312.9 
			731.1,313.8 729.7,313.8 729.7,314.4 731.1,314.4 731.1,315.2 729.7,315.2 729.7,315.5 731.1,315.5 731.1,317.8 731.4,317.8 
			731.4,315.5 732.7,315.5 		"/>
		<polygon class="st6" points="624.7,332.6 623.3,332.6 623.3,331.9 624.7,331.9 624.7,331.3 623.3,331.3 623.3,330.3 623,330.3 
			623,331.3 621.5,331.3 621.5,331.9 623,331.9 623,332.6 621.5,332.6 621.5,333 623,333 623,335.3 623.3,335.3 623.3,333 
			624.7,333 		"/>
		<polygon class="st6" points="498.1,320.6 498.1,318.3 497.6,318.3 497.6,320.6 495.8,320.6 495.8,321.3 497.6,321.3 497.6,325.3 
			498.1,325.3 498.1,321.3 500.1,321.3 500.1,320.6 		"/>
		<path id="middle" class="st6" d="M864.7,311.3h-10.9v1.3h1.4v11.5h-10l-8.7-7.6h-7.1v1.8h1.2v18.8h-17.2v-12.7h1.8V323h-4.1V321
			H806v1h-3.1v1.5h-15.4v1.5h1.3v3.8h-8.9v-18h1.2l-0.1-1.3h-4.1l0.1-2.7h0.9v-1.3H766v1.1h0.8v2.9h-3.2V308h-4.4v2.2h-3.7v1.2h1.2
			v32.3H755v-8.5h-4.9v-15.9h1.5v-1.8H726v1.8h1.3v6.3l-17.8,17.1H697v-15.8h-2.4v-1.3h-3.1v3.9h-1.4v-3.8h-2.7v1h-4.7l-4.8,2.6
			l-6.2-0.2v5.7h-6.9v-4.2h-3.8v-17.7h-7.6v-2.9h1.3v-1.1H643v1.1h1.1v3h-8.9l-5.5,5v13l-3.8-0.1v3.8l-6.9-0.2v-5.4h-6.8l-5.1-2.8
			h-3.5v-0.9h-3.2v3.7h-1.7v-3h-3.1v0.5h-1.7v2.7h-3.4l-6.6,5.9l-19.5-0.3l-1.2,0.1v-17.2h-19.6v1.5h1.5v8.1h-4.8v7.8h-4.8v13.6
			h-2.1v-37.3h1.6v-1.5h-4v-2.1h-4.5v2.1h-2.8v-3.2h1.2v-1.2h-12.1v0.9h0.9v3.7h-3.9v1.5h1.4c0,0,0,13.5,0,16.9c-0.8,0-9.1,0-9.1,0
			v-4.4h1v-1.4h-14.9v-1.5h-2.8v-0.9h-5.9v2.5H476v1.4h1.2v17.8c0,0-1.8,0.6-1.8,0c0-0.6,0-28.6,0-28.6h-2.6l-5.7,5.2h-10v-3.4h1.4
			v-1h-5.5v1.4h-3v52.8h419.2v-57.1h-4.4V311.3z"/>
		<polygon class="st6" points="860.5,308.7 860.5,308.4 859.1,308.4 859.1,307.6 858.7,307.6 858.7,308.4 857.3,308.4 857.3,308.7 
			858.7,308.7 858.7,309.3 857.3,309.3 857.3,309.8 858.7,309.8 858.7,312.7 859.1,312.7 859.1,309.8 860.5,309.8 860.5,309.3 
			859.1,309.3 859.1,308.7 		"/>
		<polygon class="st7" points="679,336 679,335.6 677.6,335.6 677.6,334.8 677.1,334.8 677.1,335.6 675.7,335.6 675.7,336 
			677.1,336 677.1,336.5 675.7,336.5 675.7,337.1 677.1,337.1 677.1,340.1 677.6,340.1 677.6,337.1 679,337.1 679,336.5 
			677.6,336.5 677.6,336 		"/>
		<polygon class="st7" points="525.6,336.9 524.1,336.9 524.1,336.2 525.6,336.2 525.6,335.5 524.1,335.5 524.1,334.5 523.7,334.5 
			523.7,335.5 522.2,335.5 522.2,336.2 523.7,336.2 523.7,336.9 522.2,336.9 522.2,337.5 523.7,337.5 523.7,340 524.1,340 
			524.1,337.5 525.6,337.5 		"/>
		<polygon class="st7" points="777.8,344.2 776.4,344.2 776.4,343.2 776.1,343.2 776.1,344.2 774.6,344.2 774.6,344.8 776.1,344.8 
			776.1,348.4 776.4,348.4 776.4,344.8 777.8,344.8 		"/>
		<path id="front" class="st7" d="M874.2,317.5h-10.8v3.5H849v1.5h1v21.1h-3.1v-34.8h1.4v-1h-3.9v-3.2h0.9v-1.2h-8v4.7h-1.5V306H832
			v1.8h-13v1.1h1.3v26.7l-7,5.3v10h-2.5l-6.1-3.8l-5.2-0.1v-0.8h-3.1v1.3l-1.2-0.1v3.5h-1.4V347h-3.9v1.4h-2.6v2.9h-3.5l-4-1.7v1.7
			h-1.7V347h-6.8v-5.4h-2.7v-1.3h-1.5v-0.6h-5.6v1.1h-1.8v1.1h-9.2v-3.9h-9v0.9h1v2.9h-3.1v4.1h-5.2v-1.6h-6.6v-23.5h1.4v-1.9h-11.7
			v-1.9h-4v2.2h-1.8v-3.4h1.4v-1.2h-9.7v1.2h1.2v2.9H700v1.6h1.3v31.3H693V339h-1.7c0,0,0.5-2.4,0-2.4s-4.5,0-4.5,0v0.9h-4.2v1.4
			h-8.9v-3.5h1v-1h-9.2v0.9h0.8v3.4h-1.5v1.2h-3l-8.7,7.6v2.3h-1.5v-1H645v0.9h-4.2v0.5h0.9v3.2h-2.5v-1.6h-1.6v-1
			c0,0-3.9-0.1-4.1,0s0,1.5,0,1.5H630v8.3h-1.5v-23.3h-7.2L600,356.1v-9.7h1.3v-1.5h-9.8v-2.3h-8v-1.4h-8.1v3.8h-3.6v1.3h1.3v15.2
			h-3.9v-29.1h1.1v-1.8h-1.1v-1h-8.5v-0.9h-3.8v-0.6h-4.3v1.6h-2.3v1.1h-1.2v1.6h1.2v29.1h-4.1v-9l-14.8-8.2v-1.9h-3.6v-3h0.5v-0.8
			h-12l0.9,1.2v3.1h-8.9v-5.3h0.6v-1.8h-10.1V334h-4v1.9h-1.5v-1.6h-3.8v1.5h-2.2v1.4h0.9v29.6l-14.8-9.7V352h1v-1.6H467v-1.6h-3.4
			v1.8h-1.1v-1.5h-2.7v1.4h-1v-3.6h1.1V346h-14.2v27.8h428.4V317.5z"/>
	</g>
	<rect x="444.6" y="215" class="st8" width="211.4" height="167.4"/>
	<path class="st9" d="M457.4,224.3v149.1h199.1V224.3H457.4z M468.2,367.3V230.1h178.6v137.2H468.2z"/>
	<g id="glare_4_">
		<g>
			
				<linearGradient id="SVGID_1_" gradientUnits="userSpaceOnUse" x1="633.9833" y1="327.4318" x2="572.4133" y2="382.9317" gradientTransform="matrix(1 0 0 1 0 -88)">
				<stop  offset="0" style="stop-color:#FFFFFF;stop-opacity:0.89"/>
				<stop  offset="1" style="stop-color:#FFFFFF;stop-opacity:0"/>
			</linearGradient>
			<path class="st10" d="M537.6,235.5c0,0.4,0,0.9,0,1.3c0,48.3,45,87.4,100.5,87.4c0.9,0,1.8,0,2.7-0.1v-88.7L537.6,235.5
				L537.6,235.5z"/>
		</g>
	</g>
	<g id="right_window">
		<path class="st8" d="M750.7,273.8l-3.6,10.3v38.4c-0.9,0-1.8,0.1-2.7,0.1c-55.5,0-100.5-39.1-100.5-87.4c0-0.4,0-0.9,0-1.3h41.4
			l2-3.1l7.2,3.1H710l11.4-4.1H570.3V367h180.4L750.7,273.8L750.7,273.8z"/>
		<polygon class="st8" points="747.1,256.3 750.7,257.6 750.7,238.3 747.1,243.3 		"/>
		<polygon class="st8" points="747.1,233.8 747.1,235.6 750.7,235.7 750.7,229.7 727.8,229.7 728.6,233.8 		"/>
		<polygon class="st8" points="750.7,271.8 750.7,262.5 748.1,268.8 		"/>
		<path class="st9" d="M559.4,224v149.1h201.1V224H559.4z M758.4,369.4H562.2V226.1h196.2V369.4z"/>
		<path class="st9" d="M562.2,369.4h196.2V226.1H562.2V369.4z M570.3,229.7h151.3l5.9-2.1l0.4,2.1h22.9v6l1.8,0.1l-1.8,2.5v19.2
			l1.8,0.7l-1.8,4.3v9.3l0.5,0.6l-0.5,1.4v93.1H570.3V229.7z"/>
		<path class="st8" d="M740.3,295.8l-15.5,6.6V284l-6.9-11.8l-2.3,7.6l-15.8,6.3h-2.3l2.3-26h-16.6l-2.9-3.3l8.9-13.2l-8.9-1.6
			l5.2-8H644c0,0.4,0,0.9,0,1.3c0,48.3,45,87.4,100.5,87.4c0.9,0,1.8,0,2.7-0.1v-38.4l-6.8,19.6v-8L740.3,295.8L740.3,295.8z"/>
		
			<linearGradient id="SVGID_2_" gradientUnits="userSpaceOnUse" x1="740.4626" y1="325.8605" x2="678.8923" y2="381.3604" gradientTransform="matrix(1 0 0 1 0 -88)">
			<stop  offset="0" style="stop-color:#FFFFFF;stop-opacity:0.89"/>
			<stop  offset="1" style="stop-color:#FFFFFF;stop-opacity:0"/>
		</linearGradient>
		<path class="st11" d="M740.3,295.8l-15.5,6.6V284l-6.9-11.8l-2.3,7.6l-15.8,6.3h-2.3l2.3-26h-16.6l-2.9-3.3l8.9-13.2l-8.9-1.6
			l5.2-8H644c0,0.4,0,0.9,0,1.3c0,48.3,45,87.4,100.5,87.4c0.9,0,1.8,0,2.7-0.1v-38.4l-6.8,19.6v-8L740.3,295.8L740.3,295.8z"/>
		<polygon class="st8" points="747.1,235.6 747.1,233.8 728.6,233.8 728.8,234.9 		"/>
		
			<linearGradient id="SVGID_3_" gradientUnits="userSpaceOnUse" x1="737.7196" y1="322.8175" x2="676.1494" y2="378.3174" gradientTransform="matrix(1 0 0 1 0 -88)">
			<stop  offset="0" style="stop-color:#FFFFFF;stop-opacity:0.89"/>
			<stop  offset="1" style="stop-color:#FFFFFF;stop-opacity:0"/>
		</linearGradient>
		<polygon class="st12" points="747.1,235.6 747.1,233.8 728.6,233.8 728.8,234.9 		"/>
		<polygon class="st8" points="710.2,233.8 694.7,233.8 701.7,236.9 		"/>
		
			<linearGradient id="SVGID_4_" gradientUnits="userSpaceOnUse" x1="721.4026" y1="304.716" x2="659.8324" y2="360.2159" gradientTransform="matrix(1 0 0 1 0 -88)">
			<stop  offset="0" style="stop-color:#FFFFFF;stop-opacity:0.89"/>
			<stop  offset="1" style="stop-color:#FFFFFF;stop-opacity:0"/>
		</linearGradient>
		<polygon class="st13" points="710.2,233.8 694.7,233.8 701.7,236.9 		"/>
		<polygon class="st8" points="747.1,256.3 747.1,243.3 739.7,253.6 		"/>
		
			<linearGradient id="SVGID_5_" gradientUnits="userSpaceOnUse" x1="749.3757" y1="335.7486" x2="687.8056" y2="391.2485" gradientTransform="matrix(1 0 0 1 0 -88)">
			<stop  offset="0" style="stop-color:#FFFFFF;stop-opacity:0.89"/>
			<stop  offset="1" style="stop-color:#FFFFFF;stop-opacity:0"/>
		</linearGradient>
		<polygon class="st14" points="747.1,256.3 747.1,243.3 739.7,253.6 		"/>
	</g>
	<path class="st15" d="M444.8,214.7V384h429.4V214.7H444.8z M860.1,373.8H457v-149h403.1V373.8z"/>
	<g id="borderv_2_">
		<path class="st16" d="M860.6,225.3v147.4H458.4V225.3H860.6 M861.6,224.3H457.4v149.4h404.2V224.3L861.6,224.3z"/>
	</g>
	<path id="handle_2_" class="st17" d="M565.5,308.8h-0.2c-1.2,0-2.2-1-2.2-2.2v-26.4c0-1.2,1-2.2,2.2-2.2h0.2c1.2,0,2.2,1,2.2,2.2
		v26.4C567.7,307.8,566.7,308.8,565.5,308.8z"/>
	<g id="men_1_">
		<g>
			<path class="st18" d="M983.8,360.2h-1c-5.2,0-9.4-4.2-9.4-9.4v-11c0-5.2,4.2-9.4,9.4-9.4h1c5.2,0,9.4,4.2,9.4,9.4v11
				C993.2,356,988.9,360.2,983.8,360.2z"/>
			<path class="st19" d="M1008.7,330.6c-1.7,7.2-14.4,25.7-26.9,23.5c-11.7-2.1-15.2-24.7-13.8-30.8L1008.7,330.6z"/>
			<path d="M1011,330.9l-55.9-9.8c-1-0.2-1.6-1-1.4-1.9l0,0c0.2-0.9,1.2-1.4,2.2-1.2l55.9,9.8c1,0.2,1.6,1,1.4,1.9l0,0
				C1013,330.5,1012,331,1011,330.9z"/>
			<path class="st20" d="M1008.3,312.8c-1.9,2.4-6,4.5-7.6,4.7c0.1-0.3,0,0,0.1-0.4c2.9-1.3,5.1-4.7,5.8-6.3
				c-3.2-3.1-7.5-5.4-12.6-6.3s-10.2-0.3-14.5,1.6c-0.1,1.6,0.4,5.5,2.4,7.7c-0.1,0.4,0,0.1-0.1,0.4c-1.4-0.7-4.2-4-4.8-6.8
				c-4.9,2.8-8.6,7.1-9.9,12.5c20.7,3.6,23.3,4.1,44.7,7.8C1013,322.3,1011.6,317,1008.3,312.8z"/>
		</g>
		<path id="right_shoe_3_" class="st21" d="M976.8,564.7c0,0-37.4,0-39.2,0c0-1.5,0-9.7,11.5-9.7c9.2,0,27.8,0,27.8,0L976.8,564.7
			L976.8,564.7z"/>
		<path id="left_shoe_3_" class="st21" d="M1015.2,555c0,3.2,0,9.7,0,9.7h-25.8V555H1015.2z"/>
		<g id="uper_body_1_">
			<path id="arm_right_5_" class="st19" d="M1035.1,345.3c11.7-9.1,17.9-20.7,17.7-30.4c0-3.2,2.3-7.7,9.5-8
				c4.5,0,12.4,3.1,10.5,16.9s-11.4,24.7-24.3,33.6C1043,351.9,1035.1,345.3,1035.1,345.3z"/>
			<path id="arm_right_4_" class="st19" d="M928.9,347.5c-11.7-9.1-17.9-20.7-17.7-30.4c0-3.2-2.3-7.7-9.5-8
				c-4.5,0-12.4,3.1-10.5,16.9s11.4,24.7,24.3,33.6C921,354.2,928.9,347.5,928.9,347.5z"/>
			<path class="st22" d="M1031.7,346.1c0,0-11.3,7-18.8,8.4c-0.6,0.1-1.2,0.2-1.8,0.5c-3.5-3.4-6.8-3.4-11.9-3.4
				c-5.2,0-7.5,0.1-7.5,0.1l-9.1,8.5l-8.8-8.5c0,0-3.2,0-7,0c-3.2,0-7.3-1.2-11.7,3.3c-0.3,0.3-1.1,1.3-2,2.5
				c-0.8-0.3-1.5-0.5-2.2-0.6c-7.5-1.4-18.8-8.4-18.8-8.4s-12.3,7.6-17.3,11.1c3.4,4.9,18.9,10.6,18.9,10.6c5.1,2.2,11.4,4,16.5,3.4
				v14c0,10.6,0,25,0,31.7c0,2.3,0,3.8,0,3.8l35.7-16.1l28.9,15.1c0,0,0.1-39.8,0.2-50.6c4.9,0.2,10.4-1.5,15.1-3.5
				c0,0,15.4-5.7,18.9-10.6C1044.1,353.6,1031.7,346.1,1031.7,346.1z"/>
			<polygon id="cuff_right_5_" class="st23" points="1055,356.5 1037.2,339.1 1027.2,346.4 1044.9,363.8 			"/>
			<polygon id="cuff_right_4_" class="st23" points="909,358.7 926.7,341.3 936.7,348.6 919,366 			"/>
		</g>
		<rect id="cuff_left_7_" x="986" y="543.2" class="st24" width="32.6" height="12.2"/>
		<rect id="cuff_left_6_" x="946.3" y="543.2" class="st24" width="32.6" height="12.2"/>
		<path id="overalls_3_" class="st24" d="M1022.1,465.1h-6.8v-16v-29.3l-13.4-10.6v-57.6h-7.2v23.6h-25.4v-23.6h-6.8l-0.3,58.6
			L950,420.4v28.3v16.4h-6.8v22.6h6.8v57.1h25.7c0,0,0-69.7,0-71.9c0-2.2,1.3-6.7,6.9-6.7s6.5,6.3,6.5,8.2c0,1.8,0,70.4,0,70.4h26.3
			v-57.1h6.8v-22.6L1022.1,465.1L1022.1,465.1z"/>
		<polygon id="right_pocket_1_" class="st25" points="1015.3,428.9 1003.3,418.6 1001.2,420.4 1014.3,431.7 1015.3,430.8 		"/>
		<polygon id="left_pocket_1_" class="st25" points="962.7,420.3 949.9,430.1 949.9,432 950.9,432.9 964.7,422.3 		"/>
		<rect id="middle_chest_pocket_1_" x="969.9" y="380.7" class="st25" width="24.2" height="2.6"/>
	</g>
	<g id="wheel_roller_3_">
		<g>
			<path class="st26" d="M869.6,213.4c0,5.8,4.7,10.5,10.5,10.5s10.5-4.8,10.4-10.6s-4.7-10.5-10.5-10.5
				C874.3,202.9,869.6,207.6,869.6,213.4z M878.1,213.4c0-1.1,0.9-2.1,2-2.1s2,0.9,2.1,2c0,1.1-0.9,2.1-2,2.1
				C879,215.4,878.1,214.5,878.1,213.4z"/>
			<path class="st27" d="M880.1,202.3c6.1,0,11,4.9,11.1,11c0,6.1-4.9,11.1-10.9,11.1c-6.1,0-11-4.9-11.1-11S874,202.3,880.1,202.3z
				 M880.1,203.3c-5.5,0-9.9,4.5-9.9,10.1s4.5,10,10,10s9.9-4.5,9.9-10.1S885.6,203.3,880.1,203.3z M880.1,210.8
				c1.4,0,2.6,1.1,2.6,2.6c0,1.4-1.1,2.6-2.5,2.6s-2.6-1.1-2.6-2.6C877.6,212,878.7,210.8,880.1,210.8z M880.1,211.8
				c-0.8,0-1.5,0.7-1.5,1.5s0.7,1.5,1.5,1.5s1.5-0.7,1.5-1.5S881,211.8,880.1,211.8z"/>
		</g>
		<g id="wheel_circle_center_3_">
			<path class="st27" d="M880.1,208.2c2.8,0,5.2,2.3,5.2,5.2s-2.3,5.2-5.1,5.2s-5.2-2.3-5.2-5.2S877.3,208.2,880.1,208.2z
				 M880.1,209c-2.4,0-4.3,2-4.3,4.4s2,4.3,4.4,4.3s4.3-2,4.3-4.4C884.5,210.9,882.5,209,880.1,209z"/>
		</g>
		<path class="st28" d="M893.6,201.5l-16.7,4.4l0.7,8.8l1.9,1.8l14.2-0.5v-14.5H893.6z M880.3,211.4c1.1,0,1.9,0.9,1.9,1.9
			c0,1.1-0.9,2-1.9,2c-1.1,0-1.9-0.9-1.9-1.9C878.4,212.3,879.3,211.4,880.3,211.4z"/>
	</g>
	<g id="wheel_roller_2_">
		<g>
			<path class="st26" d="M877.9,494.1c6.4,0.1,11.7-5,11.8-11.4c0.1-6.5-4.9-11.8-11.3-11.9c-6.4-0.1-11.7,5-11.8,11.4
				S871.5,494,877.9,494.1z M878.2,480.2c1.2,0,2.2,1.1,2.2,2.3c0,1.3-1.1,2.3-2.3,2.2s-2.2-1.1-2.2-2.3S876.9,480.2,878.2,480.2z"
				/>
			<path class="st27" d="M866,482.2c0.1-6.8,5.7-12.1,12.4-12s12,5.8,11.9,12.5c-0.1,6.8-5.7,12.1-12.4,12
				C871.1,494.6,865.8,489,866,482.2z M889.1,482.7c0.1-6.1-4.7-11.2-10.8-11.4c-6.1-0.1-11.1,4.7-11.3,10.9
				c-0.1,6.1,4.7,11.2,10.8,11.4C883.9,493.7,889,488.8,889.1,482.7z M875.3,482.4c0-1.6,1.3-2.8,2.9-2.8s2.8,1.3,2.8,2.9
				s-1.3,2.8-2.9,2.8S875.2,484,875.3,482.4z M879.8,482.5c0-0.9-0.7-1.7-1.6-1.7c-0.9,0-1.7,0.7-1.7,1.7s0.7,1.7,1.6,1.7
				C879,484.2,879.8,483.4,879.8,482.5z"/>
		</g>
		<g id="wheel_circle_center_2_">
			<path class="st27" d="M872.4,482.3c0.1-3.2,2.7-5.7,5.8-5.6s5.6,2.7,5.6,5.9c-0.1,3.2-2.7,5.7-5.8,5.6
				C874.8,488.1,872.3,485.5,872.4,482.3z M882.9,482.6c0.1-2.7-2-4.9-4.7-4.9c-2.6-0.1-4.8,2.1-4.9,4.7c-0.1,2.7,2,4.9,4.7,4.9
				C880.6,487.3,882.8,485.2,882.9,482.6z"/>
		</g>
		<path class="st28" d="M893.1,479.8l-15.7-0.8l-2.1,2l-0.9,9.8l18.4,5.2L893.1,479.8z M876.2,482.4c0-1.2,1-2.1,2.2-2.1
			s2.1,1,2.1,2.2s-1,2.1-2.2,2.1S876.2,483.6,876.2,482.4z"/>
	</g>
	<g id="window_front_1_">
		<rect id="window_glass_1_" x="901.1" y="182.3" class="st8" width="162.5" height="327.3"/>
		<path id="border_1_" class="st15" d="M1073,169.8H890v353.4h183V169.8z M903,182.3h158.7v327.5H903V182.3z"/>
		<path id="handle_1_" class="st17" d="M967,176.1v-0.2c0-1.3,1-2.3,2.3-2.3h34.3c1.3,0,2.3,1,2.3,2.3v0.2c0,1.3-1,2.3-2.3,2.3
			h-34.3C968.1,178.4,967,177.4,967,176.1z"/>
		<g id="glare_3_">
			<g>
				
					<linearGradient id="SVGID_6_" gradientUnits="userSpaceOnUse" x1="1705.0746" y1="493.4561" x2="1617.5505" y2="572.351" gradientTransform="matrix(4.489700e-11 -1 -1 -4.489700e-11 1544.6295 1906.1642)">
					<stop  offset="0" style="stop-color:#FFFFFF;stop-opacity:0.89"/>
					<stop  offset="1" style="stop-color:#FFFFFF;stop-opacity:0"/>
				</linearGradient>
				<path class="st29" d="M1053.6,340c-0.6,0-1.1,0.1-1.7,0.1c-64.8,0-117.3-66.1-117.3-147.5c0-1.3,0.1-2.6,0.1-3.9h118.9V340z"/>
			</g>
		</g>
	</g>
	<g>
		<path id="right_shoe_2_" class="st21" d="M619.2,454.5c0,0,28.9,0,30.3,0c0-1.4,0-8.7-8.9-8.7c-7.1,0-21.5,0-21.5,0v8.7H619.2z"/>
		<path id="left_shoe_2_" class="st21" d="M589.5,445.8c0,2.9,0,8.7,0,8.7h20v-8.7H589.5z"/>
		<g>
			<path class="st18" d="M614.6,301.8h-0.8c-4,0-7.3-3.3-7.3-7.3v-12.3c0-4,3.3-7.3,7.3-7.3h0.8c4,0,7.3,3.3,7.3,7.3v12.3
				C621.9,298.5,618.6,301.8,614.6,301.8z"/>
			<path class="st19" d="M630.3,272c0,6.6-6.3,24.9-16.1,24.9c-9.3,0-16-19.4-16-25L630.3,272z"/>
			<path d="M638.7,271.8H597c-0.7,0-1.4-0.6-1.4-1.4v-0.1c0-0.7,0.6-1.4,1.4-1.4h41.6c0.7,0,1.4,0.6,1.4,1.4v0.1
				C640,271.2,639.4,271.8,638.7,271.8z"/>
			<path class="st20" d="M626.8,256.3c-1,2.4-3.7,4.9-4.9,5.3c0-0.3,0,0,0-0.4c2-1.6,3-4.9,3.2-6.4c-3-2.2-6.6-3.6-10.6-3.6
				s-7.7,1.4-10.7,3.6c0.2,1.5,1.3,4.8,3.2,6.4c0,0.4,0,0.1,0,0.4c-1.2-0.4-3.9-2.9-4.9-5.3c-3.2,3.2-5.2,7.6-5.2,12.5
				c16.3,0,18.4,0,35.3,0C632.1,264,630.1,259.5,626.8,256.3z"/>
		</g>
		<path id="shirt_1_" class="st22" d="M632.2,295c0,0-9,0-10.8,0c-1.8,1.5-7,6.5-7,6.5s-5.7-5.2-7-6.5c-1.7,0-6.8,0-10.3,0
			c-3,1-6.7,3.2-6.7,5c-1.8,0-2.7-0.2-4.5-0.2c-6.2,2-16,17.3-16,27.1c4.5,0,13.8,0,15.4,0c0.9-4,1.9-6.5,3.8-8.2
			c0,3.5,0,38.8,0,38.8h50.4v-42.4c0,0,6.7,10.8,11.1,12.6c2.3-4.2,7.2-14.3,7.2-14.3s-7.2-7.3-9.1-12.6c-1-2.8-4.5-6.8-11.6-3
			C635,296.1,632.2,295,632.2,295z"/>
		<path id="arm_left_1_" class="st19" d="M583.1,332.7c0.4,11.9,4.8,21.5,11.4,26.9c2.6,2.3,3.7,6.4,0.8,10
			c-3.2,3.4-9.8,5.5-16.5-3.8c-7.2-10-11-20.9-10.8-33.4C574.4,332.6,583.1,332.7,583.1,332.7z"/>
		<rect id="cuff_bottom_right_1_" x="586.6" y="435.8" class="st24" width="25.2" height="11"/>
		<rect id="cuff_left_5_" x="616.8" y="435.8" class="st24" width="25.2" height="11"/>
		<rect id="cuff_left_4_" x="566.3" y="325.3" class="st23" width="20.3" height="10"/>
		<path id="arm_right_3_" class="st19" d="M661,316.1c10.9,5.5,22.4,6.1,30.4,2.8c2.7-1,7.1-0.9,9.3,4.2c1.3,3.3,0.8,10-11.2,13.1
			c-12.1,3.1-23.9-0.2-35-6.5C657.7,324,661,316.1,661,316.1z"/>
		<polygon id="cuff_right_1_" class="st23" points="655.4,332.7 665,314.3 656,309.4 646.4,327.9 		"/>
		<path id="overalls_2_" class="st24" d="M589.5,439.1h19.8c0,0,0-52.3,0-53.9s1-5,5.4-5s5,4.7,5,6.1s0,52.8,0,52.8H640v-83.5
			l-10.4-10v-50.7h-6V315h-19.2v-20.1h-5.2l-0.2,51.4l-9.5,9.6L589.5,439.1L589.5,439.1z"/>
		<polygon class="st25" points="640,364.9 630.5,355.3 628.8,357 638.9,367.1 640,366.1 		"/>
		<polygon class="st25" points="599.6,356.4 589.5,365.4 589.5,366.6 590.5,367.7 601.1,358.1 		"/>
		<rect x="604.1" y="318.9" class="st30" width="20.3" height="3.4"/>
	</g>
	<g>
		<path class="st31" d="M1117.3,322.3c-0.1,14.2,7.7,25.6,12.7,37.9c4,9.8,7.3,19.7,5.5,30.6c-0.1,0.6-0.2,1.1-0.3,1.7
			c-1.5,7-1.9,7.3-9,7.2c-4.1-0.1-5.5-0.2-9.2-0.2c-1.4,0-2.8-0.4-3.2-1.7c-5.1-24.4-6.9-48.7,2.2-72.7
			C1116.4,324.1,1116.9,323.2,1117.3,322.3z"/>
		<path class="st31" d="M1137.1,399.8c0.7-3.3,1.5-6.2,1.9-9.1c0.7-5.6,0.2-10.3-1.3-16.1c-0.6-3.3-0.8-6,0.8-9.2
			c3.5-7.1,4.1-14.8,4.3-22.6c0-1.5,0-2.9,0.4-4.4c5.4,5.9,7.2,13.1,8,20.6c1.4,12.9-0.7,25.5-3.6,38.1c-0.5,2.2-1.4,2.9-3.8,2.8
			C1141,399.9,1139.4,399.8,1137.1,399.8z"/>
		<path class="st31" d="M1130.7,312.4c11,15.8,9.5,32.8,4.1,51.3c-1.3-2.9-2-4.7-3.1-7.1c-2.9-6.2-3.5-12-2.5-18.6
			C1130.3,329.6,1130.3,321,1130.7,312.4z"/>
		<path class="st32" d="M1159.2,410.8c-1.7,10.8-3.4,21.3-4.9,31.8c-0.3,2.3-1.8,2-3.3,2c-9.8-0.1-19.6-0.3-29.4-0.4
			c-4.5-0.1-9-0.2-13.5-0.2c-2.1,0-3.1-0.5-3.4-2.7c-1.2-10.3-2.6-20.6-4-31.3C1120.2,410.2,1139.5,410.5,1159.2,410.8z"/>
		
			<linearGradient id="SVGID_7_" gradientUnits="userSpaceOnUse" x1="844.5834" y1="511.4899" x2="860.0688" y2="511.4899" gradientTransform="matrix(2.1331 1.533086e-02 1.533086e-02 1.0002 -691.9504 -97.3621)">
			<stop  offset="0" style="stop-color:#432E5B"/>
			<stop  offset="0.2055" style="stop-color:#452F5E;stop-opacity:0.8849"/>
			<stop  offset="0.3647" style="stop-color:#4B3468;stop-opacity:0.7957"/>
			<stop  offset="0.5079" style="stop-color:#553B78;stop-opacity:0.7155"/>
			<stop  offset="0.625" style="stop-color:#61448C;stop-opacity:0.65"/>
			<stop  offset="1" style="stop-color:#432E5B"/>
		</linearGradient>
		<path class="st33" d="M1153.9,410.6c-1,10.8-2.1,21.3-3,31.8c-0.2,2.3-1,2-1.8,2c-5.5-0.1-11.1-0.1-16.6-0.2
			c-2.5,0-5.1-0.2-7.6-0.1c-1.2,0-1.7-0.5-1.9-2.7c-0.6-10.3-1.3-20.6-2-31.2C1131.8,410.3,1142.7,410.4,1153.9,410.6z"/>
		
			<linearGradient id="SVGID_8_" gradientUnits="userSpaceOnUse" x1="1094.5754" y1="492.8507" x2="1165.6" y2="492.8507" gradientTransform="matrix(1 0 0 1 0 -88)">
			<stop  offset="0" style="stop-color:#000028"/>
			<stop  offset="0.4062" style="stop-color:#030029;stop-opacity:0.7724"/>
			<stop  offset="0.6247" style="stop-color:#09002A;stop-opacity:0.65"/>
			<stop  offset="1" style="stop-color:#000028"/>
		</linearGradient>
		<path class="st34" d="M1129.9,399.1c10.7,0.1,21.5,0.3,32.2,0.4c2.4,0,3.5,0.4,3.5,3.2c-0.1,8.4,0,8.3-8.5,8.2
			c-19.4-0.3-38.8-0.5-58.2-0.7c-4.4-0.1-4.4-0.1-4.3-4.6c0.1-6.9,0.1-6.9,6.9-6.8C1110.9,398.8,1120.4,398.9,1129.9,399.1z"/>
	</g>
	<g id="right_window_2_">
		<g id="right_window_3_">
			<g>
				<g>
					<g>
						<path class="st5" d="M1338.7,342.8c3.8,0.1,5.7,0.1,9.4,0.2c-0.1,3.6-0.1,5.3-0.1,8.9c3.8,0.3,5.7,0.4,9.6,0.7
							c0-2.5,0.1-3.8,0.1-6.3c2.1,0.1,3.1,0.2,5.2,0.3c0.1-8.7,0.2-13.1,0.4-21.8c0.8-0.8,1.4-1.5,2-2.2c-3.2,0-6,0.1-10.2,0.1
							c0,0.3,0,0.5,0,0.9c0.7,0,1,0,1.7,0c0,2.4-0.1,3.6-0.1,6c-5.2,0-7.8,0-13.1,0c0-1.1,0-1.7,0.1-2.8c-2.2,0-3.4,0-5.6,0
							c0-0.6,0-0.9,0-1.5c-2.4,0-3.6,0-6,0c0,1.5,0,2.2-0.1,3.7c-1.6,0-2.3,0-3.9,0c0,1,0,1.5,0,2.5c0.8,0,1.2,0,2,0
							c0,2.6-0.1,4.5-0.1,6.5c0.5,0,1.1,0,1.7,0C1334.5,339.9,1335.9,340.9,1338.7,342.8z"/>
						<path class="st5" d="M1524,287.2c0.6-0.2,0.9-0.3,1.5-0.4c0-1.4,0.1-2.1,0.1-3.5c-0.6,0-0.9,0.1-1.5,0.1c0-1.1,0-1.7,0.1-2.8
							c-1.1,0.1-1.6,0.1-2.7,0.2c0-1.4,0.1-2.1,0.1-3.5c-2.1,0.2-3.2,0.2-5.3,0.4c0,1.1,0,1.6-0.1,2.6c-2.2,0.2-3.2,0.2-5.4,0.4
							c0,1,0,1.5-0.1,2.5c-4.6,0.3-6.9,0.5-11.5,0.8c0,0.9,0,1.4-0.1,2.3c-0.8,0.1-1.3,0.1-2.1,0.1c0,1.5-0.1,2.2-0.1,3.7
							c0.7,0,1.1-0.1,1.8-0.1c-0.2,11-0.4,21.9-0.5,32.9c8.3-0.1,16.7-0.2,25-0.2C1523.4,310.7,1523.7,298.9,1524,287.2z"/>
						<path class="st5" d="M1411.3,347.7c0,3.1-0.1,4.6-0.1,7.7c3.8,0.2,5.7,0.3,9.6,0.4c0.1-4.3,0.1-6.4,0.1-10.7
							c3.4,0.2,5.1,0.4,8.5,0.6c2.7-1.9,4-2.9,6.7-4.8c2.6,0,3.9,0.1,6.4,0.1c0-0.7,0-1.1,0-1.9c1.5,0,2.2,0,3.7,0.1
							c0,2.9-0.1,4.4-0.1,7.4c0.8,0,1.2,0,1.9,0.1c0-3,0.1-4.5,0.1-7.6c1.7,0,2.6,0,4.3,0.1c0,1,0,1.5,0,2.5c1.3,0,2,0,3.3,0.1
							c-0.2,10.3-0.3,20.7-0.4,31c6.9,0.5,10.3,0.7,17.2,1.2c6.5-8.7,12.9-17.4,19.3-26.3c0.2-10,0.3-20,0.5-29.9c0.8,0,1.1,0,1.9,0
							c0-1.8,0.1-2.7,0.1-4.5c-1.9,0-2.9,0.1-4.8,0.1c0.1-2.7,0.1-4,0.1-6.7c-3.9,0.1-5.9,0.2-9.8,0.3c0,1.5,0,2.3-0.1,3.8
							c-4.6,0.1-6.9,0.2-11.6,0.3c0,1.1,0,1.7-0.1,2.9c-5.4,0.1-8,0.2-13.4,0.3c0,1.1,0,1.7-0.1,2.8c0.7,0,1,0,1.7,0
							c-0.1,6.2-0.2,9.3-0.3,15.4c-4.6,0-6.9,0-11.6-0.1c-5.2-6.8-10.5-13.5-15.9-20.1c0-1.1,0-1.7,0.1-2.8
							c-4.5,0.1-6.7,0.2-11.2,0.4c-0.2,12.2-0.5,24.4-0.7,36.6c-1.1,0-1.6,0-2.7-0.1c0.1-5.9,0.1-8.9,0.2-14.8c-3.3,0-5.3,0-8.1,0
							c-0.1,5.4-0.2,10.8-0.3,16.1C1408.3,347.6,1409.3,347.6,1411.3,347.7z"/>
						<path class="st6" d="M1530.8,325.1c0.2-0.1,0.4-0.3,0.6-0.4c0-0.7,0-1.4,0-2.3c-2.8,0-5.5,0.1-8.3,0.1c0,0.9,0,1.8-0.1,2.7
							C1526.2,325.1,1527.8,325.1,1530.8,325.1z"/>
						<path class="st6" d="M1329.9,344.3c0-2.5,0.1-4.4,0.1-6.3c-1,0-1.8,0-3-0.1c0-0.6,0-0.8,0-1.4c-1.8,0-2.7,0-4.5-0.1
							c0,2.3-0.1,3.5-0.1,5.8c-1,0-1.4,0-2.4-0.1c0-1.9,0-2.8,0.1-4.7c-0.7,0-1.3,0-1.8,0c0,2.1-0.1,4.3-0.1,6.4
							C1322.8,344.1,1325.2,344.2,1329.9,344.3z"/>
						<path class="st6" d="M1497.9,352.1c0.1-9.8,0.2-19.6,0.4-29.4c-0.7,0-1.4,0-2.1,0c0,1.5,0,2.3-0.1,3.9c0.7,0,1.1,0,1.8,0
							c-0.1,5.2-0.1,7.8-0.2,13c-1.9,2.7-3.8,5.3-5.7,7.9c0,1.4-0.1,2.9-0.1,4.3C1494.3,351.9,1495.5,352,1497.9,352.1z"/>
						<path class="st6" d="M1371.6,331.3c10.8,0,21.7,0.1,32.5,0.1c0.9,0,1.7,0,2.4,0c0.1-5.3,0.2-10.7,0.3-16
							c-4.1,0.1-6.2,0.1-10.3,0.2c0-2.1,0.1-3.1,0.1-5.2c0.7,0,1.1,0,1.8-0.1c0-0.8,0-1.1,0-1.9c-6.6,0.2-9.9,0.3-16.5,0.6
							c0,0.7,0,1.1,0,1.9c0.6,0,0.9,0,1.5,0c0,2.1-0.1,3.2-0.1,5.3c-4.9,0.1-7.4,0.2-12.3,0.3c-2.4,2.6-3.8,4.2-5.8,6.3
							c1.9,0,4,0,6.5-0.1C1371.7,326.1,1371.6,327.8,1371.6,331.3z"/>
					</g>
					<path id="front_1_" class="st7" d="M1497.5,378.4c0.2-16.4,0.4-32.8,0.7-49.1"/>
					<g>
						<path class="st5" d="M1529.3,326c-0.2,11.7-0.4,23.3-0.5,35c2.7,0.1,4,0.2,6.7,0.3c-0.1,7.6-0.1,11.4-0.2,18.9
							c0.1,0,0.1,0,0.2,0V322c-1.2,0.8-2.5,1.7-4.1,2.7c0,0.4,0,0.8,0,1.3C1530.6,326,1530.2,326,1529.3,326z"/>
						<path class="st6" d="M1535.3,380.2c0.1-7.6,0.1-11.4,0.2-18.9c-2.7-0.1-4-0.2-6.7-0.3c0.2-11.7,0.3-23.3,0.5-35
							c0.8,0,1.3,0,2.1,0c0-0.5,0-0.9,0-1.3c-0.2,0.1-0.4,0.3-0.6,0.4c-3.1,0-4.6,0-7.7,0c0-0.9,0-1.8,0.1-2.7
							c-8.3,0.1-16.7,0.2-25,0.2c-0.1,9.8-0.3,19.6-0.4,29.4c-2.4-0.1-3.6-0.1-6-0.2c0-1.4,0.1-2.9,0.1-4.3
							c-6.4,8.8-12.8,17.6-19.3,26.3c-6.9-0.5-10.3-0.7-17.2-1.2c0.1-10.3,0.2-20.7,0.4-31c-1.3,0-2,0-3.3-0.1c0-1,0-1.5,0-2.5
							c-1.7,0-2.6,0-4.3-0.1c0,3-0.1,4.5-0.1,7.6c-0.8,0-1.2,0-1.9-0.1c0-2.9,0.1-4.4,0.1-7.4c-1.5,0-2.2,0-3.7-0.1
							c0,0.7,0,1.1,0,1.9c-2.6,0-3.9-0.1-6.4-0.1c-2.7,2-4,2.9-6.7,4.8c-3.4-0.2-5.1-0.4-8.5-0.6c-0.1,4.3-0.1,6.4-0.1,10.7
							c-3.8-0.2-5.7-0.3-9.6-0.4c0-3.1,0.1-4.6,0.1-7.7c-2-0.1-3.1-0.1-5.1-0.2c0.1-5.4,0.2-10.8,0.3-16.1c-0.7,0-1.5,0-2.4,0
							c-10.8,0-21.7-0.1-32.5-0.1c0.1-3.5,0.1-5.2,0.2-8.6c-2.5,0-4.6,0.1-6.5,0.1c-0.6,0.7-1.3,1.4-2,2.2
							c-0.2,8.7-0.2,13.1-0.4,21.8c-2.1-0.1-3.1-0.2-5.2-0.3c0,2.5-0.1,3.8-0.1,6.3c-3.8-0.3-5.7-0.4-9.6-0.7c0-3.6,0.1-5.3,0.1-8.9
							c-3.8-0.1-5.7-0.1-9.4-0.2c-2.8-1.9-4.2-2.8-7-4.7c-0.7,0-1.2,0-1.7,0c0,1.9-0.1,3.8-0.1,6.3c-4.7-0.1-7.1-0.2-11.8-0.4
							c0-2.1,0.1-4.3,0.1-6.4c-0.8,0-1.5,0-2.5,0c0,0.4,0,0.5,0,0.9c-0.1,0-0.2,0-0.4,0v57.7c73.4,9.9,146.8,19.7,220.2,29.6v-45.5
							C1535.4,380.3,1535.4,380.3,1535.3,380.2z"/>
					</g>
				</g>
				<path class="st15" d="M1306.7,411.3c-1.1-52.9-1.3-105.8-0.8-158.7c77.3-11.9,154.5-24,231.7-36.1c-0.9,76.3-0.6,152.7,0.8,229
					C1461.2,434.2,1383.9,422.8,1306.7,411.3z M1315.5,259.1c-0.4,48.4-0.2,96.9,0.7,145.3c70.8,9.4,141.5,18.8,212.3,28
					c-1.1-67.7-1.4-135.5-0.7-203.2C1457.1,239.3,1386.3,249.3,1315.5,259.1z"/>
				<g>
					
						<linearGradient id="SVGID_9_" gradientUnits="userSpaceOnUse" x1="1426.7001" y1="373.7" x2="1515.1" y2="373.7" gradientTransform="matrix(1 0 0 1 0 -88)">
						<stop  offset="0" style="stop-color:#FFFFFF;stop-opacity:0.65"/>
						<stop  offset="0.2439" style="stop-color:#C4C7C6;stop-opacity:0.7355"/>
						<stop  offset="0.6116" style="stop-color:#717875;stop-opacity:0.8643"/>
						<stop  offset="0.8721" style="stop-color:#3C4642;stop-opacity:0.9556"/>
						<stop  offset="0.9989" style="stop-color:#28332E"/>
					</linearGradient>
					<path class="st35" d="M1515.1,245.6c-29.4,3.6-58.8,7.2-88.2,10.7c-0.2,23.2-0.2,46.3-0.2,69.5c29.4-0.4,58.8-0.8,88.1-1.2
						C1514.9,298.2,1514.9,271.9,1515.1,245.6z"/>
					
						<linearGradient id="SVGID_10_" gradientUnits="userSpaceOnUse" x1="1427" y1="464.8" x2="1515.7001" y2="464.8" gradientTransform="matrix(1 0 0 1 0 -88)">
						<stop  offset="0" style="stop-color:#FFFFFF;stop-opacity:0.65"/>
						<stop  offset="0.2441" style="stop-color:#C4C7ED;stop-opacity:0.7355"/>
						<stop  offset="0.612" style="stop-color:#7178D5;stop-opacity:0.8643"/>
						<stop  offset="0.8727" style="stop-color:#3C46C5;stop-opacity:0.9556"/>
						<stop  offset="0.9995" style="stop-color:#2833BF"/>
					</linearGradient>
					<path class="st36" d="M1427.8,406.7c29.3,3.3,58.6,6.6,87.9,9.8c-0.4-26.4-0.7-52.8-0.8-79.1c-29.3-0.1-58.6-0.2-87.9-0.3
						C1427.2,360.2,1427.4,383.5,1427.8,406.7z"/>
					<path class="st37" d="M1315.3,258.1c-0.4,48.8-0.2,97.6,0.7,146.4c71.1,9.5,142.2,18.9,213.3,28.2c-1.2-68.3-1.4-136.7-0.7-205
						C1457.5,237.8,1386.4,248,1315.3,258.1z M1520.5,422.6c-65.5-7.8-131-15.6-196.5-23.6c-0.8-44.7-1-89.5-0.7-134.2
						c65.5-8.3,131-16.7,196.5-25.2C1519.3,300.6,1519.5,361.6,1520.5,422.6z"/>
					
						<linearGradient id="SVGID_11_" gradientUnits="userSpaceOnUse" x1="1327.9586" y1="380.5" x2="1416" y2="380.5" gradientTransform="matrix(1 0 0 1 0 -88)">
						<stop  offset="0" style="stop-color:#FFFFFF;stop-opacity:0.65"/>
						<stop  offset="0.2439" style="stop-color:#C4C7C6;stop-opacity:0.7355"/>
						<stop  offset="0.6116" style="stop-color:#717875;stop-opacity:0.8643"/>
						<stop  offset="0.8721" style="stop-color:#3C4642;stop-opacity:0.9556"/>
						<stop  offset="0.9989" style="stop-color:#28332E"/>
					</linearGradient>
					<path class="st38" d="M1416,257.8c-29.3,3.5-58.6,7.1-87.9,10.6c-0.1,19.6-0.2,39.2-0.1,58.8c29.3-0.3,58.5-0.7,87.8-1.1
						C1415.8,303.3,1415.9,280.5,1416,257.8z"/>
					
						<linearGradient id="SVGID_12_" gradientUnits="userSpaceOnUse" x1="1328.1" y1="458.95" x2="1416.9999" y2="458.95" gradientTransform="matrix(1 0 0 1 0 -88)">
						<stop  offset="0" style="stop-color:#FFFFFF;stop-opacity:0.65"/>
						<stop  offset="0.2441" style="stop-color:#C4C7ED;stop-opacity:0.7355"/>
						<stop  offset="0.612" style="stop-color:#7178D5;stop-opacity:0.8643"/>
						<stop  offset="0.8727" style="stop-color:#3C46C5;stop-opacity:0.9556"/>
						<stop  offset="0.9995" style="stop-color:#2833BF"/>
					</linearGradient>
					<path class="st39" d="M1416.2,336.9c-29.4-0.1-58.8-0.3-88.1-0.4c0.1,19.6,0.3,39.2,0.7,58.9c29.4,3.3,58.8,6.7,88.2,10
						C1416.6,382.5,1416.3,359.7,1416.2,336.9z"/>
					<path class="st15" d="M1324,399c65.5,7.9,131,15.8,196.5,23.6c-1-61-1.2-122-0.6-183c-65.5,8.5-131,16.9-196.5,25.2
						C1323,309.5,1323.3,354.3,1324,399z M1515.7,416.5c-29.3-3.3-58.6-6.5-87.9-9.8c-0.4-23.2-0.6-46.4-0.7-69.6
						c29.3,0.1,58.6,0.2,87.9,0.3C1515.1,363.7,1515.3,390.1,1515.7,416.5z M1426.9,256.3c29.4-3.6,58.8-7.1,88.2-10.7
						c-0.2,26.3-0.3,52.7-0.2,79c-29.4,0.4-58.8,0.8-88.1,1.2C1426.7,302.6,1426.8,279.5,1426.9,256.3z M1328.2,268.3
						c29.3-3.5,58.6-7,87.9-10.6c-0.2,22.8-0.2,45.6-0.2,68.3c-29.3,0.4-58.5,0.7-87.8,1.1C1328,307.5,1328,287.9,1328.2,268.3z
						 M1328.1,336.5c29.4,0.2,58.8,0.3,88.1,0.4c0.1,22.8,0.4,45.6,0.7,68.4c-29.4-3.3-58.8-6.6-88.2-10
						C1328.4,375.7,1328.2,356.1,1328.1,336.5z"/>
				</g>
			</g>
		</g>
	</g>
</g>
<g id="Layer_1_1_">
	<g id="Border__x2F__Window__x2F__Floor">
		<g id="floor">
			<path class="st40" d="M3.8,616.2c0,33.6,0,87,0,87h1692.1V596.4H3.8V616.2z"/>
			
				<image style="overflow:visible;enable-background:new    ;" width="1408" height="59" id="floor_shadow_original" xlink:href="94EC8C0FF260861F.png"  transform="matrix(1.3841 0 0 1.3586 -58.2344 574.4)">
			</image>
			<g id="floor_shadow" class="st41">
				
					<linearGradient id="SVGID_13_" gradientUnits="userSpaceOnUse" x1="851.3733" y1="-702.0758" x2="851.3733" y2="-547.3594" gradientTransform="matrix(1 0 0 -1 0 226)">
					<stop  offset="0" style="stop-color:#FFFFFF;stop-opacity:0"/>
					<stop  offset="0.5249" style="stop-color:#D6D6D6;stop-opacity:0.2887"/>
					<stop  offset="1" style="stop-color:#ADADAD;stop-opacity:0.55"/>
				</linearGradient>
				<path class="st42" d="M1718.9,869.2c-14.5-8.3-98-64.7-111.3-68.7s-28.5-5.3-29.6,0s3.7,9.2,4,14.7c0.3,6-17,11.3-29.1,6
					c-12-5.3-39.4-26.8-53.4-27.4c-14-0.6-179.3,0-185.3,0s-8.2,7.6-3.9,11.1c7.2,5.8,11.2,9.5,17.9,15c3.7,3,3.5,8.4,1.3,11.5
					c-8.7,12.5-45.3-17.5-54.7-16.8c-9.3,0.7,14.2,17.8,18,21.3c7.1,6.7,21.9,15.4,29.7,26.3c6,8.3-5.1,20.6-16.4,22.8
					c-43.3,8.3-106.9-66.8-157.3-87.3c-24.6,0-294.1-1.7-294.1-1.7c-23.7,0.3-282.1,1.9-306.6,1.9c-47.9,23.7-98.7,95.4-141.9,87.1
					c-11.3-2.2-21.7-13.4-17-22.8c5.4-10.8,23-22.8,28.7-27.7c3.9-3.4,24-20,19.7-20c-9.4,0-46,29.3-54.7,16.8
					c-2.1-3.1-2.3-8.4,1.3-11.5c7.8-6.6,12.7-11.2,16.7-15s3.3-11.1-2.7-11.1s-171.3-0.6-185.3,0s-41.3,22.1-53.4,27.4
					c-12,5.3-27.6,2-29.1-6c-1-5.4,5.1-9.3,4-14.7c-1.1-5.3-16.3-4-29.6,0s-96,62-111.3,68.7c0,0-13.3,7.8-42.3,16.4
					s-41-118.9-41-118.9v-35.4h1832c0,0,60,119.9,49,133.9S1734.2,878,1718.9,869.2z"/>
			</g>
		</g>
		<g id="border_2_">
			<g>
				
					<linearGradient id="SVGID_14_" gradientUnits="userSpaceOnUse" x1="908.7" y1="-391.7961" x2="908.7" y2="225.0038" gradientTransform="matrix(1 0 0 -1 0 226)">
					<stop  offset="0" style="stop-color:#BCA588"/>
					<stop  offset="0.1864" style="stop-color:#C2AB8E"/>
					<stop  offset="0.4456" style="stop-color:#D4BCA0"/>
					<stop  offset="0.6047" style="stop-color:#E2C9AF"/>
					<stop  offset="0.7068" style="stop-color:#D4BCA1"/>
					<stop  offset="0.8775" style="stop-color:#C2AB8F"/>
					<stop  offset="0.9994" style="stop-color:#BCA588"/>
				</linearGradient>
				<path class="st43" d="M93.2,100.1c51.4,0,1627.8,0,1627.8,0v516.7h97.2L1817.3,0H-0.8L0,616.7h93.1L93.2,100.1L93.2,100.1z"/>
				<polygon class="st44" points="93.2,616.7 106.7,606.9 106.7,109.2 1706.5,109.2 1706.5,607.2 1721,616.7 1721,100.1 93.2,100.1 
									"/>
			</g>
			<g class="st45">
				<polygon class="st46" points="829.4,0 746.7,0 777.1,29 				"/>
				<polygon class="st46" points="143,109.2 285.1,109.2 233,59.4 				"/>
				<polygon class="st46" points="53.8,157.6 106.7,128.4 106.7,127.9 53.5,157.3 				"/>
				<polygon class="st46" points="778.7,30.5 833.8,0 833,0 778.4,30.2 				"/>
				<polygon class="st46" points="1706.5,607.2 1709.4,609.1 1818,549 1818,481.2 1706.5,374.7 				"/>
				<polygon class="st46" points="334.3,0 174.9,0 233.3,55.9 				"/>
				<polygon class="st46" points="106.7,208.2 106.7,129.3 54.5,158.2 				"/>
				<polygon class="st46" points="742.7,0 460.8,0 575.1,109.2 632,109.2 774.5,30.4 				"/>
				<polygon class="st46" points="232.1,58.5 140.4,109.2 141.3,109.2 232.4,58.8 				"/>
				<polygon class="st46" points="170.9,0 -0.8,0 -0.6,105.6 52.2,156.1 106.7,125.9 106.7,109.2 136.9,109.2 230.8,57.3 				"/>
				<polygon class="st46" points="1141.3,103.9 1319.9,5.1 1319.5,4.8 1141,103.6 				"/>
				<polygon class="st46" points="234.9,57.4 338.7,0 337.8,0 234.6,57.1 				"/>
				<polygon class="st46" points="1142,104.5 1146.9,109.2 1428.8,109.2 1320.5,5.7 				"/>
				<polygon class="st46" points="1324.6,0 1318.6,0 1320.8,2.1 				"/>
				<polygon class="st46" points="1322.4,3.6 1329,0 1328.1,0 1322.1,3.3 				"/>
				<polygon class="st46" points="1706.5,339.1 1817.7,277.6 1817.7,277.1 1706.5,338.6 				"/>
				<polygon class="st46" points="1706.5,370.9 1817.9,477.4 1817.7,278.6 1706.5,340.1 				"/>
				<polygon class="st46" points="1817.6,203.7 1817.3,4.8 1685.7,77.6 				"/>
				<polygon class="st46" points="340.4,0 235.6,58 289.2,109.2 571.1,109.2 456.8,0 				"/>
				<polygon class="st46" points="1318.3,3.5 1314.6,0 1032.7,0 1139.7,102.3 				"/>
				<polygon class="st46" points="1817.3,1.4 1817.3,0 1604.5,0 1683.4,75.4 				"/>
				<polygon class="st46" points="1711.4,610.4 1818,551.4 1818,550.9 1711,610.2 				"/>
				<polygon class="st46" points="1028.6,0 835.6,0 779.3,31.1 861,109.2 1127.2,109.2 1137.2,103.7 				"/>
				<polygon class="st46" points="-0.2,462.5 0.1,616.7 93.2,616.7 106.7,606.9 106.7,485.3 52.4,433.4 				"/>
				<polygon class="st46" points="51.4,432.5 -0.2,461 -0.2,461.5 51.7,432.8 				"/>
				<polygon class="st46" points="1600.5,0 1330.8,0 1323.1,4.3 1432.9,109.2 1622.4,109.2 1680.9,76.8 				"/>
				<polygon class="st46" points="-0.6,109.4 -0.5,185.3 49.7,157.5 				"/>
				<polygon class="st46" points="1133.4,109.2 1142.9,109.2 1139.4,105.9 				"/>
				<polygon class="st46" points="-0.3,383.1 -0.2,459.1 50.1,431.2 				"/>
				<polygon class="st46" points="1682.2,78.1 1625.9,109.2 1626.8,109.2 1682.5,78.4 				"/>
				<polygon class="st46" points="51,158.7 -0.5,187.2 -0.5,187.7 51.3,159 				"/>
				<polygon class="st46" points="106.7,481.5 106.7,403.3 54.9,432 				"/>
				<polygon class="st46" points="1685.1,77 1817.3,3.8 1817.3,3.3 1684.7,76.7 				"/>
				<polygon class="st46" points="54.3,431.4 106.7,402.4 106.7,401.9 54,431.1 				"/>
				<polygon class="st46" points="1721,616.7 1818.1,616.7 1818,552.4 1712.2,611 				"/>
				<polygon class="st46" points="-0.5,188.7 -0.3,379.2 52.7,429.8 106.7,399.9 106.7,212 51.9,159.6 				"/>
				<polygon class="st46" points="1138.4,105 1130.7,109.2 1131.6,109.2 1138.8,105.3 				"/>
				<polygon class="st46" points="775.8,31.6 635.6,109.2 636.4,109.2 776.1,31.9 				"/>
				<polygon class="st46" points="1628.5,109.2 1706.5,109.2 1706.5,336.7 1817.7,275.2 1817.6,207.5 1683.2,79 				"/>
				<polygon class="st46" points="638.2,109.2 857,109.2 776.8,32.6 				"/>
				<polygon class="st47" points="235.6,58 340.4,0 338.7,0 234.9,57.4 				"/>
				<polygon class="st47" points="54.5,158.2 106.7,129.3 106.7,128.4 53.8,157.6 				"/>
				<polygon class="st47" points="51.3,159 -0.5,187.7 -0.5,188.7 51.9,159.6 				"/>
				<polygon class="st47" points="232.4,58.8 141.3,109.2 143,109.2 233,59.4 				"/>
				<polygon class="st47" points="54.9,432 106.7,403.3 106.7,402.4 54.3,431.4 				"/>
				<polygon class="st47" points="51.7,432.8 -0.2,461.5 -0.2,462.5 52.4,433.4 				"/>
				<polygon class="st47" points="779.3,31.1 835.6,0 833.8,0 778.7,30.5 				"/>
				<polygon class="st47" points="776.1,31.9 636.4,109.2 638.2,109.2 776.8,32.6 				"/>
				<polygon class="st47" points="1138.8,105.3 1131.6,109.2 1133.4,109.2 1139.4,105.9 				"/>
				<polygon class="st47" points="1323.1,4.3 1330.8,0 1329,0 1322.4,3.6 				"/>
				<polygon class="st47" points="1142,104.5 1320.5,5.7 1319.9,5.1 1141.3,103.9 				"/>
				<polygon class="st47" points="1685.7,77.6 1817.3,4.8 1817.3,3.8 1685.1,77 				"/>
				<polygon class="st47" points="1682.5,78.4 1626.8,109.2 1628.5,109.2 1683.2,79 				"/>
				<polygon class="st47" points="1706.5,340.1 1817.7,278.6 1817.7,277.6 1706.5,339.1 				"/>
				<polygon class="st47" points="1712.2,611 1818,552.4 1818,551.4 1711.4,610.4 				"/>
				<polygon class="st48" points="1682.6,75.9 1603.2,0 1600.5,0 1680.9,76.8 				"/>
				<polygon class="st48" points="1683.9,77.1 1682.2,78.1 1682.5,78.4 1683.2,79 1817.6,207.5 1817.6,205 				"/>
				<polygon class="st48" points="1706.5,374.7 1818,481.2 1817.9,478.6 1706.5,372.1 				"/>
				<polygon class="st48" points="1320,2.6 1317.3,0 1314.6,0 1318.3,3.5 				"/>
				<polygon class="st48" points="1321.2,3.8 1319.5,4.8 1319.9,5.1 1320.5,5.7 1428.8,109.2 1431.5,109.2 				"/>
				<polygon class="st48" points="1138.9,102.8 1031.3,0 1028.6,0 1137.2,103.7 				"/>
				<polygon class="st48" points="1140.1,104 1138.4,105 1138.8,105.3 1139.4,105.9 1142.9,109.2 1145.6,109.2 				"/>
				<polygon class="st48" points="776.2,29.5 745.4,0 742.7,0 774.5,30.4 				"/>
				<polygon class="st48" points="777.5,30.7 775.8,31.6 776.1,31.9 776.8,32.6 857,109.2 859.7,109.2 				"/>
				<polygon class="st48" points="456.8,0 571.1,109.2 573.7,109.2 459.5,0 				"/>
				<polygon class="st48" points="232.5,56.3 173.5,0 170.9,0 230.8,57.3 				"/>
				<polygon class="st48" points="233.8,57.6 232.1,58.5 232.4,58.8 233,59.4 285.1,109.2 287.8,109.2 				"/>
				<polygon class="st48" points="51.4,156.5 -0.6,106.8 -0.6,109.4 49.7,157.5 				"/>
				<polygon class="st48" points="52.7,157.8 51,158.7 51.3,159 51.9,159.6 106.7,212 106.7,209.4 				"/>
				<polygon class="st48" points="51.8,430.3 -0.3,380.5 -0.3,383.1 50.1,431.2 				"/>
				<polygon class="st48" points="53.1,431.5 51.4,432.5 51.7,432.8 52.4,433.4 106.7,485.3 106.7,482.8 				"/>
				<polygon class="st48" points="234.6,57.1 337.8,0 334.3,0 233.3,55.9 				"/>
				<polygon class="st48" points="53.5,157.3 106.7,127.9 106.7,125.9 52.2,156.1 				"/>
				<polygon class="st48" points="233.8,57.6 232.5,56.3 230.8,57.3 136.9,109.2 140.4,109.2 232.1,58.5 				"/>
				<polygon class="st48" points="52.7,157.8 51.4,156.5 49.7,157.5 -0.5,185.3 -0.5,187.2 51,158.7 				"/>
				<polygon class="st48" points="778.4,30.2 833,0 829.4,0 777.1,29 				"/>
				<polygon class="st48" points="54,431.1 106.7,401.9 106.7,399.9 52.7,429.8 				"/>
				<polygon class="st48" points="777.5,30.7 776.2,29.5 774.5,30.4 632,109.2 635.6,109.2 775.8,31.6 				"/>
				<polygon class="st48" points="53.1,431.5 51.8,430.3 50.1,431.2 -0.2,459.1 -0.2,461 51.4,432.5 				"/>
				<polygon class="st48" points="1322.1,3.3 1328.1,0 1324.6,0 1320.8,2.1 				"/>
				<polygon class="st48" points="1139.7,102.3 1141,103.6 1319.5,4.8 1321.2,3.8 1320,2.6 1318.3,3.5 				"/>
				<polygon class="st48" points="1140.1,104 1138.9,102.8 1137.2,103.7 1127.2,109.2 1130.7,109.2 1138.4,105 				"/>
				<polygon class="st48" points="1683.4,75.4 1684.7,76.7 1817.3,3.3 1817.3,1.4 				"/>
				<polygon class="st48" points="1683.9,77.1 1682.6,75.9 1680.9,76.8 1622.4,109.2 1625.9,109.2 1682.2,78.1 				"/>
				<polygon class="st48" points="1706.5,338.6 1817.7,277.1 1817.7,275.2 1706.5,336.7 				"/>
				<polygon class="st48" points="1711,610.2 1818,550.9 1818,549 1709.4,609.1 				"/>
				<polygon class="st47" points="1685.1,77 1684.7,76.7 1683.4,75.4 1604.5,0 1603.2,0 1682.6,75.9 1683.9,77.1 1817.6,205 
					1817.6,203.7 1685.7,77.6 				"/>
				<polygon class="st47" points="1706.5,372.1 1817.9,478.6 1817.9,477.4 1706.5,370.9 				"/>
				<polygon class="st47" points="1322.4,3.6 1322.1,3.3 1320.8,2.1 1318.6,0 1317.3,0 1320,2.6 1321.2,3.8 1431.5,109.2 
					1432.9,109.2 1323.1,4.3 				"/>
				<polygon class="st47" points="1141.3,103.9 1141,103.6 1139.7,102.3 1032.7,0 1031.3,0 1138.9,102.8 1140.1,104 1145.6,109.2 
					1146.9,109.2 1142,104.5 				"/>
				<polygon class="st47" points="778.7,30.5 778.4,30.2 777.1,29 746.7,0 745.4,0 776.2,29.5 777.5,30.7 859.7,109.2 861,109.2 
					779.3,31.1 				"/>
				<polygon class="st47" points="459.5,0 573.7,109.2 575.1,109.2 460.8,0 				"/>
				<polygon class="st47" points="234.9,57.4 234.6,57.1 233.3,55.9 174.9,0 173.5,0 232.5,56.3 233.8,57.6 287.8,109.2 
					289.2,109.2 235.6,58 				"/>
				<polygon class="st47" points="53.8,157.6 53.5,157.3 52.2,156.1 -0.6,105.6 -0.6,106.8 51.4,156.5 52.7,157.8 106.7,209.4 
					106.7,208.2 54.5,158.2 				"/>
				<polygon class="st47" points="54.3,431.4 54,431.1 52.7,429.8 -0.3,379.2 -0.3,380.5 51.8,430.3 53.1,431.5 106.7,482.8 
					106.7,481.5 54.9,432 				"/>
			</g>
		</g>
		<g id="sliding_door">
			<g id="rear_door_frame">
				<rect x="487.6" y="130.6" class="st49" width="31.1" height="455.7"/>
				<rect x="487.6" y="130.6" class="st49" width="31.1" height="455.7"/>
			</g>
			<g id="rear_door_frame_copy">
				<rect x="1292.7" y="130.6" class="st49" width="31.1" height="455.7"/>
				<rect x="1292.7" y="130.6" class="st49" width="31.1" height="455.7"/>
			</g>
			<g id="full_window_trim">
				
					<linearGradient id="full_trim_2_" gradientUnits="userSpaceOnUse" x1="906.6" y1="-310.6918" x2="906.6" y2="181.069" gradientTransform="matrix(1 0 0 -1 0 226)">
					<stop  offset="0.1294" style="stop-color:#020202"/>
					<stop  offset="0.2444" style="stop-color:#0A0A0A"/>
					<stop  offset="0.4246" style="stop-color:#212121"/>
					<stop  offset="0.6028" style="stop-color:#3D3D3D"/>
					<stop  offset="0.6417" style="stop-color:#2D2D2D"/>
					<stop  offset="0.7263" style="stop-color:#0E0E0E"/>
					<stop  offset="0.7738" style="stop-color:#030303"/>
				</linearGradient>
				<path id="full_trim_1_" class="st50" d="M106.7,109.2v497.7l1599.8,0.3v-498L106.7,109.2L106.7,109.2z M1676.8,584.9H136v-456
					h1540.8V584.9L1676.8,584.9z"/>
				<g id="highlighted_border">
					
						<linearGradient id="SVGID_15_" gradientUnits="userSpaceOnUse" x1="906.0188" y1="-383.3552" x2="906.0188" y2="-369.3262" gradientTransform="matrix(1 0 0 -1 0 226)">
						<stop  offset="0" style="stop-color:#020202"/>
						<stop  offset="0.2045" style="stop-color:#050505"/>
						<stop  offset="0.3427" style="stop-color:#0E0E0E"/>
						<stop  offset="0.4613" style="stop-color:#1D1D1D"/>
						<stop  offset="0.5682" style="stop-color:#323232"/>
						<stop  offset="0.6674" style="stop-color:#4E4E4E"/>
						<stop  offset="0.6747" style="stop-color:#505050"/>
						<stop  offset="0.6819" style="stop-color:#4A4A4A"/>
						<stop  offset="0.7191" style="stop-color:#303030"/>
						<stop  offset="0.7602" style="stop-color:#1B1B1B"/>
						<stop  offset="0.8065" style="stop-color:#0D0D0D"/>
						<stop  offset="0.8623" style="stop-color:#050505"/>
						<stop  offset="0.9537" style="stop-color:#020202"/>
					</linearGradient>
					<path class="st51" d="M102.6,597.5v10.8c0,0,1594,0,1604.1,0c3.6-0.9,3.7-9.6,0-10.8C1691.2,597.5,102.6,597.5,102.6,597.5z"/>
					
						<linearGradient id="SVGID_16_" gradientUnits="userSpaceOnUse" x1="907.0253" y1="105.7692" x2="907.0253" y2="119.7983" gradientTransform="matrix(1 0 0 -1 0 226)">
						<stop  offset="0" style="stop-color:#020202"/>
						<stop  offset="0.2245" style="stop-color:#050505"/>
						<stop  offset="0.3588" style="stop-color:#0D0D0D"/>
						<stop  offset="0.4694" style="stop-color:#1B1B1B"/>
						<stop  offset="0.5671" style="stop-color:#2F2F2F"/>
						<stop  offset="0.6554" style="stop-color:#494949"/>
						<stop  offset="0.6747" style="stop-color:#505050"/>
						<stop  offset="0.6819" style="stop-color:#4A4A4A"/>
						<stop  offset="0.7191" style="stop-color:#303030"/>
						<stop  offset="0.7602" style="stop-color:#1B1B1B"/>
						<stop  offset="0.8065" style="stop-color:#0D0D0D"/>
						<stop  offset="0.8623" style="stop-color:#050505"/>
						<stop  offset="0.9537" style="stop-color:#020202"/>
					</linearGradient>
					<path class="st52" d="M104,108.4v10.8c0,0,1598,0,1604.1,0c2.5-0.6,2.7-9.3,0-10.8C1692.6,108.4,104,108.4,104,108.4z"/>
				</g>
				<g id="vertical_highlight">
					
						<linearGradient id="bottom_4_" gradientUnits="userSpaceOnUse" x1="1902.5441" y1="-360" x2="1902.5441" y2="-27.6" gradientTransform="matrix(-2.2955 0 0 -1 4499.54 226)">
						<stop  offset="0" style="stop-color:#707070"/>
						<stop  offset="0.1376" style="stop-color:#767676;stop-opacity:0.8624"/>
						<stop  offset="0.3277" style="stop-color:#888888;stop-opacity:0.6723"/>
						<stop  offset="0.5484" style="stop-color:#A5A5A5;stop-opacity:0.4516"/>
						<stop  offset="0.7902" style="stop-color:#CECECE;stop-opacity:0.2098"/>
						<stop  offset="1" style="stop-color:#F7F7F7;stop-opacity:0"/>
					</linearGradient>
					<polygon id="bottom" class="st53" points="130.7,586 133.8,586 133,253.6 130.7,253.6 					"/>
					
						<linearGradient id="bottom_5_" gradientUnits="userSpaceOnUse" x1="1210.41" y1="-748.6859" x2="1210.41" y2="-664.6859" gradientTransform="matrix(0 -2.2955 1 0 879.3859 3365.6462)">
						<stop  offset="0" style="stop-color:#707070"/>
						<stop  offset="0.1376" style="stop-color:#767676;stop-opacity:0.8624"/>
						<stop  offset="0.3277" style="stop-color:#888888;stop-opacity:0.6723"/>
						<stop  offset="0.5484" style="stop-color:#A5A5A5;stop-opacity:0.4516"/>
						<stop  offset="0.7902" style="stop-color:#CECECE;stop-opacity:0.2098"/>
						<stop  offset="1" style="stop-color:#F7F7F7;stop-opacity:0"/>
					</linearGradient>
					<polygon id="bottom_1_" class="st54" points="130.7,586 130.7,588.3 214.7,587.7 214.7,586 					"/>
					
						<linearGradient id="top_4_" gradientUnits="userSpaceOnUse" x1="1025.0787" y1="189.0873" x2="1025.0787" y2="407.3873" gradientTransform="matrix(2.2955 0 0 1 -2220.7183 -61.4873)">
						<stop  offset="0" style="stop-color:#707070"/>
						<stop  offset="0.1376" style="stop-color:#767676;stop-opacity:0.8624"/>
						<stop  offset="0.3277" style="stop-color:#888888;stop-opacity:0.6723"/>
						<stop  offset="0.5484" style="stop-color:#A5A5A5;stop-opacity:0.4516"/>
						<stop  offset="0.7902" style="stop-color:#CECECE;stop-opacity:0.2098"/>
						<stop  offset="1" style="stop-color:#F7F7F7;stop-opacity:0"/>
					</linearGradient>
					<polygon id="top" class="st55" points="133.9,127.6 130.8,127.6 130.8,345.9 132.9,345.9 					"/>
					
						<linearGradient id="top_5_" gradientUnits="userSpaceOnUse" x1="1390.2767" y1="-1423.5662" x2="1390.2767" y2="-1355.9662" gradientTransform="matrix(0 -2.2955 1 0 1554.3662 3318.5803)">
						<stop  offset="0" style="stop-color:#707070"/>
						<stop  offset="0.1376" style="stop-color:#767676;stop-opacity:0.8624"/>
						<stop  offset="0.3277" style="stop-color:#888888;stop-opacity:0.6723"/>
						<stop  offset="0.5484" style="stop-color:#A5A5A5;stop-opacity:0.4516"/>
						<stop  offset="0.7902" style="stop-color:#CECECE;stop-opacity:0.2098"/>
						<stop  offset="1" style="stop-color:#F7F7F7;stop-opacity:0"/>
					</linearGradient>
					<polygon id="top_1_" class="st56" points="130.8,126.8 130.8,127.6 198.4,127.6 198.4,127.1 					"/>
					
						<linearGradient id="bottom_6_" gradientUnits="userSpaceOnUse" x1="1971.851" y1="521.3471" x2="1971.851" y2="853.6471" gradientTransform="matrix(2.2955 0 0 1 -2846.4338 -393.2471)">
						<stop  offset="0" style="stop-color:#707070"/>
						<stop  offset="0.1376" style="stop-color:#767676;stop-opacity:0.8624"/>
						<stop  offset="0.3277" style="stop-color:#888888;stop-opacity:0.6723"/>
						<stop  offset="0.5484" style="stop-color:#A5A5A5;stop-opacity:0.4516"/>
						<stop  offset="0.7902" style="stop-color:#CECECE;stop-opacity:0.2098"/>
						<stop  offset="1" style="stop-color:#F7F7F7;stop-opacity:0"/>
					</linearGradient>
					<polygon id="bottom_3_" class="st57" points="1681.5,128.1 1678.4,128.1 1679.2,460.4 1681.5,460.4 					"/>
					
						<linearGradient id="bottom_7_" gradientUnits="userSpaceOnUse" x1="1795.009" y1="-907.6799" x2="1795.009" y2="-823.6799" gradientTransform="matrix(0 2.2955 -1 0 773.7201 -3532.8933)">
						<stop  offset="0" style="stop-color:#707070"/>
						<stop  offset="0.1376" style="stop-color:#767676;stop-opacity:0.8624"/>
						<stop  offset="0.3277" style="stop-color:#888888;stop-opacity:0.6723"/>
						<stop  offset="0.5484" style="stop-color:#A5A5A5;stop-opacity:0.4516"/>
						<stop  offset="0.7902" style="stop-color:#CECECE;stop-opacity:0.2098"/>
						<stop  offset="1" style="stop-color:#F7F7F7;stop-opacity:0"/>
					</linearGradient>
					<polygon id="bottom_2_" class="st58" points="1681.4,588.7 1681.4,586.4 1597.4,587 1597.4,588.7 					"/>
					
						<linearGradient id="top_6_" gradientUnits="userSpaceOnUse" x1="955.7718" y1="-692.1599" x2="955.7718" y2="-473.9598" gradientTransform="matrix(-2.2955 0 0 -1 3873.8242 -105.7598)">
						<stop  offset="0" style="stop-color:#707070"/>
						<stop  offset="0.1376" style="stop-color:#767676;stop-opacity:0.8624"/>
						<stop  offset="0.3277" style="stop-color:#888888;stop-opacity:0.6723"/>
						<stop  offset="0.5484" style="stop-color:#A5A5A5;stop-opacity:0.4516"/>
						<stop  offset="0.7902" style="stop-color:#CECECE;stop-opacity:0.2098"/>
						<stop  offset="1" style="stop-color:#F7F7F7;stop-opacity:0"/>
					</linearGradient>
					<polygon id="top_3_" class="st59" points="1678.3,586.4 1681.4,586.4 1681.4,368.2 1679.3,368.2 					"/>
					
						<linearGradient id="top_7_" gradientUnits="userSpaceOnUse" x1="1573.9828" y1="-1582.76" x2="1573.9828" y2="-1515.16" gradientTransform="matrix(0 2.2955 -1 0 98.74 -3485.8274)">
						<stop  offset="0" style="stop-color:#707070"/>
						<stop  offset="0.1376" style="stop-color:#767676;stop-opacity:0.8624"/>
						<stop  offset="0.3277" style="stop-color:#888888;stop-opacity:0.6723"/>
						<stop  offset="0.5484" style="stop-color:#A5A5A5;stop-opacity:0.4516"/>
						<stop  offset="0.7902" style="stop-color:#CECECE;stop-opacity:0.2098"/>
						<stop  offset="1" style="stop-color:#F7F7F7;stop-opacity:0"/>
					</linearGradient>
					<polygon id="top_2_" class="st60" points="1681.5,128.1 1681.5,126.4 1613.9,126.4 1613.9,127.6 					"/>
				</g>
				<g id="inner_highlights">
				</g>
			</g>
			<g id="door_with_handle">
				
					<radialGradient id="SVGID_17_" cx="607.9004" cy="-470.0764" r="10.489" gradientTransform="matrix(1.0696 0 0 -0.7779 -75.8102 63.2007)" gradientUnits="userSpaceOnUse">
					<stop  offset="0" style="stop-color:#6A6A6A;stop-opacity:0.58"/>
					<stop  offset="9.428108e-02" style="stop-color:#888888;stop-opacity:0.6526"/>
					<stop  offset="0.1995" style="stop-color:#A2A2A2;stop-opacity:0.7337"/>
					<stop  offset="0.3081" style="stop-color:#B4B4B4;stop-opacity:0.8174"/>
					<stop  offset="0.421" style="stop-color:#BFBFBF;stop-opacity:0.9044"/>
					<stop  offset="0.5451" style="stop-color:#C3C3C3"/>
					<stop  offset="0.6268" style="stop-color:#BDBDBD;stop-opacity:0.9244"/>
					<stop  offset="0.7402" style="stop-color:#ABABAB;stop-opacity:0.8195"/>
					<stop  offset="0.8716" style="stop-color:#8D8D8D;stop-opacity:0.698"/>
					<stop  offset="0.9991" style="stop-color:#6A6A6A;stop-opacity:0.58"/>
				</radialGradient>
				<ellipse class="st61" cx="574.4" cy="428.9" rx="11.2" ry="8.2"/>
				<g>
					<g>
						<g class="st62">
							
								<image style="overflow:visible;enable-background:new    ;" width="18" height="64" xlink:href="94EC8C0FF260861D.png"  transform="matrix(0.7777 0 0 0.7777 567.1346 381.6569)">
							</image>
						</g>
						<g>
							
								<linearGradient id="SVGID_18_" gradientUnits="userSpaceOnUse" x1="574.35" y1="-205.2952" x2="574.35" y2="-151.9453" gradientTransform="matrix(1 0 0 -1 0 226)">
								<stop  offset="0" style="stop-color:#F8F8F8"/>
								<stop  offset="0.5698" style="stop-color:#FAFAFA;stop-opacity:0.58"/>
								<stop  offset="1" style="stop-color:#FFFFFF"/>
							</linearGradient>
							<path class="st63" d="M575.3,431.5h-1.9c-1.5,0-2.7-1.2-2.7-2.7v-48.5c0-1.5,1.2-2.7,2.7-2.7h1.9c1.5,0,2.7,1.2,2.7,2.7v48.5
								C578,430.3,576.8,431.5,575.3,431.5z"/>
						</g>
					</g>
				</g>
				
					<radialGradient id="SVGID_19_" cx="612.5092" cy="-473.4369" r="0.1977" gradientTransform="matrix(1.0696 0 0 -0.7779 -75.8102 63.2007)" gradientUnits="userSpaceOnUse">
					<stop  offset="0" style="stop-color:#F8F8F8"/>
					<stop  offset="0.1555" style="stop-color:#BCBCBC;stop-opacity:0.8854"/>
					<stop  offset="0.354" style="stop-color:#767676;stop-opacity:0.739"/>
					<stop  offset="0.4974" style="stop-color:#4A4A4A;stop-opacity:0.6334"/>
					<stop  offset="0.5698" style="stop-color:#393939;stop-opacity:0.58"/>
					<stop  offset="0.6603" style="stop-color:#6D6D6D;stop-opacity:0.6684"/>
					<stop  offset="0.7783" style="stop-color:#ABABAB;stop-opacity:0.7835"/>
					<stop  offset="0.8784" style="stop-color:#D9D9D9;stop-opacity:0.8812"/>
					<stop  offset="0.9553" style="stop-color:#F5F5F5;stop-opacity:0.9564"/>
					<stop  offset="1" style="stop-color:#FFFFFF"/>
				</radialGradient>
				<ellipse class="st64" cx="579.3" cy="431.5" rx="0.2" ry="0.2"/>
				
					<linearGradient id="frame_left_1_" gradientUnits="userSpaceOnUse" x1="380.9" y1="-184.2281" x2="380.9" y2="117.5791" gradientTransform="matrix(1 0 0 -1 0 226)">
					<stop  offset="0" style="stop-color:#020202"/>
					<stop  offset="0.1272" style="stop-color:#131313"/>
					<stop  offset="0.4095" style="stop-color:#333333"/>
					<stop  offset="0.5648" style="stop-color:#404040"/>
					<stop  offset="0.7067" style="stop-color:#202020"/>
					<stop  offset="0.8223" style="stop-color:#030303"/>
				</linearGradient>
				<path id="frame_left" class="st65" d="M173.4,109.7V607h415V109.7H173.4z M556.8,583.4h-350v-450h350V583.4z"/>
				
					<linearGradient id="frame_right_1_" gradientUnits="userSpaceOnUse" x1="1431" y1="-184.2281" x2="1431" y2="117.5791" gradientTransform="matrix(1 0 0 -1 0 226)">
					<stop  offset="0" style="stop-color:#020202"/>
					<stop  offset="0.1272" style="stop-color:#131313"/>
					<stop  offset="0.4095" style="stop-color:#333333"/>
					<stop  offset="0.5648" style="stop-color:#404040"/>
					<stop  offset="0.7067" style="stop-color:#202020"/>
					<stop  offset="0.8223" style="stop-color:#030303"/>
				</linearGradient>
				<path id="frame_right" class="st66" d="M1223.5,109.7V607h415V109.7H1223.5z M1606.9,583.4h-350v-450h350V583.4z"/>
				
					<radialGradient id="SVGID_20_" cx="606.6186" cy="-470.0764" r="10.5101" gradientTransform="matrix(1.0696 0 0 -0.7779 -75.8102 63.2007)" gradientUnits="userSpaceOnUse">
					<stop  offset="0" style="stop-color:#6A6A6A;stop-opacity:0.58"/>
					<stop  offset="9.428108e-02" style="stop-color:#888888;stop-opacity:0.6526"/>
					<stop  offset="0.1995" style="stop-color:#A2A2A2;stop-opacity:0.7337"/>
					<stop  offset="0.3081" style="stop-color:#B4B4B4;stop-opacity:0.8174"/>
					<stop  offset="0.421" style="stop-color:#BFBFBF;stop-opacity:0.9044"/>
					<stop  offset="0.5451" style="stop-color:#C3C3C3"/>
					<stop  offset="0.6268" style="stop-color:#BDBDBD;stop-opacity:0.9244"/>
					<stop  offset="0.7402" style="stop-color:#ABABAB;stop-opacity:0.8195"/>
					<stop  offset="0.8716" style="stop-color:#8D8D8D;stop-opacity:0.698"/>
					<stop  offset="0.9991" style="stop-color:#6A6A6A;stop-opacity:0.58"/>
				</radialGradient>
				<ellipse class="st67" cx="573" cy="428.9" rx="11.2" ry="8.2"/>
				<g>
					<g>
						<g class="st62">
							
								<image style="overflow:visible;enable-background:new    ;" width="18" height="64" xlink:href="94EC8C0FF2608623.png"  transform="matrix(0.7777 0 0 0.7777 566.1346 381.6569)">
							</image>
						</g>
						<g>
							
								<linearGradient id="SVGID_21_" gradientUnits="userSpaceOnUse" x1="573.05" y1="-205.2952" x2="573.05" y2="-151.9453" gradientTransform="matrix(1 0 0 -1 0 226)">
								<stop  offset="0" style="stop-color:#F8F8F8"/>
								<stop  offset="0.5698" style="stop-color:#FAFAFA;stop-opacity:0.58"/>
								<stop  offset="1" style="stop-color:#FFFFFF"/>
							</linearGradient>
							<path class="st68" d="M574,431.5h-1.9c-1.5,0-2.7-1.2-2.7-2.7v-48.5c0-1.5,1.2-2.7,2.7-2.7h1.9c1.5,0,2.7,1.2,2.7,2.7v48.5
								C576.6,430.3,575.4,431.5,574,431.5z"/>
						</g>
					</g>
				</g>
				
					<radialGradient id="SVGID_22_" cx="612.5092" cy="-473.4369" r="0.1977" gradientTransform="matrix(1.0696 0 0 -0.7779 -75.8102 63.2007)" gradientUnits="userSpaceOnUse">
					<stop  offset="0" style="stop-color:#F8F8F8"/>
					<stop  offset="0.1555" style="stop-color:#BCBCBC;stop-opacity:0.8854"/>
					<stop  offset="0.354" style="stop-color:#767676;stop-opacity:0.739"/>
					<stop  offset="0.4974" style="stop-color:#4A4A4A;stop-opacity:0.6334"/>
					<stop  offset="0.5698" style="stop-color:#393939;stop-opacity:0.58"/>
					<stop  offset="0.6603" style="stop-color:#6D6D6D;stop-opacity:0.6684"/>
					<stop  offset="0.7783" style="stop-color:#ABABAB;stop-opacity:0.7835"/>
					<stop  offset="0.8784" style="stop-color:#D9D9D9;stop-opacity:0.8812"/>
					<stop  offset="0.9553" style="stop-color:#F5F5F5;stop-opacity:0.9564"/>
					<stop  offset="1" style="stop-color:#FFFFFF"/>
				</radialGradient>
				<ellipse class="st69" cx="579.3" cy="431.5" rx="0.2" ry="0.2"/>
				
					<radialGradient id="SVGID_23_" cx="1230.376" cy="-469.8539" r="10.4943" gradientTransform="matrix(1.0696 0 0 -0.7779 -75.8102 63.2007)" gradientUnits="userSpaceOnUse">
					<stop  offset="0" style="stop-color:#6A6A6A;stop-opacity:0.58"/>
					<stop  offset="9.428108e-02" style="stop-color:#888888;stop-opacity:0.6526"/>
					<stop  offset="0.1995" style="stop-color:#A2A2A2;stop-opacity:0.7337"/>
					<stop  offset="0.3081" style="stop-color:#B4B4B4;stop-opacity:0.8174"/>
					<stop  offset="0.421" style="stop-color:#BFBFBF;stop-opacity:0.9044"/>
					<stop  offset="0.5451" style="stop-color:#C3C3C3"/>
					<stop  offset="0.6268" style="stop-color:#BDBDBD;stop-opacity:0.9244"/>
					<stop  offset="0.7402" style="stop-color:#ABABAB;stop-opacity:0.8195"/>
					<stop  offset="0.8716" style="stop-color:#8D8D8D;stop-opacity:0.698"/>
					<stop  offset="0.9991" style="stop-color:#6A6A6A;stop-opacity:0.58"/>
				</radialGradient>
				<ellipse class="st70" cx="1240.2" cy="428.7" rx="11.2" ry="8.2"/>
				<g>
					<g>
						<g class="st62">
							
								<image style="overflow:visible;enable-background:new    ;" width="18" height="65" xlink:href="94EC8C0FF2608625.png"  transform="matrix(0.7777 0 0 0.7777 1233.1345 380.7678)">
							</image>
						</g>
						<g>
							
								<linearGradient id="SVGID_24_" gradientUnits="userSpaceOnUse" x1="1240.15" y1="-205.1311" x2="1240.15" y2="-151.7812" gradientTransform="matrix(1 0 0 -1 0 226)">
								<stop  offset="0" style="stop-color:#F8F8F8"/>
								<stop  offset="0.5698" style="stop-color:#FAFAFA;stop-opacity:0.58"/>
								<stop  offset="1" style="stop-color:#FFFFFF"/>
							</linearGradient>
							<path class="st71" d="M1241.1,431.3h-1.9c-1.5,0-2.7-1.2-2.7-2.7v-48.5c0-1.5,1.2-2.7,2.7-2.7h1.9c1.5,0,2.7,1.2,2.7,2.7
								v48.5C1243.8,430.1,1242.6,431.3,1241.1,431.3z"/>
						</g>
					</g>
				</g>
				<polygon id="inner_highlight_right" class="st72" points="1608.5,587.1 1252.4,587.1 1252.4,130.6 1611.3,130.6 				"/>
				<polygon id="inner_highlight_left" class="st72" points="559,587.1 202.9,587.1 202.9,130.6 561.8,130.6 				"/>
				<g id="black_shadow_highligh">
					<g id="left">
						<path d="M204.5,133.4c0.4,18.8,0.7,37.6,1,56.4l0.7,56.4c0.3,18.8,0.3,37.6,0.5,56.4l0.4,56.4l0.2,56.4
							c0,18.8,0.2,37.6,0.1,56.4l-0.1,56.4c-0.2,18.8-0.2,37.6-0.4,56.4c-0.4-18.8-0.7-37.6-1-56.4l-0.7-56.4
							c-0.3-18.8-0.3-37.6-0.5-56.4l-0.4-56.4l-0.2-56.4c0-18.8-0.2-37.6-0.1-56.4l0.1-56.4C204.2,171,204.2,152.2,204.5,133.4z"/>
					</g>
					<g id="_x32_nd_left">
						<path d="M556.4,133.4c0.4,18.8,0.7,37.6,1,56.4l0.7,56.4c0.3,18.8,0.3,37.6,0.5,56.4L559,359l0.2,56.4
							c0,18.8,0.2,37.6,0.1,56.4l-0.1,56.4c-0.2,18.8-0.2,37.6-0.4,56.4c-0.4-18.8-0.7-37.6-1-56.4l-0.7-56.4
							c-0.3-18.8-0.3-37.6-0.5-56.4l-0.4-56.4l-0.2-56.4c0-18.8-0.2-37.6-0.1-56.4l0.1-56.4C556.1,171,556.1,152.2,556.4,133.4z"/>
					</g>
					<g id="_x32_nd_left_1_">
						<path d="M133.2,131.7c0.4,18.8,0.7,37.6,1,56.4l0.7,56.4c0.3,18.8,0.3,37.6,0.5,56.4l0.4,56.4l0.2,56.4
							c0,18.8,0.2,37.6,0.1,56.4l-0.1,56.4c-0.2,18.8-0.2,37.6-0.4,56.4c-0.4-18.8-0.7-37.6-1-56.4l-0.7-56.4
							c-0.3-18.8-0.3-37.6-0.5-56.4l-0.4-56.4l-0.2-56.4c0-18.8-0.2-37.6-0.1-56.4l0.1-56.4C132.9,169.3,132.9,150.5,133.2,131.7z"
							/>
					</g>
					<g id="right">
						<path d="M1606.2,131c0.4,18.8,0.7,37.6,1,56.4l0.7,56.4c0.3,18.8,0.3,37.6,0.5,56.4l0.4,56.4l0.2,56.4
							c0,18.8,0.2,37.6,0.1,56.4l-0.1,56.4c-0.2,18.8-0.2,37.6-0.4,56.4c-0.4-18.8-0.7-37.6-1-56.4l-0.7-56.4
							c-0.3-18.8-0.3-37.6-0.5-56.4l-0.4-56.4l-0.2-56.4c0-18.8-0.2-37.6-0.1-56.4l0.1-56.4C1606,168.6,1606,149.8,1606.2,131z"/>
					</g>
					<g id="_x32_nd_right">
						<path d="M1255.5,131c0.4,18.8,0.7,37.6,1,56.4l0.7,56.4c0.3,18.8,0.3,37.6,0.5,56.4l0.4,56.4l0.2,56.4
							c0,18.8,0.2,37.6,0.1,56.4l-0.1,56.4c-0.2,18.8-0.2,37.6-0.4,56.4c-0.4-18.8-0.7-37.6-1-56.4l-0.7-56.4
							c-0.3-18.8-0.3-37.6-0.5-56.4l-0.4-56.4l-0.2-56.4c0-18.8-0.2-37.6-0.1-56.4l0.1-56.4C1255.3,168.6,1255.3,149.8,1255.5,131z"
							/>
					</g>
					<g id="_x32_nd_right_1_">
						<path d="M1677.6,130.2c0.4,18.8,0.7,37.6,1,56.4l0.7,56.4c0.3,18.8,0.3,37.6,0.5,56.4l0.4,56.4l0.2,56.4
							c0,18.8,0.2,37.6,0.1,56.4l-0.1,56.4c-0.2,18.8-0.2,37.6-0.4,56.4c-0.4-18.8-0.7-37.6-1-56.4l-0.7-56.4
							c-0.3-18.8-0.3-37.6-0.5-56.4l-0.4-56.4l-0.2-56.4c0-18.8-0.2-37.6-0.1-56.4l0.1-56.4C1677.3,167.8,1677.4,149,1677.6,130.2z"
							/>
					</g>
				</g>
			</g>
			<g id="glare">
				
					<linearGradient id="glare_rectangle_2_" gradientUnits="userSpaceOnUse" x1="220.4" y1="-4.45" x2="482.9" y2="-4.45" gradientTransform="matrix(1 0 0 -1 0 226)">
					<stop  offset="0" style="stop-color:#E2E2E2;stop-opacity:0.2"/>
					<stop  offset="0.4403" style="stop-color:#EEEEEE;stop-opacity:0.5524"/>
					<stop  offset="0.9995" style="stop-color:#F8F8F8"/>
				</linearGradient>
				<polygon id="glare_rectangle_1_" class="st73" points="297.5,142.4 482.9,142.4 220.4,318.5 220.4,192.6 				"/>
				
					<linearGradient id="glare_top_left_2_" gradientUnits="userSpaceOnUse" x1="516.7358" y1="-344.2229" x2="515.3632" y2="78.7352" gradientTransform="matrix(1 0 0 -1 0 226)">
					<stop  offset="0" style="stop-color:#FAFAFA;stop-opacity:0.2"/>
					<stop  offset="0.9982" style="stop-color:#F8F8F8;stop-opacity:0.77"/>
				</linearGradient>
				<rect id="glare_top_left_1_" x="482.9" y="142.4" class="st74" width="66.3" height="433"/>
				
					<linearGradient id="glare_bottom_rectangle_2_" gradientUnits="userSpaceOnUse" x1="360.7234" y1="-381.8043" x2="534.0856" y2="-144.8788" gradientTransform="matrix(1 0 0 -1 0 226)">
					<stop  offset="8.814103e-04" style="stop-color:#FAFAFA;stop-opacity:0.2"/>
					<stop  offset="0.9995" style="stop-color:#F8F8F8;stop-opacity:0.9"/>
				</linearGradient>
				<polygon id="glare_bottom_rectangle_1_" class="st75" points="220.4,574.4 549.2,575.4 549.2,368.7 				"/>
				
					<linearGradient id="line_glare_right_1_" gradientUnits="userSpaceOnUse" x1="1596.7" y1="-270.9977" x2="1596.7" y2="24.5767" gradientTransform="matrix(1 0 0 -1 0 226)">
					<stop  offset="4.407051e-04" style="stop-color:#F8F8F8;stop-opacity:0"/>
					<stop  offset="0.5502" style="stop-color:#F8F8F8"/>
					<stop  offset="0.9995" style="stop-color:#FAFAFA;stop-opacity:0"/>
				</linearGradient>
				<rect id="line_glare_right_3_" x="1592.4" y="210" class="st76" width="8.6" height="286.7"/>
				
					<linearGradient id="line_glare_right_4_" gradientUnits="userSpaceOnUse" x1="1669.7" y1="-278.5428" x2="1669.7" y2="17.0315" gradientTransform="matrix(1 0 0 -1 0 226)">
					<stop  offset="4.407051e-04" style="stop-color:#F8F8F8;stop-opacity:0"/>
					<stop  offset="0.5502" style="stop-color:#F8F8F8"/>
					<stop  offset="0.9995" style="stop-color:#FAFAFA;stop-opacity:0"/>
				</linearGradient>
				<rect id="line_glare_right_2_" x="1665.5" y="217.5" class="st77" width="8.4" height="286.7"/>
				
					<linearGradient id="line_glare_left_1_" gradientUnits="userSpaceOnUse" x1="216.1" y1="-291.5009" x2="216.1" y2="4.0735" gradientTransform="matrix(1 0 0 -1 0 226)">
					<stop  offset="4.407051e-04" style="stop-color:#F8F8F8;stop-opacity:0"/>
					<stop  offset="0.5502" style="stop-color:#F8F8F8"/>
					<stop  offset="0.9995" style="stop-color:#FAFAFA;stop-opacity:0"/>
				</linearGradient>
				<rect id="line_glare_left_3_" x="211.8" y="230.5" class="st78" width="8.6" height="286.7"/>
				
					<linearGradient id="line_glare_left_4_" gradientUnits="userSpaceOnUse" x1="141.6" y1="-288.7125" x2="141.6" y2="6.8619" gradientTransform="matrix(1 0 0 -1 0 226)">
					<stop  offset="4.407051e-04" style="stop-color:#F8F8F8;stop-opacity:0"/>
					<stop  offset="0.5502" style="stop-color:#F8F8F8"/>
					<stop  offset="0.9995" style="stop-color:#FAFAFA;stop-opacity:0"/>
				</linearGradient>
				<rect id="line_glare_left_2_" x="137.3" y="227.7" class="st79" width="8.6" height="286.7"/>
				
					<linearGradient id="right_glare_top_2_" gradientUnits="userSpaceOnUse" x1="1467.6011" y1="144.4948" x2="1292.9933" y2="-7.0645" gradientTransform="matrix(1 0 0 -1 0 226)">
					<stop  offset="0" style="stop-color:#F8F8F8;stop-opacity:0.9"/>
					<stop  offset="0.9986" style="stop-color:#FAFAFA;stop-opacity:0.1"/>
				</linearGradient>
				<polygon id="right_glare_top_1_" class="st80" points="1527.9,142.7 1269.2,317.3 1266.3,142.7 				"/>
				
					<linearGradient id="bottom_rectanglev_2_" gradientUnits="userSpaceOnUse" x1="1624.6451" y1="-182.6167" x2="1407.0823" y2="-371.4608" gradientTransform="matrix(1 0 0 -1 0 226)">
					<stop  offset="0" style="stop-color:#F8F8F8;stop-opacity:0.9"/>
					<stop  offset="0.9982" style="stop-color:#FAFAFA;stop-opacity:0.1"/>
				</linearGradient>
				<polygon id="bottom_rectanglev_1_" class="st81" points="1601,371 1601,574.4 1266.3,574.4 				"/>
				
					<linearGradient id="left_rectangle_glare_2_" gradientUnits="userSpaceOnUse" x1="1296.55" y1="-340.6455" x2="1296.55" y2="135.787" gradientTransform="matrix(1 0 0 -1 0 226)">
					<stop  offset="0" style="stop-color:#FAFAFA;stop-opacity:0.1"/>
					<stop  offset="0.9866" style="stop-color:#F8F8F8;stop-opacity:0.77"/>
				</linearGradient>
				<polygon id="left_rectangle_glare_1_" class="st82" points="1331.3,137.5 1266.3,137.5 1261.8,569.2 1331.3,569.2 				"/>
			</g>
		</g>
	</g>
</g>
</svg>
