<?xml version="1.0" encoding="utf-8"?>
<!-- Generator: Adobe Illustrator 22.1.0, SVG Export Plug-In . SVG Version: 6.00 Build 0)  -->
<svg version="1.1" id="Layer_1" xmlns="http://www.w3.org/2000/svg" xmlns:xlink="http://www.w3.org/1999/xlink" x="0px" y="0px"
	 viewBox="0 0 146.2 146.2" style="enable-background:new 0 0 146.2 146.2;" xml:space="preserve">
<style type="text/css">
	.st0{fill:#99FFFF;}
	.st1{fill:#FFFFFF;}
	.st2{fill:none;}
</style>
<circle class="st0" cx="73.1" cy="73.1" r="73.1"/>
<g>
	<g>
		<g>
			<path d="M115.1,36.2c1.4,0,2.6,0,4,0c0.6,0,0.9,0.2,1,0.5c0.1,0.3,0,0.5-0.3,1c-2.8,3.2-5.6,6.4-8.4,9.5c-0.7,0.8-1.2,0.8-1.9,0
				c-2.8-3.1-5.6-6.3-8.3-9.5c-0.4-0.4-0.5-0.8-0.4-1.1c0.1-0.3,0.5-0.5,1-0.5c1.8,0,2.6,0,4.1,0c-0.1-1.1-0.1-2.2-0.2-3.2
				c-0.3-3.3-1-6.5-2.6-9.4c-1.9-3.4-4.6-5.8-8.3-7.1c0.6,0.1,1.3,0.1,1.9,0.2c0.7,0.1,1.4,0.2,2,0.4c4.4,0.9,8.3,2.6,11.5,5.9
				c2.9,3,4.3,6.8,4.7,10.9C115.1,34.6,115.1,35.3,115.1,36.2z"/>
		</g>
	</g>
	<rect x="80.6" y="60.9" class="st1" width="13.8" height="25.6"/>
	<rect x="80.6" y="90.5" class="st1" width="13.8" height="22.6"/>
	<rect x="98.4" y="60.9" class="st1" width="13.8" height="25.6"/>
	<g>
		<path d="M122,53.7c0-1.1,0-2.7-1.7-2.7H72.7c-1.9,0-1.9,2-1.9,2.7c0,11.5,0,23.1,0,34.6c0,10.5,0,21,0,31.4v0c0,0.5,0,0.9,0,1.4
			c0.1,0.9,0.7,1.6,1.7,1.7c0.3,0,0.5,0,0.7,0c0.1,0,0.2,0,0.3,0c0.1,0,0.2,0,0.3,0c8.2,0,16.4,0,24.6,0l20.4,0c0.1,0,0.2,0,0.3,0
			c0.1,0,0.2,0,0.3,0c0.2,0,0.4,0,0.6,0c1.1-0.1,1.8-0.8,1.9-1.9c0-0.5,0-1,0-1.4c0-7.9,0-15.8,0-23.7l0-11
			C121.9,74.7,121.9,64,122,53.7z M74.7,119.1V55h43.3v64.1H74.7z"/>
		<path d="M116,59.4c0-1.7-0.4-2.4-2.4-2.4c-1.5,0-34.2,0-34.7,0c-1.7,0-2.2,0.5-2.2,2.2l0,1.4c0,6.8,0,37.4,0,53.3
			c0,0.1,0,0.2,0,0.3c0,0.3,0,0.6,0,0.9c0.1,1.3,0.6,1.9,2,2c0.2,0,0.4,0,0.6,0c0.1,0,0.2,0,0.2,0c0.1,0,0.1,0,0.2,0l15.9,0l17.4,0
			c0.1,0,0.1,0,0.2,0c0.1,0,0.1,0,0.2,0c0.1,0,0.3,0,0.5,0c1.4-0.1,2-0.7,2.1-2.1c0-0.3,0-0.6,0-1c0-0.1,0-0.2,0-0.3
			c0-7.5,0-48.4,0-48.4c0-0.6,0-1.1,0-1.7C116,62.2,116,60.8,116,59.4z M94.9,90c0,7.9,0,15.7,0,23.6c-4.9,0-9.8,0-14.8,0
			c0-7.9,0-15.7,0-23.6C85,90,89.9,90,94.9,90z M80.1,87c0-8.9,0-17.7,0-26.6c4.9,0,9.8,0,14.8,0c0,8.8,0,17.6,0,26.6
			C89.9,87,85.1,87,80.1,87z M112.6,113.6c-4.9,0-9.8,0-14.8,0c0-8,0-15.7,0-23.6c5,0,9.8,0,14.8,0
			C112.6,97.9,112.6,105.7,112.6,113.6z M97.9,87c0-8.8,0-17.6,0-26.6c5,0,9.8,0,14.8,0c0,8.9,0,17.7,0,26.6
			C107.7,87,102.9,87,97.9,87z"/>
	</g>
	<rect x="98.3" y="90.5" class="st1" width="13.8" height="22.6"/>
	<g>
		<path class="st2" d="M48.4,78c5,0,9.8,0,14.8,0c0-7.9,0-15.7,0-23.6c-5,0-9.9,0-14.8,0C48.4,62.3,48.4,70.1,48.4,78z M48.9,54.9
			h13.8v22.6H48.9V54.9z"/>
		<path class="st2" d="M63.2,24.8c-5,0-9.9,0-14.8,0c0,8.9,0,17.7,0,26.6c5,0,9.8,0,14.8,0C63.2,42.4,63.2,33.6,63.2,24.8z
			 M62.7,50.9H48.9V25.3h13.8V50.9z"/>
		<path class="st2" d="M48,81.4c-0.1,0-0.2,0-0.2,0c-0.1,0-0.2,0-0.2,0c-0.2,0-0.4,0-0.6,0c-1.4-0.1-1.9-0.7-2-2c0-0.3,0-0.6,0-0.9
			c0-0.1,0-0.2,0-0.3c0-15.9,0-46.5,0-53.3l0-1.4c0-1.7,0.5-2.2,2.2-2.2c0.2,0,6.3,0,13.4,0l-1.9-2H43v64.1h25.9c0-0.7,0-1.3,0-2
			l-5,0L48,81.4z"/>
		<path class="st2" d="M84.3,34.4c0,3.6,0,9,0,14.7h2V36.9L84.3,34.4z"/>
		<path class="st2" d="M58.7,19.3l1.9,2c9.4,0,20.4,0,21.3,0c2.1,0,2.4,0.7,2.4,2.4c0,1.4,0,2.8,0,4.2c0,0.6,0,1.1,0,1.7
			c0,0,0,1.8,0,4.8l2,2.5V19.3H58.7z"/>
		<path class="st2" d="M80.4,29.5v19.6h0.5c0-6.4,0-12.7,0-19L80.4,29.5z"/>
		<path class="st2" d="M66.2,24.7c0,0.9,0,1.8,0,2.7l0.5,0.5v-2.7h13.8v4.3l0.5,0.6c0-1.8,0-3.6,0-5.4C76,24.7,71.1,24.7,66.2,24.7z
			"/>
		<path class="st2" d="M66.7,28l-0.5-0.5c0,8,0,16,0,23.9c1,0,2.1,0,3.1,0c0,0,0,0,0,0c0.1-0.2,0.2-0.3,0.2-0.5h-2.9V28z"/>
		<path class="st2" d="M66.1,78c0.9,0,1.9,0,2.8,0c0-0.2,0-0.3,0-0.5h-2.3V54.9h2.3c0-0.2,0-0.3,0-0.5c-0.9,0-1.8,0-2.8,0
			C66.1,62.3,66.1,70,66.1,78z"/>
		<rect x="48.9" y="25.3" class="st1" width="13.8" height="25.6"/>
		<rect x="48.9" y="54.9" class="st1" width="13.8" height="22.6"/>
		<path class="st1" d="M78.1,26.6L72.2,34L66.7,28v22.9h2.9c0.6-1.1,1.8-1.7,3.1-1.7h7.8V29.5L78.1,26.6z"/>
		<polygon class="st1" points="66.7,23.3 66.7,26 72.2,32.1 78.1,24.7 80.4,27.6 80.4,23.3 		"/>
		<path d="M86.4,36.9v12.2h3.9c0-2.4,0-4.9,0-7.4L86.4,36.9z"/>
		<path d="M86.4,17.4V35l3.9,4.8c0-7.9,0-15.9,0-23.7c0-1.1,0-2.7-1.7-2.7H55.1l3.7,4H86.4z"/>
		<path d="M43,19.3h15.7l-3.7-4H41c-1.9,0-1.9,2-1.9,2.7c0,11.5,0,23.1,0,34.6c0,10.5,0,21,0,31.4v0c0,0.5,0,0.9,0,1.4
			c0.1,0.9,0.7,1.6,1.7,1.7c0.3,0,0.5,0,0.7,0c0.1,0,0.2,0,0.3,0c0.1,0,0.2,0,0.3,0c8.2,0,16.4,0,24.6,0l2.2,0c0-1.3,0-2.6,0-3.9H43
			V19.3z"/>
		<path d="M84.3,26c0-1.4,0-2.8,0-4.2c0-1.7-0.4-2.4-2.4-2.4c-0.9,0-11.9,0-21.3,0l5.6,6c0-0.9,0-1.8,0-2.7c5,0,9.8,0,14.8,0
			c0,1.8,0,3.6,0,5.4l3.4,4.2c0-3,0-4.8,0-4.8C84.3,27.1,84.3,26.6,84.3,26z"/>
		<path d="M84.3,34.4l-3.4-4.2c0,6.3,0,12.6,0,19h3.4C84.3,43.4,84.3,38,84.3,34.4z"/>
		<path d="M66.2,27.4l-5.6-6c-7.1,0-13.2,0-13.4,0c-1.7,0-2.2,0.5-2.2,2.2l0,1.4c0,6.8,0,37.4,0,53.3c0,0.1,0,0.2,0,0.3
			c0,0.3,0,0.6,0,0.9c0.1,1.3,0.6,1.9,2,2c0.2,0,0.4,0,0.6,0c0.1,0,0.2,0,0.2,0c0.1,0,0.1,0,0.2,0l15.9,0l5,0c0-1.1,0-2.3,0-3.4
			c-0.9,0-1.8,0-2.8,0c0-8,0-15.7,0-23.6c0.9,0,1.9,0,2.8,0c0-0.2,0-0.5,0-0.7c0-0.5,0-1.4,0.4-2.3c-1,0-2.1,0-3.1,0
			C66.2,43.4,66.2,35.5,66.2,27.4z M48.4,24.8c4.9,0,9.8,0,14.8,0c0,8.8,0,17.6,0,26.6c-5,0-9.8,0-14.8,0
			C48.4,42.5,48.4,33.7,48.4,24.8z M63.2,78c-4.9,0-9.8,0-14.8,0c0-7.9,0-15.7,0-23.6c4.9,0,9.8,0,14.8,0
			C63.2,62.2,63.2,70.1,63.2,78z"/>
		<path class="st1" d="M66.6,77.5h2.3c0-7.6,0-15.1,0-22.6h-2.3V77.5z"/>
	</g>
</g>
</svg>
