<?xml version="1.0" encoding="utf-8"?>
<!-- Generator: Adobe Illustrator 22.1.0, SVG Export Plug-In . SVG Version: 6.00 Build 0)  -->
<svg version="1.1" id="Layer_1" xmlns="http://www.w3.org/2000/svg" xmlns:xlink="http://www.w3.org/1999/xlink" x="0px" y="0px"
	 viewBox="0 0 499.5 342.9" style="enable-background:new 0 0 499.5 342.9;" xml:space="preserve">
<style type="text/css">
	.st0{fill:#E1E1FF;}
	.st1{fill:#B3B3E0;}
	.st2{fill:#404072;}
	.st3{fill:#292947;}
	.st4{fill:url(#SVGID_1_);}
	.st5{fill:#FFE9E9;}
	.st6{fill:#5E5E5E;}
	.st7{fill:url(#SVGID_2_);}
</style>
<rect x="5.6" y="0.7" class="st0" width="490" height="339.2"/>
<rect x="5.6" y="0.7" class="st1" width="339.2" height="339.2"/>
<path class="st2" d="M20.2,19.5v302.1h231V19.5H20.2z M39.2,309.1V31.2h195.6v277.9H39.2z"/>
<path class="st3" d="M119.4,19.5v302.1h231V19.5H119.4z M138.4,309.1V31.2H334v277.9H138.4z"/>
<g>
	<g>
		
			<linearGradient id="SVGID_1_" gradientUnits="userSpaceOnUse" x1="314.4795" y1="297.8675" x2="211.3445" y2="204.9007" gradientTransform="matrix(1 0 0 -1 0 344)">
			<stop  offset="0" style="stop-color:#FFFFFF;stop-opacity:0.89"/>
			<stop  offset="1" style="stop-color:#FFFFFF;stop-opacity:0"/>
		</linearGradient>
		<path class="st4" d="M153.7,38.6c0,0.7-0.1,1.5-0.1,2.2c0,82,74.7,148.5,166.9,148.5c1.5,0,3-0.1,4.4-0.1V38.6H153.7z"/>
	</g>
</g>
<path class="st5" d="M131.1,190.7h-2.5c-1.5,0-2.7-1.2-2.7-2.7v-39.3c0-1.5,1.2-2.7,2.7-2.7h2.5c1.5,0,2.7,1.2,2.7,2.7V188
	C133.8,189.4,132.6,190.7,131.1,190.7z"/>
<path d="M0,0v342.9h498.8V0H0z M476.6,322.2H19.7V20.3h456.9V322.2z"/>
<g id="borderv_1_">
	<path class="st6" d="M477.3,20.5v300.7H21.2V20.5H477.3 M478.3,19.5H20.2v302.7h458.1L478.3,19.5L478.3,19.5z"/>
</g>
<g>
	
		<linearGradient id="SVGID_2_" gradientUnits="userSpaceOnUse" x1="476.3706" y1="327.4411" x2="249.7672" y2="123.1789" gradientTransform="matrix(1 0 0 -1 0 344)">
		<stop  offset="0" style="stop-color:#FFFFFF;stop-opacity:0.46"/>
		<stop  offset="1" style="stop-color:#FFFFFF;stop-opacity:0"/>
	</linearGradient>
	<path class="st7" d="M123.1,0c0,1.6-0.1,3.2-0.1,4.8c0,4.9,0.1,9.8,0.4,14.7h354.9v302.7H405c27.2,5.7,55.5,8.8,84.7,8.8
		c3.3,0,6.5-0.1,9.7-0.2V0H123.1z"/>
</g>
</svg>
